<svg xmlns="http://www.w3.org/2000/svg" version="1.1"><polyline points="501.5,1.0,489.5,13.0,479.5,25.0,469.0,37.5,462.0,49.5,453.5,61.5,447.5,73.5,440.0,85.5,434.0,97.5,427.0,110.0,421.0,122.0,415.0,134.0,407.5,145.5,398.5,157.0,392.5,166.0,404.5,149.0,416.0,130.0,428.0,106.0,439.5,85.5,451.5,64.5,463.5,45.0,475.0,30.0,487.0,16.5,499.0,4.5" stroke="black" stroke-width="2" fill="none" />
<polyline points="507.0,1.0,498.0,13.5,487.5,25.5,477.5,38.0,468.5,49.5,462.5,61.5,453.5,73.5,448.0,85.5,440.5,98.0,434.5,110.0,428.5,122.0,422.5,134.5,415.0,146.5,407.0,158.5,397.5,170.0,388.5,176.0,400.5,165.5,412.0,149.0,424.0,126.0,436.5,103.5,448.5,82.5,460.5,63.0,472.5,43.0,485.0,28.5,497.0,15.0" stroke="black" stroke-width="2" fill="none" />
<polyline points="508.0,52.0,504.5,55.0,484.5,76.0,486.0,101.5,499.5,89.5,505.5,77.5,507.0,65.5,500.0,53.5,485.5,60.5,473.5,84.5" stroke="black" stroke-width="2" fill="none" />
<polyline points="485.5,110.0,500.5,98.0,506.5,86.0,509.5,74.0" stroke="black" stroke-width="2" fill="none" />
<polyline points="502.0,85.5,490.0,99.5,478.0,104.0,478.0,93.5,482.0,81.5,488.0,70.0,494.0,58.0" stroke="black" stroke-width="2" fill="none" />
<polyline points="489.0,55.5,480.0,67.5,475.5,79.5,470.0,91.5,470.5,104.0,473.5,110.0,485.5,111.0,497.5,103.5,509.5,80.5" stroke="black" stroke-width="2" fill="none" />
<polyline points="437.0,29.5,429.5,42.0,422.0,54.0,416.0,66.0,409.5,78.0,404.5,90.0,400.0,102.5,397.0,115.0,392.5,127.0,391.0,139.0,389.5,151.0,389.5,163.0" stroke="black" stroke-width="2" fill="none" />
<polyline points="384.0,175.0,381.5,163.0,383.0,151.0,386.0,139.5,388.0,127.5,392.5,115.5,395.5,103.5,400.0,91.5,404.5,79.5,408.5,67.5,414.0,55.5,420.0,43.5,429.0,31.5,427.5,44.5,415.0,65.5,403.0,94.0" stroke="black" stroke-width="2" fill="none" />
<polyline points="394.0,125.0,398.5,92.5,410.5,62.5,422.0,41.5,433.5,29.0" stroke="black" stroke-width="2" fill="none" />
<polyline points="306.0,54.0,294.0,51.5,282.0,50.0,270.0,51.5,258.0,52.0,246.5,54.0,234.5,57.0,222.0,61.5,210.0,65.5,197.5,70.0,185.5,74.5,173.0,80.5,161.5,87.0,149.5,94.5,137.5,101.5,126.0,108.5,114.0,117.0,101.5,128.0,89.0,138.0,76.5,152.0,64.0,170.0,52.0,195.5" stroke="black" stroke-width="2" fill="none" />
<polyline points="60.5,196.5,72.5,168.0,84.5,151.5,97.0,139.5,109.0,128.5,121.5,118.0,133.5,109.5,145.5,102.0,157.5,96.5,169.5,89.0,181.5,83.5,193.5,77.5,205.5,73.0,196.5,75.5,172.5,88.0,150.0,100.0,132.0,111.5,117.0,123.5,102.0,135.5,90.0,148.0,81.0,160.0,72.0,172.0,66.0,183.5,63.0,195.5,59.5,207.0,57.5,219.5" stroke="black" stroke-width="2" fill="none" />
<polyline points="85.0,210.0,97.5,184.5,109.5,172.5,102.5,179.0,95.0,191.0,89.0,202.5,86.0,214.5,81.5,226.5,80.0,238.5,80.0,250.5" stroke="black" stroke-width="2" fill="none" />
<polyline points="130.5,237.0,107.0,249.5,92.0,261.5,67.0,273.5,47.5,285.5,30.0,297.5,15.0,309.5,14.0,311.0,26.5,300.5,38.5,293.5,50.0,284.0,62.5,276.5,75.0,271.0,87.0,266.5,99.0,259.0,111.0,248.5,123.0,242.5,134.5,238.0,146.5,234.0" stroke="black" stroke-width="2" fill="none" />
<polyline points="149.5,212.5,162.0,224.5,174.0,240.0,156.0,252.0,134.5,264.0,116.0,276.0,113.0,279.0,124.5,270.0,136.0,264.0,148.0,256.5,159.5,249.5,171.5,240.5" stroke="black" stroke-width="2" fill="none" />
<polyline points="179.0,247.0,166.5,254.5,154.5,260.5,142.5,268.0,130.5,274.0,118.5,281.5,106.5,289.0,94.5,295.0,82.5,302.5,72.0,303.5,82.0,291.5,95.5,279.0,110.0,267.0,123.0,255.0,136.5,243.0,145.5,237.0,133.5,246.0,121.5,256.5,109.5,267.0,97.5,275.5,85.5,286.0,73.5,298.0,90.0,295.0,111.0,283.0,132.0,271.0,153.0,259.0,174.0,247.0,183.0,235.5,174.0,224.0,182.0,212.5,196.5,201.0,210.0,191.0,198.5,200.0,186.0,210.5,174.0,222.5" stroke="black" stroke-width="2" fill="none" />
<polyline points="212.0,239.5,224.0,248.5,236.0,242.5,248.0,230.0,260.0,212.0,266.0,199.5,260.0,211.5,252.5,224.0,244.0,236.0" stroke="black" stroke-width="2" fill="none" />
<polyline points="271.5,216.5,268.0,204.5" stroke="black" stroke-width="2" fill="none" />
<polyline points="311.5,203.0,323.5,168.5,335.5,141.0,347.5,113.5,359.5,86.5,371.5,60.5,383.0,38.5,393.5,19.0,388.5,31.5,381.0,43.5,375.0,55.5,368.5,67.5,362.5,79.5,356.5,91.5,351.0,103.5,346.5,115.5,341.0,127.5,336.5,140.0,330.5,152.5,326.5,164.5,322.0,176.5,317.0,189.0,312.5,201.0,311.0,213.0,320.0,210.0,332.0,197.0,344.0,170.0,356.5,148.5,364.5,136.5,357.0,148.0,351.0,160.0,343.0,172.0,338.5,184.0,332.5,195.5,322.0,207.5" stroke="black" stroke-width="2" fill="none" />
<polyline points="324.0,215.0,333.0,203.5,340.5,191.5,346.5,179.5,356.0,177.0,359.0,165.0,364.0,153.0,367.0,141.0,358.0,171.0,347.5,179.5,335.5,202.0,323.5,217.0,312.0,224.5,304.0,219.5,305.5,207.5,309.0,195.5,312.0,183.0,316.5,171.5,322.5,159.0,325.0,147.5,331.0,135.5,336.5,123.5,341.0,111.5,347.0,99.5,351.5,87.0,357.5,75.0,364.0,63.0,370.0,51.0,376.0,39.0,382.0,27.0,393.5,17.0,381.0,27.5,369.0,52.0,357.0,76.0,345.0,101.5,333.5,126.5,321.5,156.0,309.5,188.0" stroke="black" stroke-width="2" fill="none" />
<polyline points="283.5,159.5,288.0,131.0,282.0,142.5,277.5,154.5,273.0,166.0,268.5,178.0,264.5,190.0,259.0,202.0,253.5,214.0,245.0,226.0,233.0,237.5,228.5,240.5,240.0,230.0,251.5,215.0,263.5,190.5,276.0,160.0,287.5,130.0,295.0,131.5,290.5,143.5,286.0,155.5,281.5,168.0,278.5,180.0,277.5,192.0,276.5,204.5,281.0,217.0" stroke="black" stroke-width="2" fill="none" />
<polyline points="217.0,198.0,229.0,174.0,241.0,160.0,253.5,148.0,265.5,134.5,278.0,122.0,290.0,110.5,302.5,94.0" stroke="black" stroke-width="2" fill="none" />
<polyline points="299.5,87.5,287.5,104.0,275.5,117.5,263.0,131.0,251.0,143.0,239.0,153.5,226.5,148.5,214.5,172.5,202.5,185.5,190.5,197.5,178.5,206.5,166.0,216.0,154.0,223.5,146.5,212.0,145.0,200.0,145.5,188.0,143.0,176.5,143.0,164.5,142.0,152.5" stroke="black" stroke-width="2" fill="none" />
<polyline points="137.0,151.0,135.5,157.0,135.5,169.0,138.5,181.0,138.5,193.0,139.5,205.0,143.0,217.0,134.0,229.0,105.5,239.5,92.0,251.0,83.0,257.5,95.0,250.0,107.0,238.0,119.0,236.5,131.0,230.0" stroke="black" stroke-width="2" fill="none" />
<polyline points="116.5,212.0,121.0,200.0,122.5,187.5,122.0,175.5,120.5,169.5,108.5,165.0,96.5,174.0,84.5,195.0" stroke="black" stroke-width="2" fill="none" />
<polyline points="111.0,210.5,112.5,199.0,114.5,187.0,113.0,175.0" stroke="black" stroke-width="2" fill="none" />
<polyline points="102.5,167.5,93.0,179.5,87.0,192.0,82.5,204.0,78.0,215.5,75.0,227.5,72.5,239.5,72.0,251.0,72.0,262.5,54.0,274.5,35.5,286.5,18.0,298.5,4.5,310.5,11.0,304.5,24.0,295.5,36.0,288.0,48.0,279.0,60.0,271.5,71.5,264.5" stroke="black" stroke-width="2" fill="none" />
<polyline points="170.5,158.0,182.5,142.0,199.0,116.0" stroke="black" stroke-width="2" fill="none" />
<polyline points="199.5,100.0,192.5,112.0,188.0,124.0,185.0,136.0,179.0,148.0,171.5,160.0,180.5,172.0,185.0,184.0" stroke="black" stroke-width="2" fill="none" />
<polyline points="188.0,177.0,188.0,165.0,189.0,153.5,199.5,146.0,187.5,155.0" stroke="black" stroke-width="2" fill="none" />
<polyline points="209.5,193.0,208.0,205.0,206.0,217.0,201.5,229.5,200.5,241.5,199.5,253.5,199.5,265.0" stroke="black" stroke-width="2" fill="none" />
<polyline points="197.5,99.5,186.0,111.0,185.5,111.0,194.5,99.0" stroke="black" stroke-width="2" fill="none" />
<polyline points="204.5,79.5,192.5,93.0,180.5,108.0,180.5,108.0,191.0,96.5,200.0,85.0,210.0,73.0" stroke="black" stroke-width="2" fill="none" />
<polyline points="224.5,64.5,218.5,76.5,212.5,88.0,205.0,100.0,200.5,112.5,195.5,124.5,191.5,137.0,192.0,116.5,205.5,101.5,217.5,79.5,229.5,66.0,241.5,61.5,253.5,59.5,265.0,56.5,276.5,55.5,288.5,57.0,300.0,60.0" stroke="black" stroke-width="2" fill="none" />
<polyline points="298.0,58.5,307.0,70.5,302.5,82.5,295.0,95.0,284.0,107.0,273.5,119.0,263.5,131.0,251.5,143.0,238.0,155.0,223.0,156.5,218.5,169.0,210.0,181.0,198.0,193.0,183.0,205.0,160.5,217.0,165.0,229.0,151.5,241.5,138.0,253.5,123.0,265.5,108.0,277.5,112.0,274.5,124.0,265.5,136.0,255.0,147.5,244.5,159.5,233.5,171.5,228.5,183.5,232.5" stroke="black" stroke-width="2" fill="none" />
<polyline points="58.5,220.0,52.5,215.0,52.5,202.5,57.0,190.5,61.5,178.5,67.5,167.0,75.0,154.5,85.0,142.5,96.5,130.5,111.5,118.5,127.5,106.5,145.5,94.5,166.5,82.5,192.0,70.5,222.0,58.5" stroke="black" stroke-width="2" fill="none" />
<polyline points="300.5,52.5,311.0,64.5,311.0,76.5,304.5,88.5,297.5,101.0,286.5,113.5,274.5,125.0,264.5,137.0,253.0,149.0,241.0,161.0,230.5,173.0,223.0,185.0,218.0,197.5,216.0,209.5,216.0,221.5,216.0,233.5,208.5,242.5,207.0,254.5,206.0,266.5" stroke="black" stroke-width="2" fill="none" />
</svg>