<svg xmlns="http://www.w3.org/2000/svg" version="1.1"><polyline points="503.0,1.5,495.0,9.5,487.0,17.5,481.0,25.5,474.0,33.5,468.5,41.5,462.5,49.5,457.5,57.0,452.5,65.0,447.5,73.5,443.5,81.5,438.5,89.5,434.5,97.5,429.5,105.5,425.5,113.0,421.5,121.5,416.5,129.0,412.5,137.0,407.5,145.0,401.5,153.0,396.0,160.5,393.0,165.0,401.0,155.0,409.0,142.0,416.5,129.0,425.0,115.0,433.0,99.5,441.0,85.5,449.0,71.5,457.5,58.5,466.0,47.0,473.5,37.0,481.0,26.5,489.0,17.0,496.0,9.0" stroke="black" stroke-width="2" fill="none" />
<polyline points="498.5,3.5,506.5,3.0" stroke="black" stroke-width="2" fill="none" />
<polyline points="508.5,1.0,503.5,9.0,496.0,17.5,490.0,25.5,481.5,34.0,475.5,42.0,468.5,49.5,464.5,57.5,460.5,65.0,454.5,73.0,450.0,81.0,445.5,88.5,442.0,96.5,437.5,104.5,433.0,112.5,429.0,120.5,425.0,128.5,420.5,136.5,415.0,144.5,411.0,152.5,405.0,161.0,399.0,168.5,387.5,181.0,388.5,181.5" stroke="black" stroke-width="2" fill="none" />
<polyline points="388.5,175.0,396.5,174.5" stroke="black" stroke-width="2" fill="none" />
<polyline points="394.5,171.5,402.5,163.5" stroke="black" stroke-width="2" fill="none" />
<polyline points="394.0,161.5,386.0,169.5" stroke="black" stroke-width="2" fill="none" />
<polyline points="387.5,167.5,395.5,167.0,403.5,166.0" stroke="black" stroke-width="2" fill="none" />
<polyline points="403.5,151.5,411.5,150.5,419.5,149.0" stroke="black" stroke-width="2" fill="none" />
<polyline points="412.5,147.5,420.5,140.5" stroke="black" stroke-width="2" fill="none" />
<polyline points="420.0,130.5,428.5,123.0" stroke="black" stroke-width="2" fill="none" />
<polyline points="424.5,119.0,432.5,118.5" stroke="black" stroke-width="2" fill="none" />
<polyline points="433.0,109.5,425.0,110.0" stroke="black" stroke-width="2" fill="none" />
<polyline points="438.0,102.5,446.0,102.5" stroke="black" stroke-width="2" fill="none" />
<polyline points="442.5,94.5,435.0,95.0" stroke="black" stroke-width="2" fill="none" />
<polyline points="442.0,84.0,450.0,83.5" stroke="black" stroke-width="2" fill="none" />
<polyline points="453.0,85.5,455.0,88.5" stroke="black" stroke-width="2" fill="none" />
<polyline points="450.0,77.0,458.5,69.0" stroke="black" stroke-width="2" fill="none" />
<polyline points="460.0,61.0,468.0,60.5" stroke="black" stroke-width="2" fill="none" />
<polyline points="468.0,47.0,476.5,46.0" stroke="black" stroke-width="2" fill="none" />
<polyline points="474.0,36.5,482.0,36.0" stroke="black" stroke-width="2" fill="none" />
<polyline points="474.0,29.0,482.5,28.5,490.0,27.5" stroke="black" stroke-width="2" fill="none" />
<polyline points="497.5,18.5,489.0,19.0,480.5,20.0" stroke="black" stroke-width="2" fill="none" />
<polyline points="490.5,12.0,499.0,11.5,507.0,11.5" stroke="black" stroke-width="2" fill="none" />
<polyline points="506.0,10.0,498.0,17.5,489.5,27.0,481.0,35.0,473.0,46.0,465.0,58.0,457.0,70.5,449.0,83.5,441.0,98.5,433.0,112.5,425.0,128.5,417.0,144.0,409.0,156.0,401.0,168.5,393.0,175.5,385.0,175.0,383.0,172.0,383.0,164.0,383.0,156.0,385.0,148.0,386.0,140.0,388.0,131.5,389.5,123.0,391.5,115.0,393.5,107.0,397.0,99.0,400.5,91.0,402.0,83.0,406.0,75.0,409.0,67.0,413.5,59.5,418.0,51.5,421.5,43.5,427.5,35.5,438.5,30.0,430.5,30.5,422.0,41.5,413.5,55.0,405.5,72.0" stroke="black" stroke-width="2" fill="none" />
<polyline points="404.0,78.0,411.5,77.0" stroke="black" stroke-width="2" fill="none" />
<polyline points="412.5,71.0,420.5,70.0" stroke="black" stroke-width="2" fill="none" />
<polyline points="419.5,61.0,411.5,68.5" stroke="black" stroke-width="2" fill="none" />
<polyline points="412.5,61.0,420.0,61.0" stroke="black" stroke-width="2" fill="none" />
<polyline points="418.0,52.5,426.0,52.0" stroke="black" stroke-width="2" fill="none" />
<polyline points="426.5,43.5,434.5,36.5" stroke="black" stroke-width="2" fill="none" />
<polyline points="433.0,35.0,425.0,35.5" stroke="black" stroke-width="2" fill="none" />
<polyline points="433.5,43.0,426.0,43.5,418.0,44.5" stroke="black" stroke-width="2" fill="none" />
<polyline points="431.0,40.5,423.0,51.0,415.0,67.0,407.0,85.0,399.0,106.0" stroke="black" stroke-width="2" fill="none" />
<polyline points="401.5,110.0,393.5,110.5" stroke="black" stroke-width="2" fill="none" />
<polyline points="395.0,117.5,403.5,117.0" stroke="black" stroke-width="2" fill="none" />
<polyline points="417.0,124.0,425.0,123.5" stroke="black" stroke-width="2" fill="none" />
<polyline points="428.0,133.0,420.5,133.0,412.5,133.0" stroke="black" stroke-width="2" fill="none" />
<polyline points="409.5,140.0,418.0,139.5" stroke="black" stroke-width="2" fill="none" />
<polyline points="395.5,140.5,387.5,148.0" stroke="black" stroke-width="2" fill="none" />
<polyline points="386.5,149.0,395.0,148.5" stroke="black" stroke-width="2" fill="none" />
<polyline points="394.0,141.0,386.0,141.5" stroke="black" stroke-width="2" fill="none" />
<polyline points="386.0,134.0,394.0,133.0" stroke="black" stroke-width="2" fill="none" />
<polyline points="395.5,124.5,388.0,124.5" stroke="black" stroke-width="2" fill="none" />
<polyline points="373.0,140.5,365.5,140.5" stroke="black" stroke-width="2" fill="none" />
<polyline points="367.5,137.0,367.5,145.0,364.0,152.5,360.5,160.5,358.5,169.0,355.5,177.0,353.5,185.0,344.5,197.0,351.0,194.0" stroke="black" stroke-width="2" fill="none" />
<polyline points="347.0,190.5,339.0,191.0" stroke="black" stroke-width="2" fill="none" />
<polyline points="340.0,187.5,347.5,180.0,355.5,172.5" stroke="black" stroke-width="2" fill="none" />
<polyline points="356.5,176.5,348.5,177.5" stroke="black" stroke-width="2" fill="none" />
<polyline points="347.0,179.5,344.0,187.5,339.0,195.5,335.0,203.0,329.0,211.0,323.0,219.0,320.5,227.0" stroke="black" stroke-width="2" fill="none" />
<polyline points="316.5,219.5,324.5,211.5,332.5,203.0" stroke="black" stroke-width="2" fill="none" />
<polyline points="332.5,198.0,341.0,197.5" stroke="black" stroke-width="2" fill="none" />
<polyline points="338.5,183.0,346.5,182.5,354.5,181.0" stroke="black" stroke-width="2" fill="none" />
<polyline points="349.5,180.0,349.5,188.0" stroke="black" stroke-width="2" fill="none" />
<polyline points="354.5,172.0,346.5,172.5,338.5,173.0" stroke="black" stroke-width="2" fill="none" />
<polyline points="347.5,169.0,356.0,161.0,364.0,153.5" stroke="black" stroke-width="2" fill="none" />
<polyline points="364.5,148.0,356.5,155.0" stroke="black" stroke-width="2" fill="none" />
<polyline points="354.0,157.0,362.0,156.5" stroke="black" stroke-width="2" fill="none" />
<polyline points="363.0,162.0,355.5,162.5" stroke="black" stroke-width="2" fill="none" />
<polyline points="348.0,164.0,356.0,163.5,364.0,163.0" stroke="black" stroke-width="2" fill="none" />
<polyline points="380.0,155.0,387.5,154.5,395.5,155.0,403.5,155.5,411.5,156.0" stroke="black" stroke-width="2" fill="none" />
<polyline points="370.5,146.5,362.5,146.5,354.5,146.5" stroke="black" stroke-width="2" fill="none" />
<polyline points="362.5,142.0,354.5,156.5,346.0,165.5,343.0,174.0,334.5,193.5,326.0,204.5,318.0,211.5,314.0,215.5,323.0,207.5,330.0,199.5,335.0,191.5,337.5,183.5,340.5,176.0,345.5,168.0,350.5,160.0,354.5,152.0,359.5,144.0,363.5,136.0" stroke="black" stroke-width="2" fill="none" />
<polyline points="348.5,114.5,340.5,122.0" stroke="black" stroke-width="2" fill="none" />
<polyline points="337.5,124.0,345.0,124.5" stroke="black" stroke-width="2" fill="none" />
<polyline points="346.0,118.0,338.5,118.0" stroke="black" stroke-width="2" fill="none" />
<polyline points="339.5,110.0,347.5,109.5,355.5,109.5" stroke="black" stroke-width="2" fill="none" />
<polyline points="347.0,107.0,354.5,99.0" stroke="black" stroke-width="2" fill="none" />
<polyline points="356.5,101.0,348.5,101.5" stroke="black" stroke-width="2" fill="none" />
<polyline points="348.5,94.0,356.5,93.0,365.0,92.0" stroke="black" stroke-width="2" fill="none" />
<polyline points="364.5,84.5,356.5,91.5" stroke="black" stroke-width="2" fill="none" />
<polyline points="354.0,84.5,362.0,84.0" stroke="black" stroke-width="2" fill="none" />
<polyline points="363.0,76.0,371.0,68.5" stroke="black" stroke-width="2" fill="none" />
<polyline points="371.5,69.5,364.0,70.0" stroke="black" stroke-width="2" fill="none" />
<polyline points="364.0,61.5,371.5,61.0,379.5,60.5" stroke="black" stroke-width="2" fill="none" />
<polyline points="372.5,60.0,380.0,53.0" stroke="black" stroke-width="2" fill="none" />
<polyline points="380.0,52.0,371.5,52.5" stroke="black" stroke-width="2" fill="none" />
<polyline points="372.0,45.0,379.5,44.0,387.0,43.0" stroke="black" stroke-width="2" fill="none" />
<polyline points="388.5,36.5,380.5,44.5" stroke="black" stroke-width="2" fill="none" />
<polyline points="380.0,37.0,387.5,37.0" stroke="black" stroke-width="2" fill="none" />
<polyline points="389.0,29.0,397.0,21.5" stroke="black" stroke-width="2" fill="none" />
<polyline points="395.5,20.5,387.5,20.5" stroke="black" stroke-width="2" fill="none" />
<polyline points="394.0,18.0,393.0,26.0,388.5,34.0,384.0,42.0,380.0,50.0,376.0,57.5,372.0,65.5,367.5,73.5,363.5,81.5,359.0,89.0,355.5,97.0,352.5,105.0,348.5,113.0,344.5,121.0,341.5,129.0,338.0,137.0,336.0,145.0,332.0,153.0,328.5,161.0,325.5,169.0,322.5,177.5,319.5,185.5,316.0,194.0,313.5,202.0,311.0,210.5,306.0,221.5,314.0,224.5,322.0,219.0,330.0,209.5,338.0,195.5,345.5,182.5" stroke="black" stroke-width="2" fill="none" />
<polyline points="323.5,163.0,331.5,155.5" stroke="black" stroke-width="2" fill="none" />
<polyline points="331.5,156.0,323.5,156.5" stroke="black" stroke-width="2" fill="none" />
<polyline points="325.5,149.0,333.0,148.5" stroke="black" stroke-width="2" fill="none" />
<polyline points="325.0,148.0,333.0,132.0,341.0,112.5,349.0,94.5,357.5,78.5,365.5,61.5,373.5,45.5,381.0,29.5,389.0,17.5,387.0,19.0,383.5,27.0,379.0,35.0,374.5,42.5,371.5,50.5,367.0,58.5,363.0,66.5,359.5,74.5,355.0,82.5,351.0,91.0,348.0,99.5,343.5,107.5,340.5,115.5,336.0,123.0,334.0,130.5,330.0,138.5,326.0,146.0,323.0,154.0,320.0,162.5,317.0,170.5,314.0,178.5,311.0,186.5,308.0,194.5,305.5,202.5,303.5,210.5,303.5,218.5,302.5,228.0,305.5,230.0" stroke="black" stroke-width="2" fill="none" />
<polyline points="306.0,221.5,314.5,214.0" stroke="black" stroke-width="2" fill="none" />
<polyline points="304.5,213.0,313.0,212.5,321.5,211.5,330.0,210.5" stroke="black" stroke-width="2" fill="none" />
<polyline points="331.5,203.0,323.5,203.5" stroke="black" stroke-width="2" fill="none" />
<polyline points="315.5,206.0,307.5,206.5" stroke="black" stroke-width="2" fill="none" />
<polyline points="308.5,198.5,317.0,198.0" stroke="black" stroke-width="2" fill="none" />
<polyline points="314.0,192.5,314.0,175.5,326.5,161.5,334.5,142.5,343.0,124.0,351.0,107.0,359.0,90.0,367.0,73.0,375.0,56.5,383.5,41.5,391.5,27.5" stroke="black" stroke-width="2" fill="none" />
<polyline points="394.5,28.0,387.0,28.0,379.0,28.5" stroke="black" stroke-width="2" fill="none" />
<polyline points="372.0,76.0,364.0,76.5,355.5,76.5" stroke="black" stroke-width="2" fill="none" />
<polyline points="398.5,93.5,406.5,93.0,413.5,93.0" stroke="black" stroke-width="2" fill="none" />
<polyline points="412.5,86.5,404.5,87.5" stroke="black" stroke-width="2" fill="none" />
<polyline points="403.5,101.0,395.5,101.5" stroke="black" stroke-width="2" fill="none" />
<polyline points="443.5,77.5,451.5,77.0,459.5,76.5" stroke="black" stroke-width="2" fill="none" />
<polyline points="457.5,69.0,449.5,69.5" stroke="black" stroke-width="2" fill="none" />
<polyline points="457.0,51.5,465.0,51.0" stroke="black" stroke-width="2" fill="none" />
<polyline points="483.0,59.5,491.0,59.0,499.0,59.0" stroke="black" stroke-width="2" fill="none" />
<polyline points="499.0,58.5,505.0,55.5,508.0,63.5,507.5,71.5,505.5,80.0,501.0,88.0,496.0,96.0,482.5,104.0,486.0,103.0,494.5,99.0,503.0,87.5" stroke="black" stroke-width="2" fill="none" />
<polyline points="500.0,85.0,507.5,84.5,515.5,84.5" stroke="black" stroke-width="2" fill="none" />
<polyline points="508.5,92.0,500.5,99.5,493.0,107.0" stroke="black" stroke-width="2" fill="none" />
<polyline points="501.0,93.0,508.5,92.5" stroke="black" stroke-width="2" fill="none" />
<polyline points="505.5,77.5,514.0,77.0" stroke="black" stroke-width="2" fill="none" />
<polyline points="515.5,68.0,507.5,69.0" stroke="black" stroke-width="2" fill="none" />
<polyline points="508.0,58.5,516.0,58.5" stroke="black" stroke-width="2" fill="none" />
<polyline points="515.5,51.0,507.5,51.0" stroke="black" stroke-width="2" fill="none" />
<polyline points="508.5,50.5,500.5,52.5" stroke="black" stroke-width="2" fill="none" />
<polyline points="493.5,67.5,486.0,75.0" stroke="black" stroke-width="2" fill="none" />
<polyline points="490.5,75.0,482.5,75.5,475.0,75.5" stroke="black" stroke-width="2" fill="none" />
<polyline points="479.5,72.5,488.0,58.5,495.5,57.0,486.5,61.0,481.5,69.0,478.0,77.5,475.5,85.5,471.5,93.5,469.5,101.5,471.5,109.5,475.5,111.5,483.5,112.0,491.5,110.0,499.0,104.5,507.0,92.5,512.0,74.5,511.0,82.0,508.0,90.0,503.0,97.5,497.0,105.5" stroke="black" stroke-width="2" fill="none" />
<polyline points="489.5,107.0,481.5,107.5,473.5,108.0" stroke="black" stroke-width="2" fill="none" />
<polyline points="467.0,103.0,475.0,102.0,483.0,100.5,491.0,100.0,499.5,100.0" stroke="black" stroke-width="2" fill="none" />
<polyline points="484.5,84.5,476.0,92.0" stroke="black" stroke-width="2" fill="none" />
<polyline points="475.5,91.5,483.0,91.5" stroke="black" stroke-width="2" fill="none" />
<polyline points="480.5,85.0,488.5,70.0,495.0,59.0,491.0,67.0,487.0,75.0,483.5,83.0,479.5,91.5,477.5,99.5" stroke="black" stroke-width="2" fill="none" />
<polyline points="474.5,84.0,482.5,83.0" stroke="black" stroke-width="2" fill="none" />
<polyline points="483.0,68.5,491.0,68.0" stroke="black" stroke-width="2" fill="none" />
<polyline points="503.5,23.0,501.0,19.5,501.0,22.0,503.5,16.0" stroke="black" stroke-width="2" fill="none" />
<polyline points="436.5,31.0,436.5,39.0,429.5,46.0,424.0,53.5,421.0,61.5,417.0,69.0,413.5,77.0,410.5,84.5,407.5,92.5,404.5,100.0,401.5,108.0,399.5,116.5,396.0,124.5,394.5,132.5,392.5,140.0,391.5,148.0,391.5,156.0,390.5,164.5" stroke="black" stroke-width="2" fill="none" />
<polyline points="340.0,139.5,332.0,140.0" stroke="black" stroke-width="2" fill="none" />
<polyline points="331.5,132.5,339.5,132.0" stroke="black" stroke-width="2" fill="none" />
<polyline points="331.5,164.5,323.5,165.0,316.0,165.5" stroke="black" stroke-width="2" fill="none" />
<polyline points="317.5,172.5,325.0,172.0" stroke="black" stroke-width="2" fill="none" />
<polyline points="324.0,180.0,316.0,180.5" stroke="black" stroke-width="2" fill="none" />
<polyline points="316.5,189.0,308.5,189.5" stroke="black" stroke-width="2" fill="none" />
<polyline points="286.0,171.0,278.0,178.5,269.5,185.5" stroke="black" stroke-width="2" fill="none" />
<polyline points="267.5,188.0,275.5,188.0,283.0,187.5" stroke="black" stroke-width="2" fill="none" />
<polyline points="275.5,187.5,268.0,195.0" stroke="black" stroke-width="2" fill="none" />
<polyline points="268.5,199.5,270.5,208.0,273.0,216.0,265.0,219.5" stroke="black" stroke-width="2" fill="none" />
<polyline points="257.5,212.0,249.5,219.0" stroke="black" stroke-width="2" fill="none" />
<polyline points="250.5,213.5,258.5,213.0" stroke="black" stroke-width="2" fill="none" />
<polyline points="259.5,206.0,267.5,205.5" stroke="black" stroke-width="2" fill="none" />
<polyline points="269.0,204.5,276.5,197.5" stroke="black" stroke-width="2" fill="none" />
<polyline points="273.0,191.5,265.0,191.5" stroke="black" stroke-width="2" fill="none" />
<polyline points="260.5,200.0,268.5,199.0,276.5,198.5" stroke="black" stroke-width="2" fill="none" />
<polyline points="276.0,213.0,284.0,212.5" stroke="black" stroke-width="2" fill="none" />
<polyline points="280.5,214.5,278.5,218.5,276.5,215.0,274.5,207.5,274.5,199.5,276.5,191.5,279.0,183.5,281.0,176.0,283.5,167.5,285.5,159.5,288.5,151.5,292.5,143.5,296.0,135.5,294.0,137.5,286.0,155.0" stroke="black" stroke-width="2" fill="none" />
<polyline points="285.5,154.5,293.5,147.0" stroke="black" stroke-width="2" fill="none" />
<polyline points="292.5,140.0,284.5,147.5" stroke="black" stroke-width="2" fill="none" />
<polyline points="281.0,147.0,289.0,132.0,291.5,129.5,284.5,137.0,281.5,144.5,279.0,152.5,277.0,160.0,273.0,168.0,271.0,176.0,268.0,184.5,264.0,192.5,260.0,200.5,255.5,208.0,250.5,216.0,244.5,223.5,238.5,232.0,228.5,240.0" stroke="black" stroke-width="2" fill="none" />
<polyline points="227.5,244.5,219.5,245.0" stroke="black" stroke-width="2" fill="none" />
<polyline points="218.5,236.0,210.0,244.0" stroke="black" stroke-width="2" fill="none" />
<polyline points="210.0,240.5,209.0,248.5,208.5,256.0,207.5,263.5" stroke="black" stroke-width="2" fill="none" />
<polyline points="205.0,261.0,212.5,260.5" stroke="black" stroke-width="2" fill="none" />
<polyline points="211.0,252.0,203.5,259.5" stroke="black" stroke-width="2" fill="none" />
<polyline points="205.5,253.0,213.0,252.5" stroke="black" stroke-width="2" fill="none" />
<polyline points="213.5,242.5,205.5,242.5" stroke="black" stroke-width="2" fill="none" />
<polyline points="202.5,243.5,210.0,236.5,218.0,229.5" stroke="black" stroke-width="2" fill="none" />
<polyline points="211.5,228.0,219.5,220.5" stroke="black" stroke-width="2" fill="none" />
<polyline points="212.0,219.0,220.0,211.5" stroke="black" stroke-width="2" fill="none" />
<polyline points="219.5,203.5,211.5,211.0" stroke="black" stroke-width="2" fill="none" />
<polyline points="208.5,211.5,217.0,211.5" stroke="black" stroke-width="2" fill="none" />
<polyline points="210.5,204.0,218.5,197.0" stroke="black" stroke-width="2" fill="none" />
<polyline points="219.5,196.0,211.0,196.5" stroke="black" stroke-width="2" fill="none" />
<polyline points="211.0,195.0,218.5,187.0,226.5,179.5" stroke="black" stroke-width="2" fill="none" />
<polyline points="227.5,178.5,219.5,178.5" stroke="black" stroke-width="2" fill="none" />
<polyline points="220.5,184.5,212.5,185.5" stroke="black" stroke-width="2" fill="none" />
<polyline points="212.5,190.0,210.5,198.0,209.0,206.0,207.0,214.0,206.0,222.5,204.0,230.5,202.5,239.0,201.5,247.5,199.0,255.5,199.0,263.5,200.0,266.5" stroke="black" stroke-width="2" fill="none" />
<polyline points="181.0,245.0,189.0,238.0" stroke="black" stroke-width="2" fill="none" />
<polyline points="206.0,235.0,213.5,235.0,221.0,235.0,228.5,234.5,236.0,234.5,243.5,234.0" stroke="black" stroke-width="2" fill="none" />
<polyline points="235.5,231.0,243.5,230.5,251.5,230.0" stroke="black" stroke-width="2" fill="none" />
<polyline points="243.0,221.0,251.5,221.0,260.0,220.0" stroke="black" stroke-width="2" fill="none" />
<polyline points="287.0,222.5,278.5,227.5,289.0,219.0" stroke="black" stroke-width="2" fill="none" />
<polyline points="283.0,180.5,275.0,181.0,267.0,182.0" stroke="black" stroke-width="2" fill="none" />
<polyline points="275.5,173.0,284.0,172.5" stroke="black" stroke-width="2" fill="none" />
<polyline points="277.5,171.0,285.5,164.0" stroke="black" stroke-width="2" fill="none" />
<polyline points="282.5,166.5,275.0,167.0" stroke="black" stroke-width="2" fill="none" />
<polyline points="274.0,157.0,282.0,156.5,290.0,156.0" stroke="black" stroke-width="2" fill="none" />
<polyline points="292.5,151.0,284.0,152.0" stroke="black" stroke-width="2" fill="none" />
<polyline points="283.0,141.0,291.0,140.5" stroke="black" stroke-width="2" fill="none" />
<polyline points="298.5,131.5,290.0,132.5,281.5,133.5" stroke="black" stroke-width="2" fill="none" />
<polyline points="273.0,125.5,265.0,126.0" stroke="black" stroke-width="2" fill="none" />
<polyline points="267.0,134.5,259.0,134.5" stroke="black" stroke-width="2" fill="none" />
<polyline points="259.0,141.5,251.0,142.5" stroke="black" stroke-width="2" fill="none" />
<polyline points="251.5,149.5,243.5,150.0" stroke="black" stroke-width="2" fill="none" />
<polyline points="243.0,155.0,235.5,162.5,228.0,170.0,220.5,177.5,212.5,185.5,205.0,193.5" stroke="black" stroke-width="2" fill="none" />
<polyline points="195.5,189.5,203.5,188.5,212.0,188.5,219.5,188.0,227.0,187.5" stroke="black" stroke-width="2" fill="none" />
<polyline points="223.5,186.0,231.5,174.0,239.5,165.5,247.5,155.5,255.5,147.5,263.5,139.0,271.0,131.0,278.5,123.0,286.5,115.0,294.0,104.5,302.0,94.5,310.0,79.5" stroke="black" stroke-width="2" fill="none" />
<polyline points="309.0,74.5,317.0,74.5" stroke="black" stroke-width="2" fill="none" />
<polyline points="315.0,69.5,307.0,69.5" stroke="black" stroke-width="2" fill="none" />
<polyline points="306.5,63.5,314.5,63.0" stroke="black" stroke-width="2" fill="none" />
<polyline points="309.0,49.5,300.5,50.5,292.0,52.0,283.5,52.5,275.0,53.0,266.5,53.5,258.0,54.0,250.5,54.5,242.5,55.5" stroke="black" stroke-width="2" fill="none" />
<polyline points="243.5,59.5,235.0,60.5,226.5,61.5,219.0,62.0" stroke="black" stroke-width="2" fill="none" />
<polyline points="219.0,67.5,210.5,75.0" stroke="black" stroke-width="2" fill="none" />
<polyline points="211.5,73.5,219.5,73.0" stroke="black" stroke-width="2" fill="none" />
<polyline points="217.5,76.0,209.5,83.0,201.5,90.5,194.0,97.5,186.0,104.5" stroke="black" stroke-width="2" fill="none" />
<polyline points="186.5,102.0,195.0,101.0,203.5,100.0,212.0,99.5" stroke="black" stroke-width="2" fill="none" />
<polyline points="213.0,92.0,204.5,100.0,196.5,108.0" stroke="black" stroke-width="2" fill="none" />
<polyline points="203.0,108.0,195.0,109.0,187.0,110.0,179.5,110.5" stroke="black" stroke-width="2" fill="none" />
<polyline points="187.5,125.0,195.0,124.5" stroke="black" stroke-width="2" fill="none" />
<polyline points="195.0,117.0,203.0,117.0" stroke="black" stroke-width="2" fill="none" />
<polyline points="199.0,101.0,194.5,109.0,191.0,117.0,188.0,125.5,185.5,133.5,183.0,141.5,179.5,149.0,170.0,156.5,175.0,164.0,178.5,171.5,180.5,179.5,184.5,191.5,187.0,196.0" stroke="black" stroke-width="2" fill="none" />
<polyline points="186.5,198.0,194.5,197.5,203.0,196.5" stroke="black" stroke-width="2" fill="none" />
<polyline points="208.5,206.0,216.5,205.0" stroke="black" stroke-width="2" fill="none" />
<polyline points="221.0,220.0,214.0,220.5,206.0,220.5" stroke="black" stroke-width="2" fill="none" />
<polyline points="205.0,227.0,213.5,227.0,221.0,226.5" stroke="black" stroke-width="2" fill="none" />
<polyline points="218.5,231.0,211.0,231.0" stroke="black" stroke-width="2" fill="none" />
<polyline points="209.5,239.0,217.5,247.0,225.5,249.0,234.0,244.0,242.0,236.5,250.0,226.5,258.5,214.5,266.5,200.0,265.5,203.0,261.5,211.0,256.5,219.5,251.0,227.0,245.0,235.0,236.5,243.0" stroke="black" stroke-width="2" fill="none" />
<polyline points="216.5,247.0,210.5,239.5" stroke="black" stroke-width="2" fill="none" />
<polyline points="179.5,220.0,171.5,227.5" stroke="black" stroke-width="2" fill="none" />
<polyline points="172.5,227.5,180.0,227.0,187.5,226.5" stroke="black" stroke-width="2" fill="none" />
<polyline points="185.5,235.5,177.0,236.0,168.5,236.5" stroke="black" stroke-width="2" fill="none" />
<polyline points="171.0,243.0,163.0,251.0" stroke="black" stroke-width="2" fill="none" />
<polyline points="166.0,244.5,173.5,244.5,181.0,244.5" stroke="black" stroke-width="2" fill="none" />
<polyline points="183.5,234.0,175.5,225.5" stroke="black" stroke-width="2" fill="none" />
<polyline points="173.5,220.5,181.5,212.5,190.0,206.0,198.0,200.0,206.5,194.5,210.5,190.5,201.5,199.0,191.0,207.0,182.0,215.0,175.0,222.5,179.0,230.5,186.0,238.5,180.0,246.5,167.0,254.5,153.0,262.5,139.0,270.5,124.5,278.5,110.5,286.5,97.5,295.0,82.0,303.0,76.0,299.0,84.0,291.0,92.0,285.0,100.0,277.0,107.5,271.0,115.5,265.0,123.5,257.0,131.5,251.5,139.5,243.5,147.0,237.5,139.5,243.5,131.5,251.5,121.5,259.0,111.5,266.5,102.5,274.5,94.0,282.5,84.0,290.5,76.0,298.5,72.0,305.5,80.5,303.5,88.5,300.5,96.0,295.5,104.5,290.5,112.5,285.5,120.0,282.0,128.0,277.0,136.5,273.0,144.5,268.0,153.0,263.5,161.5,257.5,169.5,253.5,177.5,249.0,185.5,245.5" stroke="black" stroke-width="2" fill="none" />
<polyline points="174.5,239.0,166.5,246.0,159.0,251.0,151.0,256.0,143.0,260.5,135.0,265.5,127.0,270.5,119.0,274.5,110.5,279.5,114.5,277.0,127.5,269.5,140.5,261.5,154.5,253.5,168.0,246.0,176.0,237.5,171.5,229.5" stroke="black" stroke-width="2" fill="none" />
<polyline points="170.5,228.5,162.5,232.0,154.5,238.5,146.0,245.5,137.5,252.0,129.5,259.0,121.5,265.5,113.5,273.5,106.0,279.0,109.0,276.5,120.5,269.0,130.0,260.5,140.0,252.0,148.0,244.0,158.5,236.0,167.5,228.0" stroke="black" stroke-width="2" fill="none" />
<polyline points="155.5,227.0,147.5,234.5" stroke="black" stroke-width="2" fill="none" />
<polyline points="140.5,232.0,148.5,224.5,156.5,217.5" stroke="black" stroke-width="2" fill="none" />
<polyline points="159.5,218.0,167.5,218.0,175.5,209.5" stroke="black" stroke-width="2" fill="none" />
<polyline points="180.5,206.5,188.5,206.0,197.0,206.0" stroke="black" stroke-width="2" fill="none" />
<polyline points="181.0,211.5,172.5,219.0,164.5,226.0,156.0,233.0" stroke="black" stroke-width="2" fill="none" />
<polyline points="154.5,224.5,146.5,225.0" stroke="black" stroke-width="2" fill="none" />
<polyline points="140.0,227.0,132.0,234.5" stroke="black" stroke-width="2" fill="none" />
<polyline points="131.0,232.5,139.0,231.5,147.0,230.5,155.0,229.5,163.0,228.0" stroke="black" stroke-width="2" fill="none" />
<polyline points="165.0,211.0,172.5,211.0,180.5,210.5" stroke="black" stroke-width="2" fill="none" />
<polyline points="187.0,182.0,195.0,181.5" stroke="black" stroke-width="2" fill="none" />
<polyline points="205.0,182.5,213.0,181.5,221.0,181.5,228.5,181.5" stroke="black" stroke-width="2" fill="none" />
<polyline points="227.5,171.0,235.5,170.0" stroke="black" stroke-width="2" fill="none" />
<polyline points="236.5,160.5,228.5,161.5" stroke="black" stroke-width="2" fill="none" />
<polyline points="228.0,156.0,236.0,156.0,244.0,155.5" stroke="black" stroke-width="2" fill="none" />
<polyline points="237.5,155.0,229.0,162.0,221.0,170.0" stroke="black" stroke-width="2" fill="none" />
<polyline points="219.0,166.5,227.5,166.0,235.5,166.0" stroke="black" stroke-width="2" fill="none" />
<polyline points="235.5,171.5,227.0,171.5,219.0,171.5,211.0,172.0" stroke="black" stroke-width="2" fill="none" />
<polyline points="187.5,166.0,179.5,173.0" stroke="black" stroke-width="2" fill="none" />
<polyline points="180.5,176.0,189.0,175.0,197.0,174.5" stroke="black" stroke-width="2" fill="none" />
<polyline points="187.5,166.5,179.5,167.5" stroke="black" stroke-width="2" fill="none" />
<polyline points="181.0,163.5,189.0,156.0" stroke="black" stroke-width="2" fill="none" />
<polyline points="188.0,155.5,180.5,155.5,172.5,156.0" stroke="black" stroke-width="2" fill="none" />
<polyline points="169.5,156.0,177.5,150.0,186.0,129.0,194.5,110.5,205.0,102.5,213.0,87.5" stroke="black" stroke-width="2" fill="none" />
<polyline points="212.5,90.0,204.5,90.0" stroke="black" stroke-width="2" fill="none" />
<polyline points="203.0,85.5,211.5,85.0,220.5,85.0" stroke="black" stroke-width="2" fill="none" />
<polyline points="219.5,77.5,211.5,77.5" stroke="black" stroke-width="2" fill="none" />
<polyline points="209.5,74.5,201.0,84.5,193.0,93.0,185.0,102.0,180.0,117.0,181.0,109.0,187.0,100.5,194.5,93.0,202.0,85.0,209.5,76.5,209.0,70.5,201.0,73.5,193.0,77.5,185.0,81.0,176.5,85.0,169.0,89.0,161.0,93.0,153.0,98.0,145.0,102.5,136.5,108.0,128.5,114.0,120.5,120.0,112.5,126.0,104.5,132.5,96.5,140.0,88.5,148.5,80.5,158.5,72.5,168.5,64.5,184.5" stroke="black" stroke-width="2" fill="none" />
<polyline points="61.0,184.0,68.5,183.5" stroke="black" stroke-width="2" fill="none" />
<polyline points="69.5,180.0,61.0,188.0" stroke="black" stroke-width="2" fill="none" />
<polyline points="57.5,191.0,65.5,190.5" stroke="black" stroke-width="2" fill="none" />
<polyline points="70.0,196.5,61.5,197.0,53.5,197.5" stroke="black" stroke-width="2" fill="none" />
<polyline points="53.0,197.5,61.0,178.5,69.0,164.0,76.5,153.0,84.0,143.0,92.0,136.0,100.0,129.0,108.0,121.0,116.0,116.0,124.5,109.0,132.5,104.5,140.5,99.0,148.5,95.0,157.0,90.0,165.5,84.5,174.0,80.5,182.0,76.5,189.5,72.5,198.0,69.5,206.5,66.5,214.5,63.0,222.0,60.5,229.5,57.5,237.0,55.0,245.0,52.5,253.0,50.5,260.5,50.5,268.0,50.5,276.0,50.5,284.0,50.5,292.0,50.5,300.0,53.0,308.0,59.0" stroke="black" stroke-width="2" fill="none" />
<polyline points="300.0,58.5,292.0,56.0,283.5,56.0,275.0,56.0,267.5,55.0,259.5,57.0,251.5,59.0,243.0,61.0,235.0,63.5,227.0,65.5,219.0,68.5" stroke="black" stroke-width="2" fill="none" />
<polyline points="228.0,67.5,220.0,67.5,212.0,67.5,204.0,68.5,196.0,68.5" stroke="black" stroke-width="2" fill="none" />
<polyline points="196.0,76.5,188.0,77.5,179.5,78.0" stroke="black" stroke-width="2" fill="none" />
<polyline points="178.5,82.5,171.0,82.5,163.5,83.5" stroke="black" stroke-width="2" fill="none" />
<polyline points="164.0,92.5,155.5,93.5,147.5,93.5" stroke="black" stroke-width="2" fill="none" />
<polyline points="148.0,101.0,140.0,101.5,132.0,102.5" stroke="black" stroke-width="2" fill="none" />
<polyline points="138.0,109.0,130.0,109.5,121.5,110.0" stroke="black" stroke-width="2" fill="none" />
<polyline points="121.5,116.5,113.5,117.5" stroke="black" stroke-width="2" fill="none" />
<polyline points="115.5,124.0,107.5,131.5" stroke="black" stroke-width="2" fill="none" />
<polyline points="107.0,132.5,98.5,133.0,90.5,134.0" stroke="black" stroke-width="2" fill="none" />
<polyline points="84.0,141.5,92.0,141.0,99.5,140.5" stroke="black" stroke-width="2" fill="none" />
<polyline points="98.5,124.5,106.5,124.0,114.5,123.0" stroke="black" stroke-width="2" fill="none" />
<polyline points="123.5,132.5,115.5,137.0" stroke="black" stroke-width="2" fill="none" />
<polyline points="92.5,149.0,84.5,149.5,77.0,150.0" stroke="black" stroke-width="2" fill="none" />
<polyline points="77.0,158.0,85.0,158.0" stroke="black" stroke-width="2" fill="none" />
<polyline points="84.0,157.0,75.5,164.5,67.0,172.0" stroke="black" stroke-width="2" fill="none" />
<polyline points="62.0,175.0,70.0,174.0,77.5,173.5" stroke="black" stroke-width="2" fill="none" />
<polyline points="74.5,165.0,66.5,165.5" stroke="black" stroke-width="2" fill="none" />
<polyline points="90.5,182.0,98.5,181.5" stroke="black" stroke-width="2" fill="none" />
<polyline points="101.0,181.0,109.0,173.5" stroke="black" stroke-width="2" fill="none" />
<polyline points="106.5,170.5,98.0,171.5" stroke="black" stroke-width="2" fill="none" />
<polyline points="105.5,162.0,100.5,170.0,94.5,178.0,90.5,186.0,86.5,194.0,84.0,202.0,81.0,210.0,79.0,218.0,77.5,226.0,76.5,234.0,74.5,242.5,74.5,250.5,75.0,259.0,67.5,267.0,55.0,275.5,43.0,283.5,31.0,291.5,20.0,299.0,11.0,300.5,9.0,307.5,2.5,313.5,10.5,305.5,19.0,299.5,27.0,294.5,35.5,289.0,43.5,282.5,51.5,277.5,59.0,273.0,67.0,266.5" stroke="black" stroke-width="2" fill="none" />
<polyline points="68.5,261.0,76.0,260.5,83.0,260.0,90.5,259.5" stroke="black" stroke-width="2" fill="none" />
<polyline points="92.0,258.5,99.5,251.5,107.0,244.0,114.5,237.0" stroke="black" stroke-width="2" fill="none" />
<polyline points="115.5,242.0,123.5,234.5" stroke="black" stroke-width="2" fill="none" />
<polyline points="128.5,232.0,141.5,224.0,144.5,216.0,142.5,208.0,140.5,200.0,138.5,192.5,138.5,185.0,139.0,177.0,136.5,169.0,136.5,161.0,139.0,153.0,139.0,150.0" stroke="black" stroke-width="2" fill="none" />
<polyline points="142.0,151.5,143.0,159.5,145.0,168.0,145.0,176.0,147.0,183.5,146.5,191.5,146.5,199.5,148.0,207.5,149.5,215.5,154.0,223.5" stroke="black" stroke-width="2" fill="none" />
<polyline points="155.0,213.5,147.0,213.5" stroke="black" stroke-width="2" fill="none" />
<polyline points="149.5,212.5,157.5,227.5,160.0,219.0,159.0,227.0" stroke="black" stroke-width="2" fill="none" />
<polyline points="156.0,235.0,148.5,235.5,140.0,236.5" stroke="black" stroke-width="2" fill="none" />
<polyline points="147.5,245.5,139.0,246.0,131.0,246.5" stroke="black" stroke-width="2" fill="none" />
<polyline points="126.5,240.5,112.5,248.5,100.5,256.5,91.5,264.0,72.5,272.5,57.5,280.0,46.0,287.5,35.0,295.5,24.0,303.0,14.5,311.0,11.5,313.5,19.5,307.5,27.5,300.5,35.5,295.5,43.0,289.5,51.0,284.5,60.5,279.0,68.5,274.0,77.0,270.0,85.0,266.0,93.0,262.5,101.5,255.5,109.0,250.0,116.5,245.0,124.0,241.0,132.0,238.5,139.5,235.5,147.5,233.5" stroke="black" stroke-width="2" fill="none" />
<polyline points="139.0,220.5,147.0,220.0,155.0,219.5,163.0,219.0,170.5,219.0,179.0,219.0" stroke="black" stroke-width="2" fill="none" />
<polyline points="149.5,188.5,141.5,196.5" stroke="black" stroke-width="2" fill="none" />
<polyline points="140.5,196.0,148.5,196.0" stroke="black" stroke-width="2" fill="none" />
<polyline points="146.5,204.5,138.5,205.0" stroke="black" stroke-width="2" fill="none" />
<polyline points="141.0,190.0,149.0,189.5" stroke="black" stroke-width="2" fill="none" />
<polyline points="141.5,189.0,149.5,181.5" stroke="black" stroke-width="2" fill="none" />
<polyline points="147.0,179.5,138.5,180.0" stroke="black" stroke-width="2" fill="none" />
<polyline points="140.5,172.0,148.5,164.5" stroke="black" stroke-width="2" fill="none" />
<polyline points="145.5,171.0,138.0,171.5" stroke="black" stroke-width="2" fill="none" />
<polyline points="139.0,165.5,147.0,165.0" stroke="black" stroke-width="2" fill="none" />
<polyline points="146.0,157.5,137.5,158.0" stroke="black" stroke-width="2" fill="none" />
<polyline points="123.5,172.5,115.0,180.0" stroke="black" stroke-width="2" fill="none" />
<polyline points="113.0,180.0,121.0,180.0" stroke="black" stroke-width="2" fill="none" />
<polyline points="123.5,179.5,116.0,187.0" stroke="black" stroke-width="2" fill="none" />
<polyline points="114.5,190.0,122.5,189.0" stroke="black" stroke-width="2" fill="none" />
<polyline points="124.0,196.5,116.0,203.5" stroke="black" stroke-width="2" fill="none" />
<polyline points="115.0,205.0,123.0,205.0" stroke="black" stroke-width="2" fill="none" />
<polyline points="123.5,196.0,115.0,196.5" stroke="black" stroke-width="2" fill="none" />
<polyline points="98.5,189.5,90.5,190.0" stroke="black" stroke-width="2" fill="none" />
<polyline points="91.5,195.0,99.5,181.0,107.5,173.0,109.0,172.0,101.0,180.5,96.5,188.5,92.5,196.5,89.5,204.5,86.5,212.0,84.5,219.5,83.0,227.5,81.0,235.5,80.5,244.0,80.5,252.5,84.5,257.0,92.5,252.5,100.5,246.5,108.0,238.5,116.0,239.0,124.0,235.0,132.0,231.0,140.0,226.5" stroke="black" stroke-width="2" fill="none" />
<polyline points="147.0,251.0,155.0,251.0,163.0,251.0" stroke="black" stroke-width="2" fill="none" />
<polyline points="148.5,258.0,141.0,266.0" stroke="black" stroke-width="2" fill="none" />
<polyline points="131.0,265.5,123.0,272.5" stroke="black" stroke-width="2" fill="none" />
<polyline points="114.0,276.5,106.5,283.5" stroke="black" stroke-width="2" fill="none" />
<polyline points="109.5,280.0,102.0,280.0" stroke="black" stroke-width="2" fill="none" />
<polyline points="100.0,275.5,108.0,275.5,116.0,275.0,124.0,274.5" stroke="black" stroke-width="2" fill="none" />
<polyline points="114.0,267.5,106.5,275.0,99.0,282.5,91.5,290.0,83.5,298.0" stroke="black" stroke-width="2" fill="none" />
<polyline points="91.0,291.5,83.0,292.0,75.0,292.0" stroke="black" stroke-width="2" fill="none" />
<polyline points="84.5,287.5,93.0,287.0,100.5,285.5,108.0,284.5" stroke="black" stroke-width="2" fill="none" />
<polyline points="107.0,271.0,114.5,270.5,122.0,269.0,130.0,268.0,138.0,267.5" stroke="black" stroke-width="2" fill="none" />
<polyline points="140.0,253.5,132.0,254.5,124.0,255.0" stroke="black" stroke-width="2" fill="none" />
<polyline points="112.5,261.0,121.0,261.0,129.0,260.5,137.5,259.5,146.0,258.5" stroke="black" stroke-width="2" fill="none" />
<polyline points="131.0,236.0,123.5,236.5,116.0,237.5,108.5,238.0" stroke="black" stroke-width="2" fill="none" />
<polyline points="109.5,239.0,101.5,247.0,90.0,255.0" stroke="black" stroke-width="2" fill="none" />
<polyline points="90.0,257.5,98.0,257.0" stroke="black" stroke-width="2" fill="none" />
<polyline points="85.0,260.0,77.0,267.5" stroke="black" stroke-width="2" fill="none" />
<polyline points="76.0,260.0,83.5,252.5" stroke="black" stroke-width="2" fill="none" />
<polyline points="74.5,251.0,83.0,251.0,91.0,251.0,99.5,251.0,107.5,250.5" stroke="black" stroke-width="2" fill="none" />
<polyline points="115.0,242.5,106.5,243.0,98.5,243.5" stroke="black" stroke-width="2" fill="none" />
<polyline points="83.5,236.5,76.0,244.5" stroke="black" stroke-width="2" fill="none" />
<polyline points="74.5,244.0,82.5,243.5" stroke="black" stroke-width="2" fill="none" />
<polyline points="82.5,237.0,74.5,237.5" stroke="black" stroke-width="2" fill="none" />
<polyline points="75.0,236.0,82.5,228.0" stroke="black" stroke-width="2" fill="none" />
<polyline points="82.0,231.0,73.5,232.0" stroke="black" stroke-width="2" fill="none" />
<polyline points="74.5,224.0,82.5,223.0" stroke="black" stroke-width="2" fill="none" />
<polyline points="75.0,222.0,83.5,197.5,92.0,181.5,100.5,169.5,108.0,165.5,116.0,165.5" stroke="black" stroke-width="2" fill="none" />
<polyline points="114.5,168.0,122.5,176.0,123.5,184.0,122.5,192.0,121.0,200.0,119.0,208.0,115.5,216.0" stroke="black" stroke-width="2" fill="none" />
<polyline points="93.5,206.5,86.0,207.0" stroke="black" stroke-width="2" fill="none" />
<polyline points="85.5,198.0,93.0,198.0" stroke="black" stroke-width="2" fill="none" />
<polyline points="92.5,213.5,84.5,214.5,76.5,215.0" stroke="black" stroke-width="2" fill="none" />
<polyline points="60.0,204.5,52.0,211.5" stroke="black" stroke-width="2" fill="none" />
<polyline points="53.0,213.0,60.5,212.5" stroke="black" stroke-width="2" fill="none" />
<polyline points="60.0,205.0,52.0,205.5" stroke="black" stroke-width="2" fill="none" />
<polyline points="57.5,271.0,65.5,270.5,73.5,269.5" stroke="black" stroke-width="2" fill="none" />
<polyline points="91.0,288.5,99.0,288.0" stroke="black" stroke-width="2" fill="none" />
<polyline points="61.5,278.5,54.0,279.5,46.0,280.5" stroke="black" stroke-width="2" fill="none" />
<polyline points="52.5,284.5,44.5,284.5,37.0,285.5" stroke="black" stroke-width="2" fill="none" />
<polyline points="36.5,291.5,29.0,291.5,22.0,291.5" stroke="black" stroke-width="2" fill="none" />
<polyline points="25.0,288.0,33.0,286.0" stroke="black" stroke-width="2" fill="none" />
<polyline points="27.0,299.5,19.0,299.5,10.0,299.5" stroke="black" stroke-width="2" fill="none" />
<polyline points="12.5,297.5,4.5,296.5" stroke="black" stroke-width="2" fill="none" />
<polyline points="1.5,308.5,10.0,308.0,18.0,308.0" stroke="black" stroke-width="2" fill="none" />
<polyline points="12.5,309.0,4.5,316.5" stroke="black" stroke-width="2" fill="none" />
<polyline points="56.0,227.5,50.0,223.0,52.5,214.5,51.5,206.5,54.0,199.0,57.0,191.0,61.0,183.0,64.0,175.5,68.0,168.0,74.0,160.5,80.0,152.5,85.5,144.5,95.0,136.5,104.5,128.0,114.5,120.0,124.5,111.5,136.0,103.5,149.0,95.0,161.5,86.5,176.0,78.5,184.0,70.5,178.0,68.5" stroke="black" stroke-width="2" fill="none" />
<polyline points="204.0,74.0,187.5,82.0,171.5,89.5,158.0,97.5,144.0,105.0,131.5,113.0,119.0,121.0,109.5,129.0,100.0,137.0,92.0,145.0,83.5,153.0,77.5,161.0,72.0,169.0,68.5,177.5,65.0,185.5,63.0,193.5,61.0,202.0,59.5,210.0,59.5,217.5,56.0,222.5" stroke="black" stroke-width="2" fill="none" />
<polyline points="110.5,214.5,112.5,206.5,113.0,198.5,115.0,191.0,114.5,183.5,112.5,175.5" stroke="black" stroke-width="2" fill="none" />
<polyline points="114.0,173.5,121.5,173.0" stroke="black" stroke-width="2" fill="none" />
<polyline points="124.5,164.0,117.0,165.0,109.0,165.5" stroke="black" stroke-width="2" fill="none" />
<polyline points="171.0,161.0,179.0,170.0,187.0,186.0" stroke="black" stroke-width="2" fill="none" />
<polyline points="187.0,162.0,179.0,162.0" stroke="black" stroke-width="2" fill="none" />
<polyline points="181.5,156.5,189.0,148.5,196.5,141.0" stroke="black" stroke-width="2" fill="none" />
<polyline points="202.5,140.0,194.0,141.0,186.0,141.5" stroke="black" stroke-width="2" fill="none" />
<polyline points="186.0,132.0,193.5,132.0" stroke="black" stroke-width="2" fill="none" />
<polyline points="195.0,149.5,187.0,150.0,179.0,150.5" stroke="black" stroke-width="2" fill="none" />
<polyline points="187.5,155.0,196.0,148.0,202.0,143.5,191.0,151.5,188.0,159.5,188.0,167.5,188.5,175.5,192.5,183.5,196.5,184.5" stroke="black" stroke-width="2" fill="none" />
<polyline points="228.0,149.0,236.0,148.5" stroke="black" stroke-width="2" fill="none" />
<polyline points="233.0,149.5,233.0,157.5" stroke="black" stroke-width="2" fill="none" />
<polyline points="243.0,148.0,240.0,147.5,227.5,149.5,219.5,166.5,211.5,178.0,203.5,186.0,195.5,194.0,187.0,201.0,179.0,208.0,170.0,215.0,180.0,207.0,190.0,199.0,198.5,191.0,207.0,183.5,215.0,175.5,219.0,167.0,223.5,159.5,227.5,151.5,224.5,145.5" stroke="black" stroke-width="2" fill="none" />
<polyline points="194.5,105.0,186.5,115.5,185.5,116.5,192.0,108.5,199.0,100.5" stroke="black" stroke-width="2" fill="none" />
<polyline points="196.0,93.5,203.5,92.5,212.0,91.5" stroke="black" stroke-width="2" fill="none" />
<polyline points="231.5,57.0,220.5,69.0,218.5,77.0,215.0,84.5,210.0,93.0,206.0,100.5,202.0,109.0,198.0,117.5,196.5,125.5,193.5,133.5,190.5,141.5,196.5,140.5" stroke="black" stroke-width="2" fill="none" />
<polyline points="273.5,116.5,282.0,116.0" stroke="black" stroke-width="2" fill="none" />
<polyline points="283.0,115.0,291.5,107.0,300.0,99.5" stroke="black" stroke-width="2" fill="none" />
<polyline points="300.0,95.0,308.0,94.0" stroke="black" stroke-width="2" fill="none" />
<polyline points="307.5,85.0,300.0,85.5" stroke="black" stroke-width="2" fill="none" />
<polyline points="299.5,102.0,291.0,102.5" stroke="black" stroke-width="2" fill="none" />
<polyline points="290.5,107.0,283.0,108.0" stroke="black" stroke-width="2" fill="none" />
<polyline points="292.0,122.0,283.0,130.0,281.0,130.5,288.5,124.5" stroke="black" stroke-width="2" fill="none" />
<polyline points="306.5,77.0,298.5,90.5,290.0,101.5,282.0,110.5,274.0,120.0,265.5,130.0,257.5,138.0,249.0,146.0,241.0,152.0,233.0,160.0,239.5,154.5,248.5,147.0,257.5,139.0,265.5,131.0,271.5,122.5,279.5,114.0,286.0,106.0,292.0,98.0,298.0,90.0,304.5,82.0,309.0,74.0,308.0,65.5,298.0,57.5" stroke="black" stroke-width="2" fill="none" />
<polyline points="300.5,52.0,310.5,60.0,313.5,68.0,313.5,76.0,310.0,83.5,304.5,91.5,299.5,99.5,293.0,108.0,287.0,116.0,279.0,124.0,271.0,132.0,263.0,140.0,254.5,148.0,246.5,156.0,241.0,164.0,232.5,172.0,226.5,179.5,223.5,187.0,219.5,195.0,219.5,203.0,217.5,211.0,217.5,219.0,217.0,227.0,217.0,235.0,219.0,237.5,227.0,241.5,235.0,235.5,243.0,227.0,251.0,215.0,259.0,201.5,267.0,184.5" stroke="black" stroke-width="2" fill="none" />
</svg>