<svg xmlns="http://www.w3.org/2000/svg" version="1.1"><polyline points="503.5,0.5,495.5,8.5,487.5,17.0,481.5,25.0,475.0,33.0,469.0,41.0,463.0,49.0,458.0,57.5,452.5,65.5,447.0,74.0,442.5,82.0,438.0,90.5,434.0,98.5,429.5,106.5,426.0,114.5,422.5,122.0,417.5,130.0,413.5,137.5,408.5,145.0,402.0,152.5,396.0,160.5,393.0,164.5,401.5,155.0,409.5,142.5,417.5,129.5,425.5,115.5,434.0,99.5,442.0,86.0,450.5,72.0,458.5,59.5,466.5,48.0,474.5,38.0,482.5,28.0,490.0,17.5,498.0,9.5" stroke="black" stroke-width="2" fill="none" />
<polyline points="498.5,7.0,506.5,6.0" stroke="black" stroke-width="2" fill="none" />
<polyline points="505.5,9.0,497.0,17.0,489.0,27.0,481.0,35.0,473.0,46.5,465.0,58.5,457.0,72.0,449.0,85.0,441.0,99.5,433.0,114.0,425.5,130.0,417.5,145.0,409.5,156.5,401.5,168.5,393.5,175.0,385.0,174.5,382.5,171.0,382.5,163.0,382.5,155.0,384.5,147.0,385.5,139.0,387.5,131.0,389.5,123.0,392.0,115.0,394.0,107.0,397.0,99.5,400.0,91.5,402.0,84.0,406.0,76.0,409.0,68.0,413.0,60.0,417.0,52.0,421.0,43.5,427.0,36.0,438.0,31.0,430.0,32.0,422.0,43.5,414.0,57.5,406.5,74.5" stroke="black" stroke-width="2" fill="none" />
<polyline points="410.5,79.0,402.5,80.0" stroke="black" stroke-width="2" fill="none" />
<polyline points="401.5,85.0,409.5,84.5" stroke="black" stroke-width="2" fill="none" />
<polyline points="412.5,70.5,420.5,70.0" stroke="black" stroke-width="2" fill="none" />
<polyline points="409.5,66.0,417.5,58.5" stroke="black" stroke-width="2" fill="none" />
<polyline points="419.0,55.0,426.5,54.5" stroke="black" stroke-width="2" fill="none" />
<polyline points="428.0,44.0,435.5,36.0" stroke="black" stroke-width="2" fill="none" />
<polyline points="434.5,38.0,426.5,39.0" stroke="black" stroke-width="2" fill="none" />
<polyline points="419.5,44.5,427.5,44.0,435.5,44.0" stroke="black" stroke-width="2" fill="none" />
<polyline points="433.0,42.0,425.0,53.0,417.0,69.0,408.5,87.5,401.0,108.5" stroke="black" stroke-width="2" fill="none" />
<polyline points="404.0,110.0,396.0,110.5" stroke="black" stroke-width="2" fill="none" />
<polyline points="395.5,118.5,403.5,118.0" stroke="black" stroke-width="2" fill="none" />
<polyline points="404.5,101.0,396.5,101.5" stroke="black" stroke-width="2" fill="none" />
<polyline points="395.0,93.5,403.5,93.0,412.0,92.0" stroke="black" stroke-width="2" fill="none" />
<polyline points="433.0,92.5,441.5,92.5" stroke="black" stroke-width="2" fill="none" />
<polyline points="446.0,84.5,453.5,84.5" stroke="black" stroke-width="2" fill="none" />
<polyline points="452.0,86.0,454.0,88.5" stroke="black" stroke-width="2" fill="none" />
<polyline points="453.0,75.5,461.0,68.0" stroke="black" stroke-width="2" fill="none" />
<polyline points="460.0,68.0,452.0,68.5" stroke="black" stroke-width="2" fill="none" />
<polyline points="458.0,59.5,466.0,59.0" stroke="black" stroke-width="2" fill="none" />
<polyline points="467.0,52.0,458.5,53.0" stroke="black" stroke-width="2" fill="none" />
<polyline points="466.5,44.5,474.5,45.0" stroke="black" stroke-width="2" fill="none" />
<polyline points="475.0,37.5,483.0,37.5" stroke="black" stroke-width="2" fill="none" />
<polyline points="475.0,31.0,483.0,30.5,490.5,30.0" stroke="black" stroke-width="2" fill="none" />
<polyline points="484.5,21.0,493.0,20.5,501.5,19.5" stroke="black" stroke-width="2" fill="none" />
<polyline points="500.5,18.5,498.5,24.0,499.0,21.0,502.0,24.0" stroke="black" stroke-width="2" fill="none" />
<polyline points="506.0,13.5,497.5,14.0,489.5,14.5" stroke="black" stroke-width="2" fill="none" />
<polyline points="509.0,1.0,504.0,9.5,496.5,17.5,490.5,26.0,482.5,34.5,476.5,42.5,469.5,50.5,465.5,58.5,461.5,66.0,455.0,74.0,451.0,82.0,446.0,90.0,442.0,98.5,437.5,106.5,433.0,114.0,429.5,122.0,425.5,130.0,420.5,138.0,415.5,146.0,411.5,153.5,405.5,161.5,399.5,169.5,388.5,181.5,390.0,181.5" stroke="black" stroke-width="2" fill="none" />
<polyline points="388.0,173.0,395.5,172.5" stroke="black" stroke-width="2" fill="none" />
<polyline points="396.0,171.5,404.0,163.5" stroke="black" stroke-width="2" fill="none" />
<polyline points="396.5,164.0,388.5,172.0" stroke="black" stroke-width="2" fill="none" />
<polyline points="386.0,165.5,394.5,165.5,403.0,165.5" stroke="black" stroke-width="2" fill="none" />
<polyline points="403.5,149.5,411.5,148.5,419.0,148.5" stroke="black" stroke-width="2" fill="none" />
<polyline points="418.0,140.0,410.0,147.5" stroke="black" stroke-width="2" fill="none" />
<polyline points="412.5,141.0,420.5,140.0" stroke="black" stroke-width="2" fill="none" />
<polyline points="421.0,132.5,429.0,125.0" stroke="black" stroke-width="2" fill="none" />
<polyline points="426.0,117.0,434.5,116.5" stroke="black" stroke-width="2" fill="none" />
<polyline points="433.5,108.5,425.5,109.0" stroke="black" stroke-width="2" fill="none" />
<polyline points="435.0,99.5,443.5,99.5" stroke="black" stroke-width="2" fill="none" />
<polyline points="444.0,77.5,452.0,76.5,459.5,75.5" stroke="black" stroke-width="2" fill="none" />
<polyline points="476.5,79.0,484.0,78.0,492.0,77.0" stroke="black" stroke-width="2" fill="none" />
<polyline points="484.5,74.0,493.0,66.5" stroke="black" stroke-width="2" fill="none" />
<polyline points="490.0,69.5,482.0,70.5" stroke="black" stroke-width="2" fill="none" />
<polyline points="479.5,73.5,487.5,59.5,495.5,57.0,486.5,61.0,481.5,69.0,478.0,77.0,475.0,84.5,470.5,92.0,468.5,100.0,470.5,108.5,474.5,110.0,482.5,110.5,490.5,108.5,499.0,103.0,506.5,91.0,512.0,73.5,511.0,81.5,507.5,89.0,502.5,96.5,496.0,104.5" stroke="black" stroke-width="2" fill="none" />
<polyline points="492.5,106.5,500.0,99.0,508.0,91.5" stroke="black" stroke-width="2" fill="none" />
<polyline points="508.5,90.5,500.5,91.0" stroke="black" stroke-width="2" fill="none" />
<polyline points="498.5,84.5,506.5,84.0,515.0,83.5" stroke="black" stroke-width="2" fill="none" />
<polyline points="515.5,77.0,507.5,77.5" stroke="black" stroke-width="2" fill="none" />
<polyline points="507.0,69.0,515.0,68.5" stroke="black" stroke-width="2" fill="none" />
<polyline points="514.5,62.5,506.5,63.0" stroke="black" stroke-width="2" fill="none" />
<polyline points="500.0,60.5,492.0,61.5,484.5,62.0" stroke="black" stroke-width="2" fill="none" />
<polyline points="499.0,59.0,505.0,56.0,508.0,64.0,508.0,72.0,506.0,80.5,501.0,88.5,496.0,96.5,482.0,105.0,484.5,103.5,492.5,99.0,500.0,88.0" stroke="black" stroke-width="2" fill="none" />
<polyline points="485.0,85.0,476.5,92.5" stroke="black" stroke-width="2" fill="none" />
<polyline points="475.5,93.5,483.5,93.5" stroke="black" stroke-width="2" fill="none" />
<polyline points="484.0,85.5,476.0,86.5" stroke="black" stroke-width="2" fill="none" />
<polyline points="480.5,85.0,488.5,70.0,494.5,59.5,490.5,67.5,486.5,75.5,482.5,83.5,478.5,91.0,476.5,99.0" stroke="black" stroke-width="2" fill="none" />
<polyline points="476.5,109.0,484.0,109.0,492.0,108.5" stroke="black" stroke-width="2" fill="none" />
<polyline points="499.0,99.5,491.0,100.5,482.5,101.5,475.0,102.5,466.5,103.0" stroke="black" stroke-width="2" fill="none" />
<polyline points="427.0,126.5,419.0,127.0" stroke="black" stroke-width="2" fill="none" />
<polyline points="413.5,133.0,420.5,132.0,428.0,131.5" stroke="black" stroke-width="2" fill="none" />
<polyline points="397.0,139.0,389.0,147.0" stroke="black" stroke-width="2" fill="none" />
<polyline points="386.0,148.5,394.0,148.5" stroke="black" stroke-width="2" fill="none" />
<polyline points="394.5,141.5,386.5,141.5" stroke="black" stroke-width="2" fill="none" />
<polyline points="386.0,134.0,394.0,133.5" stroke="black" stroke-width="2" fill="none" />
<polyline points="394.5,125.0,387.5,125.5" stroke="black" stroke-width="2" fill="none" />
<polyline points="371.0,140.5,362.5,141.0" stroke="black" stroke-width="2" fill="none" />
<polyline points="360.0,141.5,352.0,156.5,344.0,165.5,340.5,175.0,332.5,195.0,324.5,206.5,316.5,214.0,312.5,218.0,321.5,209.5,328.5,201.5,334.0,193.0,337.0,184.5,340.0,176.0,345.0,168.0,350.0,160.0,354.0,152.0,359.0,144.0,363.0,136.0" stroke="black" stroke-width="2" fill="none" />
<polyline points="366.5,137.0,366.5,145.0,363.5,153.5,360.5,161.5,358.5,169.5,355.5,177.5,353.5,185.5,344.5,197.5,350.0,195.0" stroke="black" stroke-width="2" fill="none" />
<polyline points="339.5,187.0,348.0,179.5,356.0,172.0" stroke="black" stroke-width="2" fill="none" />
<polyline points="349.0,170.0,357.5,163.0,365.5,155.0" stroke="black" stroke-width="2" fill="none" />
<polyline points="365.0,146.5,357.0,153.5" stroke="black" stroke-width="2" fill="none" />
<polyline points="354.0,152.5,362.0,151.5,370.5,150.5" stroke="black" stroke-width="2" fill="none" />
<polyline points="378.5,159.5,386.5,158.5,394.0,158.0,402.5,157.5,411.0,157.0" stroke="black" stroke-width="2" fill="none" />
<polyline points="363.5,160.5,356.0,161.5" stroke="black" stroke-width="2" fill="none" />
<polyline points="355.5,157.5,363.0,157.5" stroke="black" stroke-width="2" fill="none" />
<polyline points="363.0,165.5,354.5,166.0,346.0,166.5" stroke="black" stroke-width="2" fill="none" />
<polyline points="354.0,171.5,346.5,173.0,338.0,174.0" stroke="black" stroke-width="2" fill="none" />
<polyline points="339.5,179.5,347.0,179.0,354.5,179.0" stroke="black" stroke-width="2" fill="none" />
<polyline points="355.5,176.5,347.5,177.5" stroke="black" stroke-width="2" fill="none" />
<polyline points="348.0,178.0,345.0,186.0,340.0,193.5,336.0,201.5,330.5,209.5,324.5,217.5,321.5,225.5" stroke="black" stroke-width="2" fill="none" />
<polyline points="315.5,218.0,324.0,210.5,332.0,202.5" stroke="black" stroke-width="2" fill="none" />
<polyline points="332.5,199.0,340.0,198.5" stroke="black" stroke-width="2" fill="none" />
<polyline points="338.5,188.5,346.5,188.0" stroke="black" stroke-width="2" fill="none" />
<polyline points="351.0,187.5,351.0,179.5" stroke="black" stroke-width="2" fill="none" />
<polyline points="330.5,155.5,322.5,163.0" stroke="black" stroke-width="2" fill="none" />
<polyline points="323.5,157.5,331.5,157.5" stroke="black" stroke-width="2" fill="none" />
<polyline points="330.0,148.5,322.0,148.5" stroke="black" stroke-width="2" fill="none" />
<polyline points="325.0,149.0,333.0,133.0,341.0,114.0,349.0,96.0,357.5,80.0,365.5,63.0,373.5,47.0,381.5,30.5,389.5,18.5,387.5,19.0,383.5,27.0,380.0,35.0,375.0,43.0,371.5,51.0,367.0,59.0,362.5,67.0,358.5,75.0,354.5,82.5,350.5,90.5,347.5,98.5,343.5,106.5,341.0,114.5,336.0,123.0,333.5,131.0,329.5,139.0,325.5,147.5,322.5,155.5,319.5,163.5,316.5,171.5,314.0,179.5,311.0,187.0,308.0,195.5,306.0,203.5,304.0,211.5,303.5,219.5,302.5,228.0,305.0,230.0" stroke="black" stroke-width="2" fill="none" />
<polyline points="308.0,220.5,316.0,213.5" stroke="black" stroke-width="2" fill="none" />
<polyline points="307.0,216.0,315.0,215.5,322.5,214.5,330.5,214.0" stroke="black" stroke-width="2" fill="none" />
<polyline points="331.5,206.0,323.5,206.5" stroke="black" stroke-width="2" fill="none" />
<polyline points="314.5,207.0,307.0,207.0" stroke="black" stroke-width="2" fill="none" />
<polyline points="307.5,196.5,315.0,196.5" stroke="black" stroke-width="2" fill="none" />
<polyline points="314.5,193.5,314.5,176.5,326.5,162.5,334.5,143.0,342.5,125.0,350.5,107.5,358.5,90.5,366.5,74.0,375.0,58.0,383.0,42.5,391.5,28.5" stroke="black" stroke-width="2" fill="none" />
<polyline points="387.0,25.0,395.5,17.5" stroke="black" stroke-width="2" fill="none" />
<polyline points="394.0,20.5,386.0,21.5" stroke="black" stroke-width="2" fill="none" />
<polyline points="392.0,18.0,391.0,26.0,387.5,34.0,382.5,42.0,379.0,50.0,375.0,58.5,371.5,66.0,368.0,74.5,364.0,82.5,359.5,90.0,356.0,98.5,353.0,106.0,348.5,114.0,344.5,122.0,341.5,130.0,337.5,138.0,335.5,146.0,331.0,154.0,327.0,162.0,324.0,170.0,321.0,178.0,318.0,186.0,315.5,194.0,314.0,202.0,312.0,210.0,307.5,221.0,315.0,224.0,322.5,219.0,330.5,210.0,338.5,196.0,346.5,183.0" stroke="black" stroke-width="2" fill="none" />
<polyline points="323.5,182.5,315.5,183.5" stroke="black" stroke-width="2" fill="none" />
<polyline points="314.5,175.0,322.5,174.0" stroke="black" stroke-width="2" fill="none" />
<polyline points="315.5,168.5,323.5,168.0,331.5,167.0" stroke="black" stroke-width="2" fill="none" />
<polyline points="332.5,142.0,340.5,141.5" stroke="black" stroke-width="2" fill="none" />
<polyline points="339.5,134.0,331.5,134.5" stroke="black" stroke-width="2" fill="none" />
<polyline points="338.5,126.5,347.0,126.0" stroke="black" stroke-width="2" fill="none" />
<polyline points="339.5,123.5,348.0,116.0" stroke="black" stroke-width="2" fill="none" />
<polyline points="348.0,109.0,356.0,102.0" stroke="black" stroke-width="2" fill="none" />
<polyline points="353.5,100.5,345.5,100.5" stroke="black" stroke-width="2" fill="none" />
<polyline points="347.0,92.0,354.5,91.5,362.5,91.5" stroke="black" stroke-width="2" fill="none" />
<polyline points="363.0,84.0,354.5,91.5" stroke="black" stroke-width="2" fill="none" />
<polyline points="355.0,85.0,363.0,84.5" stroke="black" stroke-width="2" fill="none" />
<polyline points="364.5,74.5,372.5,67.0" stroke="black" stroke-width="2" fill="none" />
<polyline points="372.5,59.5,380.0,52.5" stroke="black" stroke-width="2" fill="none" />
<polyline points="379.5,51.5,371.5,52.5" stroke="black" stroke-width="2" fill="none" />
<polyline points="370.0,46.0,378.5,46.0,386.5,45.5" stroke="black" stroke-width="2" fill="none" />
<polyline points="381.0,42.5,389.5,35.0" stroke="black" stroke-width="2" fill="none" />
<polyline points="388.0,38.0,380.0,38.5" stroke="black" stroke-width="2" fill="none" />
<polyline points="380.0,28.5,388.0,28.0,396.0,27.5" stroke="black" stroke-width="2" fill="none" />
<polyline points="412.0,61.5,419.5,60.5" stroke="black" stroke-width="2" fill="none" />
<polyline points="435.0,28.5,434.5,36.5,427.5,44.5,423.0,52.5,420.0,60.5,416.5,69.0,412.5,76.5,409.5,84.5,406.5,92.5,403.5,100.5,400.5,108.5,398.5,116.5,395.5,124.5,394.5,132.5,392.5,140.5,391.0,149.0,391.0,157.0,390.0,164.5" stroke="black" stroke-width="2" fill="none" />
<polyline points="347.0,117.5,339.0,118.0" stroke="black" stroke-width="2" fill="none" />
<polyline points="338.5,109.0,346.5,109.0,354.5,108.5" stroke="black" stroke-width="2" fill="none" />
<polyline points="356.0,75.5,364.0,75.5,372.0,75.0" stroke="black" stroke-width="2" fill="none" />
<polyline points="371.0,68.5,363.0,69.0" stroke="black" stroke-width="2" fill="none" />
<polyline points="363.5,61.5,372.0,61.5,380.0,61.0" stroke="black" stroke-width="2" fill="none" />
<polyline points="317.0,78.5,309.0,79.0" stroke="black" stroke-width="2" fill="none" />
<polyline points="310.0,70.0,317.5,69.5" stroke="black" stroke-width="2" fill="none" />
<polyline points="317.0,61.0,309.0,62.0" stroke="black" stroke-width="2" fill="none" />
<polyline points="307.0,51.0,299.0,52.0,291.5,52.5,283.5,52.5,274.5,52.5,266.0,53.0,257.5,53.5,249.5,54.5,241.0,55.5" stroke="black" stroke-width="2" fill="none" />
<polyline points="242.5,60.0,234.5,61.0,226.5,62.0,218.5,62.5" stroke="black" stroke-width="2" fill="none" />
<polyline points="221.0,69.0,213.5,76.0" stroke="black" stroke-width="2" fill="none" />
<polyline points="213.5,77.0,221.5,76.5" stroke="black" stroke-width="2" fill="none" />
<polyline points="222.0,75.5,214.5,83.0,206.0,90.5,198.0,98.5,190.0,106.5" stroke="black" stroke-width="2" fill="none" />
<polyline points="195.5,106.0,203.5,98.0,211.5,90.5" stroke="black" stroke-width="2" fill="none" />
<polyline points="210.0,88.0,202.0,88.0" stroke="black" stroke-width="2" fill="none" />
<polyline points="203.5,85.0,211.5,84.0,219.0,84.0" stroke="black" stroke-width="2" fill="none" />
<polyline points="220.0,74.0,213.0,75.0" stroke="black" stroke-width="2" fill="none" />
<polyline points="219.5,69.5,227.5,66.5,236.0,64.0,244.0,61.5,252.0,59.5,260.0,57.5,268.0,55.0,276.0,56.0,283.5,56.0,291.5,56.0,299.5,59.0" stroke="black" stroke-width="2" fill="none" />
<polyline points="297.0,57.5,307.0,65.5,308.0,74.0,304.0,82.5,298.5,90.5,292.5,98.5,286.5,107.0,280.0,115.0,271.5,123.0,265.5,131.0,257.5,139.0,248.5,147.0,239.5,155.5,233.5,161.5,242.0,153.5,250.5,147.5,258.0,139.5,266.0,131.0,274.0,121.0,282.0,111.0,290.0,102.0,298.0,91.0,306.0,78.0" stroke="black" stroke-width="2" fill="none" />
<polyline points="308.5,84.0,299.5,84.0" stroke="black" stroke-width="2" fill="none" />
<polyline points="301.0,94.0,309.5,93.5" stroke="black" stroke-width="2" fill="none" />
<polyline points="298.5,100.0,291.0,108.0,283.0,116.0" stroke="black" stroke-width="2" fill="none" />
<polyline points="284.5,109.5,292.5,109.0" stroke="black" stroke-width="2" fill="none" />
<polyline points="292.0,100.5,300.0,100.0" stroke="black" stroke-width="2" fill="none" />
<polyline points="293.0,120.0,284.0,128.5,282.0,129.5,290.5,123.5" stroke="black" stroke-width="2" fill="none" />
<polyline points="284.0,132.5,291.5,131.5,300.0,131.0" stroke="black" stroke-width="2" fill="none" />
<polyline points="291.0,140.5,283.0,147.5" stroke="black" stroke-width="2" fill="none" />
<polyline points="283.0,147.0,291.0,146.5" stroke="black" stroke-width="2" fill="none" />
<polyline points="293.5,149.5,285.0,156.5" stroke="black" stroke-width="2" fill="none" />
<polyline points="286.0,154.5,294.0,137.5,295.5,135.5,291.5,143.5,287.5,151.5,284.5,159.5,282.5,168.0,281.0,176.0,279.5,183.5,278.0,192.0,276.0,200.0,276.0,208.0,277.5,216.0,279.5,220.0,281.0,216.0" stroke="black" stroke-width="2" fill="none" />
<polyline points="277.0,212.5,285.0,212.0" stroke="black" stroke-width="2" fill="none" />
<polyline points="290.0,220.5,280.0,228.5,287.5,223.5" stroke="black" stroke-width="2" fill="none" />
<polyline points="269.0,203.5,277.0,195.0" stroke="black" stroke-width="2" fill="none" />
<polyline points="276.0,187.5,267.5,195.0" stroke="black" stroke-width="2" fill="none" />
<polyline points="267.0,194.0,275.0,193.5" stroke="black" stroke-width="2" fill="none" />
<polyline points="275.0,195.5,267.0,196.0,259.0,196.5" stroke="black" stroke-width="2" fill="none" />
<polyline points="258.0,204.5,266.0,204.0" stroke="black" stroke-width="2" fill="none" />
<polyline points="270.0,201.5,271.5,209.0,273.5,217.0,265.0,220.0" stroke="black" stroke-width="2" fill="none" />
<polyline points="258.0,208.5,250.0,216.5" stroke="black" stroke-width="2" fill="none" />
<polyline points="251.0,211.5,259.5,211.0" stroke="black" stroke-width="2" fill="none" />
<polyline points="257.5,219.0,249.5,219.5,242.5,220.0" stroke="black" stroke-width="2" fill="none" />
<polyline points="250.0,227.5,242.0,228.0,234.0,228.5" stroke="black" stroke-width="2" fill="none" />
<polyline points="219.5,227.0,211.5,234.0,203.5,242.0" stroke="black" stroke-width="2" fill="none" />
<polyline points="203.5,239.0,211.5,238.5,218.5,237.5,226.5,237.0,235.0,236.0,243.0,235.0" stroke="black" stroke-width="2" fill="none" />
<polyline points="217.0,236.5,209.0,244.0" stroke="black" stroke-width="2" fill="none" />
<polyline points="205.5,244.5,213.0,244.5" stroke="black" stroke-width="2" fill="none" />
<polyline points="210.5,240.5,219.0,248.5,226.5,250.5,234.0,245.0,241.5,237.0,249.5,227.0,257.5,214.5,265.5,199.5,265.0,202.5,261.0,210.5,256.5,218.5,250.5,226.5,245.0,234.5,236.0,242.5" stroke="black" stroke-width="2" fill="none" />
<polyline points="226.5,247.5,219.0,248.5" stroke="black" stroke-width="2" fill="none" />
<polyline points="213.0,252.5,204.5,260.0" stroke="black" stroke-width="2" fill="none" />
<polyline points="206.0,262.5,214.0,262.5" stroke="black" stroke-width="2" fill="none" />
<polyline points="212.5,253.5,204.5,254.0" stroke="black" stroke-width="2" fill="none" />
<polyline points="218.0,247.5,212.5,239.5" stroke="black" stroke-width="2" fill="none" />
<polyline points="210.5,238.5,209.5,246.5,209.0,254.5,208.0,262.5" stroke="black" stroke-width="2" fill="none" />
<polyline points="209.0,233.5,217.5,232.5" stroke="black" stroke-width="2" fill="none" />
<polyline points="211.5,226.0,219.5,218.5" stroke="black" stroke-width="2" fill="none" />
<polyline points="212.5,217.0,221.0,209.5" stroke="black" stroke-width="2" fill="none" />
<polyline points="218.0,202.5,210.5,210.0" stroke="black" stroke-width="2" fill="none" />
<polyline points="210.5,213.0,218.5,212.5" stroke="black" stroke-width="2" fill="none" />
<polyline points="220.5,203.5,212.5,204.0" stroke="black" stroke-width="2" fill="none" />
<polyline points="212.0,202.5,220.5,195.0" stroke="black" stroke-width="2" fill="none" />
<polyline points="218.5,195.5,210.5,196.0" stroke="black" stroke-width="2" fill="none" />
<polyline points="210.5,195.0,218.0,187.5,225.5,180.0" stroke="black" stroke-width="2" fill="none" />
<polyline points="227.0,178.5,218.5,179.0" stroke="black" stroke-width="2" fill="none" />
<polyline points="219.5,171.5,227.0,163.5,234.5,156.0" stroke="black" stroke-width="2" fill="none" />
<polyline points="235.0,160.5,226.5,161.0" stroke="black" stroke-width="2" fill="none" />
<polyline points="230.0,158.5,238.0,158.0,245.5,156.5" stroke="black" stroke-width="2" fill="none" />
<polyline points="242.5,155.5,235.0,162.5,227.0,170.0,219.5,177.0,212.0,184.5,204.5,192.5" stroke="black" stroke-width="2" fill="none" />
<polyline points="210.0,185.5,218.0,185.0" stroke="black" stroke-width="2" fill="none" />
<polyline points="223.5,185.5,231.5,173.5,239.5,165.5,247.0,155.0,255.0,147.0,263.0,138.5,271.5,131.0,279.5,123.0,288.0,115.5,295.5,105.0,303.5,95.0,311.5,80.0" stroke="black" stroke-width="2" fill="none" />
<polyline points="308.5,59.5,300.5,53.5,292.0,51.5,284.0,51.5,276.5,51.5,268.5,51.5,260.5,51.5,252.5,51.5,244.5,53.5,237.0,56.5,229.5,58.5,222.0,61.5,214.0,63.5,205.5,67.5,197.5,70.5,189.5,73.5,181.0,77.5,173.0,81.0,165.0,84.5,157.0,89.5,149.0,94.5,141.0,98.0,133.0,104.0,125.5,108.0,117.5,115.5,109.5,120.5,101.0,129.0,92.5,136.0,84.5,143.0,76.5,153.0,68.0,163.5,60.0,178.5,52.0,197.5" stroke="black" stroke-width="2" fill="none" />
<polyline points="50.0,197.5,58.0,197.0,66.0,196.0" stroke="black" stroke-width="2" fill="none" />
<polyline points="69.0,188.5,61.0,189.0" stroke="black" stroke-width="2" fill="none" />
<polyline points="57.5,188.5,65.5,180.5" stroke="black" stroke-width="2" fill="none" />
<polyline points="68.5,181.0,61.0,181.5" stroke="black" stroke-width="2" fill="none" />
<polyline points="63.5,185.0,72.0,169.5,80.0,159.5,88.5,149.5,97.0,141.5,105.5,133.0,113.5,127.0,121.5,120.5,129.5,114.0,137.0,107.5,145.0,102.5,153.0,97.5,161.5,93.0,169.5,89.5,177.5,85.5,185.5,81.5,194.0,77.5,202.0,74.0,210.5,71.0,210.5,77.5,202.5,86.0,195.5,94.0,188.5,102.0,182.0,109.5,182.0,117.5,187.0,102.0,194.5,93.0,202.0,83.5,210.0,73.5" stroke="black" stroke-width="2" fill="none" />
<polyline points="202.0,74.0,186.0,81.5,170.5,89.0,158.0,97.0,144.0,105.0,132.0,113.0,119.5,121.0,110.5,129.5,101.5,137.5,93.5,146.0,85.5,154.0,79.0,162.0,73.0,169.5,69.0,177.5,65.0,186.0,62.5,194.0,60.5,202.0,58.5,209.5,59.0,217.5,56.5,222.5" stroke="black" stroke-width="2" fill="none" />
<polyline points="59.5,212.0,51.0,212.0" stroke="black" stroke-width="2" fill="none" />
<polyline points="50.0,210.0,57.5,202.0" stroke="black" stroke-width="2" fill="none" />
<polyline points="57.5,203.5,49.5,204.0" stroke="black" stroke-width="2" fill="none" />
<polyline points="75.0,210.5,83.5,210.5,91.0,210.0" stroke="black" stroke-width="2" fill="none" />
<polyline points="91.5,204.0,84.0,204.5" stroke="black" stroke-width="2" fill="none" />
<polyline points="83.0,197.0,91.0,197.0" stroke="black" stroke-width="2" fill="none" />
<polyline points="93.0,197.0,101.0,183.0,109.0,175.0,110.0,174.0,102.0,182.0,97.0,190.0,93.0,198.0,90.0,205.0,86.5,212.5,85.0,220.5,83.0,228.5,81.0,236.5,80.5,244.5,80.5,252.5,84.5,256.5,92.5,251.5,100.5,245.5,108.5,237.5,117.0,238.5,125.5,234.5,133.5,231.0,141.0,225.5" stroke="black" stroke-width="2" fill="none" />
<polyline points="138.5,226.5,131.0,234.0" stroke="black" stroke-width="2" fill="none" />
<polyline points="133.0,230.0,140.5,229.0,148.0,228.0,156.0,227.0,163.5,227.0" stroke="black" stroke-width="2" fill="none" />
<polyline points="167.5,229.0,158.5,237.0,148.0,245.0,140.0,253.0,129.5,261.0,119.5,269.0,108.5,277.5,106.0,280.5,114.0,276.0,122.0,267.5,130.5,261.5,138.0,254.5,146.0,247.5,154.0,240.0,162.0,233.0,170.0,229.0" stroke="black" stroke-width="2" fill="none" />
<polyline points="170.0,229.0,175.0,237.0,166.5,245.5,154.0,253.5,140.0,262.0,127.0,269.5,114.0,278.0,110.0,279.5,118.0,275.0,126.0,271.0,134.0,266.0,142.0,260.5,150.0,256.5,158.0,251.0,166.5,246.0,175.0,239.0" stroke="black" stroke-width="2" fill="none" />
<polyline points="173.0,238.0,181.0,237.5,189.0,236.5" stroke="black" stroke-width="2" fill="none" />
<polyline points="186.5,235.5,178.5,243.0" stroke="black" stroke-width="2" fill="none" />
<polyline points="173.0,246.0,164.5,253.5" stroke="black" stroke-width="2" fill="none" />
<polyline points="163.0,245.5,171.5,245.0,180.0,244.5" stroke="black" stroke-width="2" fill="none" />
<polyline points="172.5,229.5,180.0,229.0,188.0,228.0" stroke="black" stroke-width="2" fill="none" />
<polyline points="184.5,234.5,176.5,225.5" stroke="black" stroke-width="2" fill="none" />
<polyline points="176.0,221.5,184.0,213.5,192.0,206.5,200.0,200.5,207.5,194.0,211.5,189.5,202.5,197.5,191.5,206.0,182.5,214.0,175.5,222.0,179.5,230.0,187.0,237.5,181.0,245.5,167.5,253.5,153.5,261.5,139.0,269.5,124.0,277.5,109.5,286.5,96.5,294.5,81.5,302.5,75.5,298.5,83.0,291.0,91.5,285.0,99.5,277.0,108.0,270.5,116.0,264.5,124.5,256.5,133.0,250.5,141.0,242.5,149.0,236.5,141.0,242.5,133.0,250.0,123.0,258.5,113.0,266.5,103.5,274.5,94.5,282.0,84.5,290.5,76.0,298.0,72.0,305.0,79.5,303.0,87.5,300.0,95.5,295.0,104.0,290.5,112.0,285.5,119.5,281.5,128.0,276.5,136.0,272.5,144.0,267.0,152.0,263.0,160.0,256.5,168.0,252.0,176.0,247.0,184.0,243.0" stroke="black" stroke-width="2" fill="none" />
<polyline points="172.0,226.5,180.5,218.5" stroke="black" stroke-width="2" fill="none" />
<polyline points="179.5,212.0,171.5,220.0,162.5,228.0,154.5,235.5" stroke="black" stroke-width="2" fill="none" />
<polyline points="155.5,228.5,147.0,236.0" stroke="black" stroke-width="2" fill="none" />
<polyline points="140.5,237.0,148.5,236.5,156.5,236.0" stroke="black" stroke-width="2" fill="none" />
<polyline points="155.5,223.5,147.5,224.0" stroke="black" stroke-width="2" fill="none" />
<polyline points="154.5,220.5,146.5,228.0,138.5,235.5" stroke="black" stroke-width="2" fill="none" />
<polyline points="131.5,237.0,123.0,237.5,114.5,237.5,106.5,238.0" stroke="black" stroke-width="2" fill="none" />
<polyline points="108.5,237.5,100.0,245.5,89.0,253.5" stroke="black" stroke-width="2" fill="none" />
<polyline points="90.5,255.5,98.5,255.0" stroke="black" stroke-width="2" fill="none" />
<polyline points="91.0,256.5,99.5,249.0,108.0,241.5,116.5,234.0" stroke="black" stroke-width="2" fill="none" />
<polyline points="124.0,235.5,116.0,243.0" stroke="black" stroke-width="2" fill="none" />
<polyline points="117.0,246.0,109.0,246.5,101.0,247.0" stroke="black" stroke-width="2" fill="none" />
<polyline points="83.0,252.5,75.5,259.5" stroke="black" stroke-width="2" fill="none" />
<polyline points="76.5,254.0,84.5,253.0,92.0,252.0,99.5,251.5,107.5,251.0" stroke="black" stroke-width="2" fill="none" />
<polyline points="115.0,263.5,123.0,263.5,130.5,262.5,138.0,261.5,145.5,259.5" stroke="black" stroke-width="2" fill="none" />
<polyline points="148.0,259.0,140.5,266.5" stroke="black" stroke-width="2" fill="none" />
<polyline points="132.0,267.0,124.0,274.5" stroke="black" stroke-width="2" fill="none" />
<polyline points="115.0,274.5,106.5,282.0" stroke="black" stroke-width="2" fill="none" />
<polyline points="108.0,280.0,100.5,280.5" stroke="black" stroke-width="2" fill="none" />
<polyline points="100.5,278.0,108.5,277.0,116.5,276.5,124.0,275.5" stroke="black" stroke-width="2" fill="none" />
<polyline points="114.5,267.0,106.5,274.5,99.0,282.0,91.0,289.5,83.0,297.0" stroke="black" stroke-width="2" fill="none" />
<polyline points="77.0,294.5,84.5,294.0,92.0,293.0" stroke="black" stroke-width="2" fill="none" />
<polyline points="89.5,288.0,98.0,288.0" stroke="black" stroke-width="2" fill="none" />
<polyline points="109.0,283.5,101.0,283.5,93.5,284.0,86.0,285.0" stroke="black" stroke-width="2" fill="none" />
<polyline points="75.0,267.0,83.0,259.5" stroke="black" stroke-width="2" fill="none" />
<polyline points="77.5,246.0,85.5,245.0" stroke="black" stroke-width="2" fill="none" />
<polyline points="84.0,236.5,76.0,243.5" stroke="black" stroke-width="2" fill="none" />
<polyline points="76.5,237.0,85.0,236.0" stroke="black" stroke-width="2" fill="none" />
<polyline points="83.0,227.5,75.0,235.5" stroke="black" stroke-width="2" fill="none" />
<polyline points="75.5,229.5,83.5,229.0" stroke="black" stroke-width="2" fill="none" />
<polyline points="84.5,220.0,76.5,220.5" stroke="black" stroke-width="2" fill="none" />
<polyline points="76.0,223.0,84.0,199.0,92.0,183.5,100.5,171.5,108.0,167.0,116.5,167.0" stroke="black" stroke-width="2" fill="none" />
<polyline points="114.0,165.5,122.0,173.5,123.0,181.5,121.5,190.0,120.5,198.5,118.0,206.5,114.5,215.0" stroke="black" stroke-width="2" fill="none" />
<polyline points="113.0,207.0,122.0,207.0" stroke="black" stroke-width="2" fill="none" />
<polyline points="115.5,202.5,123.0,195.0" stroke="black" stroke-width="2" fill="none" />
<polyline points="121.5,200.0,113.0,200.5" stroke="black" stroke-width="2" fill="none" />
<polyline points="116.0,190.0,124.0,189.5" stroke="black" stroke-width="2" fill="none" />
<polyline points="115.5,187.0,124.0,179.5" stroke="black" stroke-width="2" fill="none" />
<polyline points="125.0,181.5,117.0,182.0" stroke="black" stroke-width="2" fill="none" />
<polyline points="114.5,179.5,123.0,172.0" stroke="black" stroke-width="2" fill="none" />
<polyline points="125.0,173.5,117.0,174.5" stroke="black" stroke-width="2" fill="none" />
<polyline points="113.5,173.5,115.5,181.5,115.5,189.0,113.5,197.0,113.0,205.0,111.0,213.0" stroke="black" stroke-width="2" fill="none" />
<polyline points="138.5,205.0,146.5,205.0" stroke="black" stroke-width="2" fill="none" />
<polyline points="146.0,211.5,154.0,211.0" stroke="black" stroke-width="2" fill="none" />
<polyline points="148.5,212.5,156.5,227.5,160.0,219.5,159.0,228.0" stroke="black" stroke-width="2" fill="none" />
<polyline points="159.5,218.0,167.5,218.0,175.5,210.5" stroke="black" stroke-width="2" fill="none" />
<polyline points="178.0,206.0,186.0,205.5,194.0,205.0" stroke="black" stroke-width="2" fill="none" />
<polyline points="189.0,199.0,196.5,198.0,204.0,197.5" stroke="black" stroke-width="2" fill="none" />
<polyline points="195.5,191.0,203.5,190.5,211.5,189.0,219.5,188.5,227.5,187.5" stroke="black" stroke-width="2" fill="none" />
<polyline points="226.5,180.5,218.0,180.5,210.0,180.5,202.0,180.5" stroke="black" stroke-width="2" fill="none" />
<polyline points="212.0,173.5,220.0,173.0,227.5,172.0,236.0,171.5" stroke="black" stroke-width="2" fill="none" />
<polyline points="235.0,167.5,227.0,167.5" stroke="black" stroke-width="2" fill="none" />
<polyline points="234.0,166.0,226.0,166.5,218.5,166.5" stroke="black" stroke-width="2" fill="none" />
<polyline points="228.5,150.5,236.5,149.5" stroke="black" stroke-width="2" fill="none" />
<polyline points="233.0,149.0,233.0,157.0" stroke="black" stroke-width="2" fill="none" />
<polyline points="243.0,149.0,250.5,149.0" stroke="black" stroke-width="2" fill="none" />
<polyline points="250.5,140.0,259.0,140.0" stroke="black" stroke-width="2" fill="none" />
<polyline points="259.0,133.0,266.5,133.0" stroke="black" stroke-width="2" fill="none" />
<polyline points="266.0,126.0,274.0,125.0" stroke="black" stroke-width="2" fill="none" />
<polyline points="275.5,117.5,283.5,117.0" stroke="black" stroke-width="2" fill="none" />
<polyline points="283.0,141.5,291.0,141.0" stroke="black" stroke-width="2" fill="none" />
<polyline points="282.0,145.5,290.0,130.0,292.5,127.5,285.5,135.5,282.0,144.0,279.0,152.0,277.0,160.0,272.5,168.5,270.5,176.5,267.5,185.0,263.5,193.0,259.5,201.0,255.5,208.5,251.0,216.5,245.0,225.0,239.0,233.0,228.5,241.0" stroke="black" stroke-width="2" fill="none" />
<polyline points="217.5,231.0,209.5,231.0,202.0,231.5" stroke="black" stroke-width="2" fill="none" />
<polyline points="202.0,221.5,210.0,221.0,218.5,221.0" stroke="black" stroke-width="2" fill="none" />
<polyline points="214.5,191.5,212.0,199.0,210.0,207.0,208.0,215.0,207.0,223.5,204.5,232.0,203.5,240.0,202.5,248.0,200.0,256.5,200.0,264.5,200.5,267.5" stroke="black" stroke-width="2" fill="none" />
<polyline points="164.0,251.0,155.5,250.5,147.0,251.0" stroke="black" stroke-width="2" fill="none" />
<polyline points="146.5,245.0,139.0,245.5,131.0,246.0" stroke="black" stroke-width="2" fill="none" />
<polyline points="128.0,240.5,113.5,248.5,101.5,257.0,92.5,265.0,73.5,273.5,58.5,281.5,47.0,289.5,35.5,297.0,24.5,304.5,14.5,312.0,12.0,314.0,19.5,308.0,28.0,301.0,35.5,296.0,43.5,290.5,51.0,286.0,60.0,280.5,67.5,275.5,75.5,272.0,83.0,268.5,91.0,265.5,99.0,258.5,107.0,252.5,114.5,247.5,123.0,243.5,131.0,240.0,139.0,236.0,147.0,233.5" stroke="black" stroke-width="2" fill="none" />
<polyline points="139.0,221.5,147.0,221.0,155.5,220.5,163.5,220.0,171.5,220.0,179.5,219.5" stroke="black" stroke-width="2" fill="none" />
<polyline points="180.0,211.5,172.5,212.0,164.5,212.5" stroke="black" stroke-width="2" fill="none" />
<polyline points="148.0,197.5,140.5,198.0" stroke="black" stroke-width="2" fill="none" />
<polyline points="140.5,194.0,148.5,186.0" stroke="black" stroke-width="2" fill="none" />
<polyline points="146.5,179.0,138.5,186.5" stroke="black" stroke-width="2" fill="none" />
<polyline points="140.0,184.0,147.5,183.5" stroke="black" stroke-width="2" fill="none" />
<polyline points="147.0,190.0,139.0,190.5" stroke="black" stroke-width="2" fill="none" />
<polyline points="141.0,176.0,148.5,175.0" stroke="black" stroke-width="2" fill="none" />
<polyline points="137.5,169.5,145.5,162.0" stroke="black" stroke-width="2" fill="none" />
<polyline points="147.5,166.0,139.5,166.5" stroke="black" stroke-width="2" fill="none" />
<polyline points="138.5,160.0,146.5,159.5" stroke="black" stroke-width="2" fill="none" />
<polyline points="140.5,150.0,141.5,158.0,144.0,166.0,144.0,174.5,145.5,182.5,145.0,190.5,145.5,199.0,147.5,207.5,149.5,215.5,154.5,224.0" stroke="black" stroke-width="2" fill="none" />
<polyline points="140.0,253.0,132.0,253.5,124.0,254.5" stroke="black" stroke-width="2" fill="none" />
<polyline points="139.0,269.5,130.5,270.5,122.5,271.0,114.5,271.0,106.5,271.0" stroke="black" stroke-width="2" fill="none" />
<polyline points="91.0,261.0,82.5,261.0,74.5,261.0,66.5,261.5" stroke="black" stroke-width="2" fill="none" />
<polyline points="59.5,268.0,67.5,267.5,75.5,267.5" stroke="black" stroke-width="2" fill="none" />
<polyline points="58.5,275.5,51.0,276.0,43.5,276.5" stroke="black" stroke-width="2" fill="none" />
<polyline points="50.5,284.5,41.5,284.5,33.5,285.0" stroke="black" stroke-width="2" fill="none" />
<polyline points="33.5,285.0,25.5,287.0" stroke="black" stroke-width="2" fill="none" />
<polyline points="33.5,294.0,25.0,295.0,17.0,295.5" stroke="black" stroke-width="2" fill="none" />
<polyline points="11.5,300.0,19.5,299.5,28.0,300.0" stroke="black" stroke-width="2" fill="none" />
<polyline points="10.5,308.0,2.5,315.0" stroke="black" stroke-width="2" fill="none" />
<polyline points="2.5,307.0,11.0,307.0,18.5,306.5" stroke="black" stroke-width="2" fill="none" />
<polyline points="13.0,297.5,5.0,296.5" stroke="black" stroke-width="2" fill="none" />
<polyline points="59.5,174.5,67.5,174.0,76.0,172.5" stroke="black" stroke-width="2" fill="none" />
<polyline points="67.0,172.5,75.0,165.5,83.5,158.5" stroke="black" stroke-width="2" fill="none" />
<polyline points="83.0,155.5,75.0,156.0" stroke="black" stroke-width="2" fill="none" />
<polyline points="77.0,149.5,85.0,149.0,93.0,149.0" stroke="black" stroke-width="2" fill="none" />
<polyline points="99.5,141.5,92.0,142.5,84.5,142.5" stroke="black" stroke-width="2" fill="none" />
<polyline points="93.5,134.0,101.0,133.5,109.0,133.0" stroke="black" stroke-width="2" fill="none" />
<polyline points="109.5,129.5,117.5,122.0" stroke="black" stroke-width="2" fill="none" />
<polyline points="116.0,118.5,123.5,118.0" stroke="black" stroke-width="2" fill="none" />
<polyline points="122.5,111.5,130.5,111.0,139.5,110.0" stroke="black" stroke-width="2" fill="none" />
<polyline points="132.0,101.5,140.0,100.5,148.0,101.0" stroke="black" stroke-width="2" fill="none" />
<polyline points="148.0,93.0,156.0,92.5,164.0,92.0" stroke="black" stroke-width="2" fill="none" />
<polyline points="164.5,84.5,172.5,84.0,180.5,84.0" stroke="black" stroke-width="2" fill="none" />
<polyline points="179.5,79.0,187.5,78.5,195.5,78.0" stroke="black" stroke-width="2" fill="none" />
<polyline points="196.0,70.0,204.0,70.0,212.0,69.0,219.5,68.5,227.0,68.0" stroke="black" stroke-width="2" fill="none" />
<polyline points="230.0,56.0,219.0,68.5,217.0,76.5,214.0,84.5,209.5,93.0,206.0,101.5,202.0,109.5,197.5,117.5,195.5,125.5,192.5,133.5,189.5,141.5,195.5,140.5" stroke="black" stroke-width="2" fill="none" />
<polyline points="196.0,139.0,188.0,146.0,179.5,153.0" stroke="black" stroke-width="2" fill="none" />
<polyline points="180.5,149.5,188.5,148.5,196.0,147.5" stroke="black" stroke-width="2" fill="none" />
<polyline points="188.5,142.0,196.5,141.5,204.0,141.5" stroke="black" stroke-width="2" fill="none" />
<polyline points="196.5,132.5,188.5,133.0" stroke="black" stroke-width="2" fill="none" />
<polyline points="186.5,125.5,194.5,125.5" stroke="black" stroke-width="2" fill="none" />
<polyline points="197.5,119.0,205.5,118.5" stroke="black" stroke-width="2" fill="none" />
<polyline points="203.5,109.0,196.0,109.5,188.5,110.5,180.5,111.0" stroke="black" stroke-width="2" fill="none" />
<polyline points="186.5,100.5,194.5,100.0,203.0,99.5,211.5,99.0" stroke="black" stroke-width="2" fill="none" />
<polyline points="212.5,92.5,204.5,92.5,196.5,93.5" stroke="black" stroke-width="2" fill="none" />
<polyline points="199.0,99.0,191.5,107.0,185.5,115.0,186.5,114.0,194.5,103.5" stroke="black" stroke-width="2" fill="none" />
<polyline points="201.0,99.5,197.0,108.0,193.0,116.0,190.5,124.0,187.5,132.0,185.5,140.0,181.5,148.0,172.5,156.0,177.0,164.0,181.0,172.5,183.0,180.5,187.0,192.5,189.0,196.5" stroke="black" stroke-width="2" fill="none" />
<polyline points="186.5,183.0,194.5,182.5" stroke="black" stroke-width="2" fill="none" />
<polyline points="195.0,173.5,187.0,174.5,178.5,175.5" stroke="black" stroke-width="2" fill="none" />
<polyline points="178.5,170.5,186.5,163.0" stroke="black" stroke-width="2" fill="none" />
<polyline points="188.0,165.5,180.0,166.0" stroke="black" stroke-width="2" fill="none" />
<polyline points="178.5,162.0,186.0,154.5" stroke="black" stroke-width="2" fill="none" />
<polyline points="186.5,156.0,195.0,149.0,201.0,144.0,190.5,152.0,187.5,160.0,187.0,168.0,187.5,175.5,191.0,183.5,195.0,184.5" stroke="black" stroke-width="2" fill="none" />
<polyline points="188.5,160.0,180.5,161.0" stroke="black" stroke-width="2" fill="none" />
<polyline points="186.5,156.5,179.0,156.5,171.0,156.5" stroke="black" stroke-width="2" fill="none" />
<polyline points="171.5,157.0,179.0,151.0,187.0,129.5,195.0,110.5,205.0,103.0,212.5,88.0" stroke="black" stroke-width="2" fill="none" />
<polyline points="176.5,71.0,182.5,73.0,174.5,80.5,159.5,88.0,146.5,96.0,134.0,103.5,122.0,111.5,112.0,119.5,102.5,127.5,93.5,136.0,84.5,144.0,78.5,152.0,72.5,160.0,66.5,168.0,62.5,176.5,59.5,184.5,55.5,192.5,52.5,201.0,50.5,209.0,51.5,217.0,49.5,225.0,55.5,230.0" stroke="black" stroke-width="2" fill="none" />
<polyline points="91.0,190.0,99.5,189.5" stroke="black" stroke-width="2" fill="none" />
<polyline points="100.5,182.0,93.0,182.5" stroke="black" stroke-width="2" fill="none" />
<polyline points="100.0,178.5,107.5,171.0" stroke="black" stroke-width="2" fill="none" />
<polyline points="106.5,164.0,114.5,164.5,122.5,164.0" stroke="black" stroke-width="2" fill="none" />
<polyline points="106.0,163.5,101.0,171.0,94.5,179.0,90.5,187.0,86.5,195.0,83.5,203.0,80.5,211.0,78.0,219.0,76.0,227.0,75.0,235.0,73.0,243.0,73.0,251.0,74.5,259.0,68.0,267.0,56.0,275.0,44.5,283.0,32.0,291.0,20.5,299.0,11.5,301.0,9.5,308.0,3.5,314.0,11.5,306.0,19.0,300.0,27.5,294.5,36.0,288.5,44.0,282.5,52.0,277.5,59.5,272.5,67.5,267.0" stroke="black" stroke-width="2" fill="none" />
<polyline points="99.5,173.5,107.5,173.0" stroke="black" stroke-width="2" fill="none" />
<polyline points="74.0,164.5,65.5,165.0" stroke="black" stroke-width="2" fill="none" />
<polyline points="97.5,125.5,106.0,125.5,114.0,125.0" stroke="black" stroke-width="2" fill="none" />
<polyline points="122.5,132.5,114.5,137.5" stroke="black" stroke-width="2" fill="none" />
<polyline points="137.5,149.5,137.5,152.5,135.5,160.5,135.5,169.0,138.5,177.0,138.5,184.5,138.5,192.5,140.5,200.5,142.5,209.0,144.5,217.0,141.5,225.0,128.5,233.0" stroke="black" stroke-width="2" fill="none" />
<polyline points="189.0,186.5,181.0,170.5,173.0,161.5" stroke="black" stroke-width="2" fill="none" />
<polyline points="224.5,145.0,227.5,151.0,223.5,159.5,219.5,167.5,215.0,175.5,207.5,183.5,199.5,191.5,191.5,200.0,181.5,207.5,171.5,215.5,181.0,208.5,188.5,201.5,196.5,194.5,204.0,187.0,211.5,179.0,219.5,167.0,227.0,149.5,239.0,147.5,242.0,147.0" stroke="black" stroke-width="2" fill="none" />
<polyline points="274.0,158.5,282.5,158.0,290.5,157.0" stroke="black" stroke-width="2" fill="none" />
<polyline points="283.5,163.0,275.5,170.5" stroke="black" stroke-width="2" fill="none" />
<polyline points="275.5,172.5,283.0,172.0" stroke="black" stroke-width="2" fill="none" />
<polyline points="281.5,170.0,273.5,178.0,266.0,185.5" stroke="black" stroke-width="2" fill="none" />
<polyline points="265.5,188.0,274.0,187.5,282.5,187.0" stroke="black" stroke-width="2" fill="none" />
<polyline points="282.5,180.0,273.5,181.0,265.5,181.5" stroke="black" stroke-width="2" fill="none" />
<polyline points="274.5,163.5,282.5,163.0" stroke="black" stroke-width="2" fill="none" />
<polyline points="307.0,190.5,315.0,190.0" stroke="black" stroke-width="2" fill="none" />
<polyline points="266.5,184.0,259.0,201.0,251.0,215.0,243.0,227.0,235.0,235.0,227.0,241.0,219.5,237.5,217.5,235.5,217.5,228.0,217.5,220.0,217.5,212.0,219.5,204.0,219.5,196.0,223.5,187.5,226.5,179.5,232.5,171.5,240.5,164.0,245.5,156.0,253.5,147.5,261.5,139.5,269.5,131.5,277.5,123.5,285.5,115.5,291.5,107.5,298.5,100.0,303.5,92.0,308.5,83.5,311.5,75.5,311.0,68.0,308.5,60.0,298.0,52.0" stroke="black" stroke-width="2" fill="none" />
<polyline points="501.0,53.0,508.5,51.0" stroke="black" stroke-width="2" fill="none" />
<polyline points="505.5,52.5,513.5,52.0" stroke="black" stroke-width="2" fill="none" />
</svg>