<svg xmlns="http://www.w3.org/2000/svg" version="1.1"><polyline points="505.0,1.5,496.5,9.5,488.5,17.0,482.5,25.5,475.5,33.5,469.0,41.5,463.0,49.0,458.0,57.5,453.0,65.0,448.5,73.0,444.5,81.0,439.5,89.0,435.5,97.0,430.5,105.0,426.0,113.0,422.0,121.5,417.0,129.5,413.0,137.5,408.5,145.5,403.5,154.0,397.5,162.0,394.5,166.0,402.0,156.5,410.0,143.0,417.5,130.0,425.5,116.0,433.5,99.5,441.5,85.5,449.5,71.0,457.5,58.0,465.5,46.0,474.0,35.5,482.0,26.0,490.0,16.0,497.5,8.0" stroke="black" stroke-width="2" fill="none" />
<polyline points="498.5,6.5,507.0,5.5" stroke="black" stroke-width="2" fill="none" />
<polyline points="505.5,9.5,497.5,17.5,489.5,27.0,481.5,35.0,473.0,46.5,464.5,58.5,456.5,71.5,449.0,84.0,441.0,99.0,432.5,113.0,424.5,129.0,416.0,144.0,408.0,156.5,400.0,168.5,392.0,175.5,384.5,174.5,382.5,171.5,382.5,163.5,382.5,156.0,384.5,148.0,385.5,140.5,388.0,132.5,390.0,124.0,392.0,116.0,394.5,108.0,397.0,100.0,400.0,92.0,402.0,83.5,406.0,75.5,409.0,67.5,412.5,59.5,416.5,51.5,421.0,43.5,427.0,35.5,438.5,30.5,430.0,31.0,422.5,42.0,414.5,56.0,407.0,72.5" stroke="black" stroke-width="2" fill="none" />
<polyline points="412.5,71.0,420.5,70.5" stroke="black" stroke-width="2" fill="none" />
<polyline points="410.0,65.5,418.0,57.5" stroke="black" stroke-width="2" fill="none" />
<polyline points="419.5,53.5,427.5,53.0" stroke="black" stroke-width="2" fill="none" />
<polyline points="426.5,43.5,435.0,36.5" stroke="black" stroke-width="2" fill="none" />
<polyline points="437.0,38.5,429.5,39.0" stroke="black" stroke-width="2" fill="none" />
<polyline points="435.5,45.0,427.5,45.5,419.0,45.5" stroke="black" stroke-width="2" fill="none" />
<polyline points="419.5,62.5,411.5,63.0" stroke="black" stroke-width="2" fill="none" />
<polyline points="410.5,77.0,402.5,77.5" stroke="black" stroke-width="2" fill="none" />
<polyline points="402.0,85.5,410.0,85.5" stroke="black" stroke-width="2" fill="none" />
<polyline points="412.5,92.5,404.5,93.0,397.0,94.0" stroke="black" stroke-width="2" fill="none" />
<polyline points="395.5,102.5,403.5,101.5" stroke="black" stroke-width="2" fill="none" />
<polyline points="400.5,107.0,408.0,85.5,416.0,67.5,424.5,51.5,432.5,40.5" stroke="black" stroke-width="2" fill="none" />
<polyline points="436.5,29.5,436.5,38.0,429.5,46.0,424.0,54.0,420.5,61.5,416.0,69.5,411.5,77.5,408.0,85.5,404.5,93.5,401.5,101.0,398.5,109.0,396.5,117.0,393.5,125.0,392.5,133.0,391.0,141.0,389.5,149.5,390.0,157.0,389.5,165.0" stroke="black" stroke-width="2" fill="none" />
<polyline points="387.0,163.5,395.0,163.0,403.0,163.0" stroke="black" stroke-width="2" fill="none" />
<polyline points="402.5,162.5,395.0,170.0" stroke="black" stroke-width="2" fill="none" />
<polyline points="395.0,163.0,387.0,170.5" stroke="black" stroke-width="2" fill="none" />
<polyline points="387.5,174.0,395.5,173.5" stroke="black" stroke-width="2" fill="none" />
<polyline points="401.0,150.5,409.0,150.0,418.0,149.5" stroke="black" stroke-width="2" fill="none" />
<polyline points="411.0,147.0,419.5,140.0" stroke="black" stroke-width="2" fill="none" />
<polyline points="422.0,143.0,413.5,143.5" stroke="black" stroke-width="2" fill="none" />
<polyline points="414.5,135.5,422.0,135.0,429.5,134.0" stroke="black" stroke-width="2" fill="none" />
<polyline points="426.0,124.5,418.0,132.0" stroke="black" stroke-width="2" fill="none" />
<polyline points="420.5,125.0,428.5,124.0" stroke="black" stroke-width="2" fill="none" />
<polyline points="427.5,116.5,436.0,116.0" stroke="black" stroke-width="2" fill="none" />
<polyline points="437.5,109.0,430.0,110.0" stroke="black" stroke-width="2" fill="none" />
<polyline points="437.5,100.0,445.5,100.0" stroke="black" stroke-width="2" fill="none" />
<polyline points="445.0,92.5,437.0,92.5" stroke="black" stroke-width="2" fill="none" />
<polyline points="443.0,86.0,451.0,86.0" stroke="black" stroke-width="2" fill="none" />
<polyline points="453.0,83.5,455.5,86.5" stroke="black" stroke-width="2" fill="none" />
<polyline points="452.0,77.5,460.5,70.0" stroke="black" stroke-width="2" fill="none" />
<polyline points="458.0,61.5,466.5,61.0" stroke="black" stroke-width="2" fill="none" />
<polyline points="465.5,54.0,457.5,54.5" stroke="black" stroke-width="2" fill="none" />
<polyline points="468.5,46.5,476.0,46.0" stroke="black" stroke-width="2" fill="none" />
<polyline points="475.5,38.0,483.5,37.5" stroke="black" stroke-width="2" fill="none" />
<polyline points="475.0,30.0,483.0,29.5,491.5,29.0" stroke="black" stroke-width="2" fill="none" />
<polyline points="483.5,22.5,491.5,22.0,499.5,22.0" stroke="black" stroke-width="2" fill="none" />
<polyline points="502.5,23.0,499.5,20.0,500.0,23.0,501.5,17.5" stroke="black" stroke-width="2" fill="none" />
<polyline points="508.0,12.5,500.0,12.5,491.5,13.0" stroke="black" stroke-width="2" fill="none" />
<polyline points="509.5,1.5,504.0,9.5,496.5,17.5,490.5,26.0,482.5,34.0,476.5,42.0,469.5,50.0,465.5,58.0,461.5,66.0,455.5,74.0,451.5,82.5,446.5,90.0,442.5,98.0,437.5,106.0,433.5,114.0,429.0,122.0,425.5,130.0,420.5,138.0,415.5,145.5,411.5,154.0,405.5,161.5,399.5,169.5,388.5,181.5,389.5,181.5" stroke="black" stroke-width="2" fill="none" />
<polyline points="379.5,156.0,387.5,155.5,395.5,155.5,403.5,155.5,411.5,155.0" stroke="black" stroke-width="2" fill="none" />
<polyline points="397.0,141.0,388.5,148.5" stroke="black" stroke-width="2" fill="none" />
<polyline points="388.0,149.5,396.0,149.0" stroke="black" stroke-width="2" fill="none" />
<polyline points="397.0,142.5,389.0,142.5" stroke="black" stroke-width="2" fill="none" />
<polyline points="388.5,135.0,396.5,134.0" stroke="black" stroke-width="2" fill="none" />
<polyline points="396.0,126.5,388.0,127.0" stroke="black" stroke-width="2" fill="none" />
<polyline points="394.5,118.0,402.5,118.0" stroke="black" stroke-width="2" fill="none" />
<polyline points="402.0,110.5,394.0,111.0" stroke="black" stroke-width="2" fill="none" />
<polyline points="370.5,140.5,362.0,141.0" stroke="black" stroke-width="2" fill="none" />
<polyline points="360.5,141.0,352.5,156.5,345.0,165.5,341.5,174.5,333.0,195.5,325.0,206.5,317.0,213.5,313.0,217.5,322.0,209.5,329.0,201.5,333.5,194.0,336.5,186.0,339.0,178.0,344.5,170.0,349.5,161.5,354.0,153.5,359.0,145.5,363.5,137.5" stroke="black" stroke-width="2" fill="none" />
<polyline points="366.5,137.5,366.5,145.5,364.0,153.5,361.0,162.0,359.0,170.5,356.0,179.0,354.0,187.0,345.5,198.5,351.5,195.5" stroke="black" stroke-width="2" fill="none" />
<polyline points="346.5,191.0,338.5,191.5" stroke="black" stroke-width="2" fill="none" />
<polyline points="339.5,186.5,347.5,179.0,355.0,171.5" stroke="black" stroke-width="2" fill="none" />
<polyline points="356.0,176.0,348.0,176.5" stroke="black" stroke-width="2" fill="none" />
<polyline points="349.0,179.0,346.0,186.5,341.0,194.5,337.0,202.5,331.0,210.0,325.0,218.0,322.0,226.0" stroke="black" stroke-width="2" fill="none" />
<polyline points="317.0,218.5,325.0,211.0,333.0,203.0" stroke="black" stroke-width="2" fill="none" />
<polyline points="332.5,197.5,340.5,197.0" stroke="black" stroke-width="2" fill="none" />
<polyline points="338.5,182.0,346.5,182.0,354.5,182.0" stroke="black" stroke-width="2" fill="none" />
<polyline points="350.0,180.0,350.0,188.0" stroke="black" stroke-width="2" fill="none" />
<polyline points="355.0,172.0,347.0,172.0,339.5,172.5" stroke="black" stroke-width="2" fill="none" />
<polyline points="347.0,168.5,355.0,161.5,363.0,154.5" stroke="black" stroke-width="2" fill="none" />
<polyline points="364.5,157.5,356.5,157.5" stroke="black" stroke-width="2" fill="none" />
<polyline points="354.0,154.5,362.0,147.0" stroke="black" stroke-width="2" fill="none" />
<polyline points="356.5,149.0,364.5,148.0,372.0,147.5" stroke="black" stroke-width="2" fill="none" />
<polyline points="363.0,162.0,355.0,162.0" stroke="black" stroke-width="2" fill="none" />
<polyline points="350.0,165.5,358.0,164.5,365.5,164.0" stroke="black" stroke-width="2" fill="none" />
<polyline points="333.0,156.0,325.0,164.0" stroke="black" stroke-width="2" fill="none" />
<polyline points="323.0,159.0,331.0,158.5" stroke="black" stroke-width="2" fill="none" />
<polyline points="330.0,150.0,321.5,150.0" stroke="black" stroke-width="2" fill="none" />
<polyline points="326.0,148.5,334.0,132.0,341.5,113.0,349.5,95.0,357.0,79.0,365.0,62.0,373.0,46.0,381.0,30.0,388.5,18.0,386.5,19.0,382.5,27.0,378.5,35.0,373.5,43.0,370.5,51.0,367.0,59.0,363.0,67.0,359.5,75.0,356.0,82.5,352.0,90.5,349.0,98.5,345.0,106.0,342.5,114.5,337.5,122.5,335.5,130.5,331.0,139.0,327.0,147.0,323.5,155.0,320.0,163.0,317.0,171.5,314.0,180.0,310.5,188.0,308.0,196.0,306.0,204.0,304.5,211.5,304.5,219.5,303.5,228.5,306.5,230.5" stroke="black" stroke-width="2" fill="none" />
<polyline points="307.5,220.5,315.5,213.0" stroke="black" stroke-width="2" fill="none" />
<polyline points="323.5,207.0,331.0,206.5" stroke="black" stroke-width="2" fill="none" />
<polyline points="330.0,212.5,321.5,213.5,313.0,214.5,305.5,215.0" stroke="black" stroke-width="2" fill="none" />
<polyline points="305.0,207.0,313.5,206.0" stroke="black" stroke-width="2" fill="none" />
<polyline points="315.5,197.0,307.5,197.5" stroke="black" stroke-width="2" fill="none" />
<polyline points="306.5,190.0,314.5,190.0" stroke="black" stroke-width="2" fill="none" />
<polyline points="315.5,191.0,315.5,173.5,328.0,159.5,336.0,140.5,343.5,122.5,351.5,105.5,359.0,88.5,366.5,71.5,374.5,56.0,382.5,41.0,390.5,26.5" stroke="black" stroke-width="2" fill="none" />
<polyline points="387.0,27.5,395.0,20.0" stroke="black" stroke-width="2" fill="none" />
<polyline points="396.5,20.5,388.5,21.0" stroke="black" stroke-width="2" fill="none" />
<polyline points="393.5,18.5,392.0,26.5,388.0,34.5,383.0,42.0,378.5,50.0,374.5,58.0,370.5,66.0,366.5,74.5,362.5,82.5,358.5,91.0,354.5,98.5,351.5,107.0,347.5,114.5,344.0,122.5,341.0,130.5,337.5,138.5,335.0,146.5,331.0,154.0,327.0,162.0,324.0,170.0,321.5,178.5,318.5,186.0,315.0,194.0,313.0,202.0,311.0,210.0,306.0,221.0,313.5,224.5,321.5,219.5,330.0,210.5,338.0,196.0,346.5,183.0" stroke="black" stroke-width="2" fill="none" />
<polyline points="323.0,182.0,314.5,182.5" stroke="black" stroke-width="2" fill="none" />
<polyline points="315.5,176.0,323.5,175.0" stroke="black" stroke-width="2" fill="none" />
<polyline points="331.0,166.0,322.5,167.5,314.0,168.0" stroke="black" stroke-width="2" fill="none" />
<polyline points="285.0,169.0,276.5,176.5,268.0,184.0" stroke="black" stroke-width="2" fill="none" />
<polyline points="266.5,182.0,274.5,181.5,282.0,181.0" stroke="black" stroke-width="2" fill="none" />
<polyline points="277.5,173.0,285.5,172.5" stroke="black" stroke-width="2" fill="none" />
<polyline points="282.5,163.5,274.5,171.5" stroke="black" stroke-width="2" fill="none" />
<polyline points="276.0,167.5,284.0,167.0" stroke="black" stroke-width="2" fill="none" />
<polyline points="277.5,159.0,285.0,159.0,292.0,158.5" stroke="black" stroke-width="2" fill="none" />
<polyline points="287.5,153.5,295.0,136.5,296.5,134.0,292.5,142.0,288.5,150.0,285.5,158.5,283.0,166.5,281.0,174.0,278.5,182.0,276.5,190.0,274.5,198.0,274.0,206.5,276.5,214.5,278.5,218.0,281.0,214.0" stroke="black" stroke-width="2" fill="none" />
<polyline points="283.5,211.5,276.0,212.5" stroke="black" stroke-width="2" fill="none" />
<polyline points="267.0,204.5,274.5,197.5" stroke="black" stroke-width="2" fill="none" />
<polyline points="276.0,194.0,268.5,194.5" stroke="black" stroke-width="2" fill="none" />
<polyline points="267.0,195.5,275.0,188.0" stroke="black" stroke-width="2" fill="none" />
<polyline points="281.5,189.0,273.0,190.0,265.0,190.5" stroke="black" stroke-width="2" fill="none" />
<polyline points="269.0,201.0,271.0,209.0,273.0,217.0,264.5,220.0" stroke="black" stroke-width="2" fill="none" />
<polyline points="258.0,212.5,250.5,219.5" stroke="black" stroke-width="2" fill="none" />
<polyline points="245.0,220.5,252.5,220.0,260.0,219.5" stroke="black" stroke-width="2" fill="none" />
<polyline points="261.0,213.0,253.0,213.0" stroke="black" stroke-width="2" fill="none" />
<polyline points="258.0,207.0,266.5,206.5" stroke="black" stroke-width="2" fill="none" />
<polyline points="273.0,198.5,265.0,199.5,257.0,200.5" stroke="black" stroke-width="2" fill="none" />
<polyline points="220.5,202.0,212.5,210.0" stroke="black" stroke-width="2" fill="none" />
<polyline points="211.5,207.0,219.5,206.5" stroke="black" stroke-width="2" fill="none" />
<polyline points="219.0,211.5,211.0,219.0" stroke="black" stroke-width="2" fill="none" />
<polyline points="211.0,213.5,219.0,213.5" stroke="black" stroke-width="2" fill="none" />
<polyline points="217.0,222.5,208.5,230.0" stroke="black" stroke-width="2" fill="none" />
<polyline points="211.0,232.0,218.5,231.0" stroke="black" stroke-width="2" fill="none" />
<polyline points="219.0,228.0,210.5,235.0,202.0,242.5" stroke="black" stroke-width="2" fill="none" />
<polyline points="205.0,238.5,213.0,238.0,220.5,237.0,228.5,236.0,236.5,235.5,244.5,234.5" stroke="black" stroke-width="2" fill="none" />
<polyline points="250.5,228.5,242.5,229.0,234.5,230.0" stroke="black" stroke-width="2" fill="none" />
<polyline points="219.5,236.0,211.5,243.0" stroke="black" stroke-width="2" fill="none" />
<polyline points="211.5,240.5,220.0,248.5,228.5,250.5,236.5,245.5,244.5,238.0,252.5,228.0,260.5,215.5,268.0,200.5,267.0,203.0,262.5,211.0,257.5,218.5,251.5,226.5,246.0,234.5,237.5,243.0" stroke="black" stroke-width="2" fill="none" />
<polyline points="229.0,245.5,221.0,246.0" stroke="black" stroke-width="2" fill="none" />
<polyline points="213.0,251.0,205.0,258.5" stroke="black" stroke-width="2" fill="none" />
<polyline points="204.5,259.5,212.5,259.0" stroke="black" stroke-width="2" fill="none" />
<polyline points="213.0,253.5,205.0,254.5" stroke="black" stroke-width="2" fill="none" />
<polyline points="205.0,247.5,213.0,247.0" stroke="black" stroke-width="2" fill="none" />
<polyline points="216.0,247.0,210.0,239.0" stroke="black" stroke-width="2" fill="none" />
<polyline points="207.5,238.5,206.0,246.5,206.0,254.5,205.0,262.5" stroke="black" stroke-width="2" fill="none" />
<polyline points="180.0,242.0,188.0,234.5" stroke="black" stroke-width="2" fill="none" />
<polyline points="187.0,236.5,179.0,237.0,171.0,237.0" stroke="black" stroke-width="2" fill="none" />
<polyline points="170.0,231.0,178.5,230.0,186.5,229.5" stroke="black" stroke-width="2" fill="none" />
<polyline points="180.5,220.0,172.0,221.0,164.0,221.0,155.5,221.0,147.0,220.5,139.0,221.0" stroke="black" stroke-width="2" fill="none" />
<polyline points="140.0,224.5,132.0,232.5" stroke="black" stroke-width="2" fill="none" />
<polyline points="133.5,229.0,141.5,228.5,149.5,228.0,157.0,228.0,164.5,227.5" stroke="black" stroke-width="2" fill="none" />
<polyline points="168.0,228.5,159.0,236.5,149.0,244.5,140.5,252.0,130.5,260.0,120.5,268.0,109.5,275.5,106.5,278.5,114.5,274.0,123.0,265.5,131.0,259.5,138.5,253.0,146.5,246.0,154.0,239.0,162.5,232.5,170.0,228.5" stroke="black" stroke-width="2" fill="none" />
<polyline points="170.0,228.0,178.5,220.5" stroke="black" stroke-width="2" fill="none" />
<polyline points="173.5,221.0,181.5,213.0,190.0,205.5,198.0,199.0,206.5,193.0,210.5,189.0,202.0,197.0,191.0,205.0,182.5,213.0,175.5,221.0,180.0,229.5,187.0,237.0,181.0,245.0,168.0,253.5,154.0,262.0,139.5,270.0,124.5,278.5,110.5,286.5,97.5,294.5,82.0,302.5,76.0,298.5,84.0,290.5,91.5,284.5,99.5,276.0,107.5,270.0,115.5,264.0,123.5,256.0,132.0,249.5,140.5,241.5,148.0,235.0,140.0,241.0,132.0,249.5,122.5,258.0,112.5,266.0,103.5,273.5,94.0,281.5,84.0,289.5,76.0,297.5,72.0,304.5,79.5,302.5,87.5,299.0,95.5,294.0,104.0,289.0,112.5,284.0,120.5,280.0,128.5,275.0,136.5,271.0,144.5,266.0,153.0,262.5,161.0,256.0,169.5,252.0,177.5,247.5,185.0,244.0" stroke="black" stroke-width="2" fill="none" />
<polyline points="174.5,244.0,166.0,252.0" stroke="black" stroke-width="2" fill="none" />
<polyline points="164.0,246.0,172.0,245.0,179.5,244.0" stroke="black" stroke-width="2" fill="none" />
<polyline points="165.0,253.0,157.5,253.0,149.5,253.0" stroke="black" stroke-width="2" fill="none" />
<polyline points="147.5,259.0,139.5,266.5" stroke="black" stroke-width="2" fill="none" />
<polyline points="131.5,265.0,123.5,272.5" stroke="black" stroke-width="2" fill="none" />
<polyline points="115.5,274.0,107.5,281.5" stroke="black" stroke-width="2" fill="none" />
<polyline points="105.5,281.0,97.5,281.5" stroke="black" stroke-width="2" fill="none" />
<polyline points="98.5,278.5,107.0,278.0,115.0,277.5,123.0,277.0" stroke="black" stroke-width="2" fill="none" />
<polyline points="114.0,267.0,106.5,274.0,98.0,281.0,90.0,288.5,82.5,296.0" stroke="black" stroke-width="2" fill="none" />
<polyline points="78.0,292.5,86.0,292.0,93.5,291.5" stroke="black" stroke-width="2" fill="none" />
<polyline points="91.5,288.5,99.5,288.0" stroke="black" stroke-width="2" fill="none" />
<polyline points="104.5,283.0,96.0,283.5,88.5,284.0,80.5,284.5" stroke="black" stroke-width="2" fill="none" />
<polyline points="77.0,268.5,85.0,260.5" stroke="black" stroke-width="2" fill="none" />
<polyline points="89.5,258.0,97.5,257.0" stroke="black" stroke-width="2" fill="none" />
<polyline points="90.0,257.5,97.5,250.0,105.5,243.0,113.5,235.5" stroke="black" stroke-width="2" fill="none" />
<polyline points="108.0,235.5,115.5,235.0,123.5,235.0,131.5,234.5" stroke="black" stroke-width="2" fill="none" />
<polyline points="137.0,236.5,145.0,229.5,153.0,222.0" stroke="black" stroke-width="2" fill="none" />
<polyline points="156.0,225.5,147.5,226.0" stroke="black" stroke-width="2" fill="none" />
<polyline points="155.5,229.0,147.5,236.5" stroke="black" stroke-width="2" fill="none" />
<polyline points="141.5,237.5,149.0,237.0,157.0,236.5" stroke="black" stroke-width="2" fill="none" />
<polyline points="155.0,234.5,163.0,228.0,171.5,220.5,180.0,213.0" stroke="black" stroke-width="2" fill="none" />
<polyline points="180.5,206.0,189.0,205.5,197.0,205.0" stroke="black" stroke-width="2" fill="none" />
<polyline points="202.5,194.0,210.5,187.0,218.0,179.5,225.5,171.5,233.5,164.5,241.0,157.0" stroke="black" stroke-width="2" fill="none" />
<polyline points="234.5,153.5,226.5,161.0,219.0,168.5" stroke="black" stroke-width="2" fill="none" />
<polyline points="219.5,166.5,227.5,165.5,234.5,165.0" stroke="black" stroke-width="2" fill="none" />
<polyline points="234.5,170.0,226.5,170.5" stroke="black" stroke-width="2" fill="none" />
<polyline points="226.0,178.0,218.0,185.5,210.0,193.5" stroke="black" stroke-width="2" fill="none" />
<polyline points="212.5,190.5,210.0,199.0,208.0,207.0,206.5,215.0,205.5,222.5,204.0,230.5,203.0,238.5,202.0,246.0,200.5,254.0,200.5,262.0,201.5,265.0" stroke="black" stroke-width="2" fill="none" />
<polyline points="203.0,229.0,211.0,229.0,219.0,229.0" stroke="black" stroke-width="2" fill="none" />
<polyline points="219.5,222.5,211.0,223.0,203.0,223.5" stroke="black" stroke-width="2" fill="none" />
<polyline points="211.5,201.5,220.0,194.0" stroke="black" stroke-width="2" fill="none" />
<polyline points="219.0,198.0,210.5,198.5" stroke="black" stroke-width="2" fill="none" />
<polyline points="210.5,186.0,218.5,186.0" stroke="black" stroke-width="2" fill="none" />
<polyline points="222.0,184.0,230.0,172.0,238.0,164.0,247.0,154.0,256.0,146.5,264.0,138.5,272.5,130.5,280.5,123.0,288.5,115.0,296.5,105.0,304.5,95.5,312.5,80.0" stroke="black" stroke-width="2" fill="none" />
<polyline points="315.5,77.5,307.0,78.0" stroke="black" stroke-width="2" fill="none" />
<polyline points="307.0,70.0,315.0,69.5" stroke="black" stroke-width="2" fill="none" />
<polyline points="315.5,60.0,307.5,60.0" stroke="black" stroke-width="2" fill="none" />
<polyline points="306.5,50.5,298.5,50.5,290.5,50.0,283.0,50.5,274.5,50.0,266.5,50.5,258.5,51.0,250.5,51.0,242.5,51.5" stroke="black" stroke-width="2" fill="none" />
<polyline points="242.5,59.5,234.5,60.0,226.5,60.0,218.5,61.0" stroke="black" stroke-width="2" fill="none" />
<polyline points="219.0,66.0,211.0,73.5" stroke="black" stroke-width="2" fill="none" />
<polyline points="213.0,73.5,220.5,72.5" stroke="black" stroke-width="2" fill="none" />
<polyline points="218.5,73.0,210.5,80.5,203.0,88.5,195.5,96.5,187.5,104.5" stroke="black" stroke-width="2" fill="none" />
<polyline points="188.5,101.0,196.5,100.5,205.0,100.0,213.5,100.0" stroke="black" stroke-width="2" fill="none" />
<polyline points="213.0,92.0,205.5,100.0,197.0,108.0" stroke="black" stroke-width="2" fill="none" />
<polyline points="203.0,107.0,195.5,107.5,188.0,108.0,180.5,108.5" stroke="black" stroke-width="2" fill="none" />
<polyline points="189.5,124.0,198.0,123.5" stroke="black" stroke-width="2" fill="none" />
<polyline points="197.0,116.5,204.5,116.5" stroke="black" stroke-width="2" fill="none" />
<polyline points="200.5,100.5,196.5,108.5,192.5,116.5,189.0,124.0,185.5,131.5,183.5,139.5,179.0,147.5,169.5,155.5,174.5,163.5,178.5,171.5,180.5,180.0,184.5,192.0,187.0,195.5" stroke="black" stroke-width="2" fill="none" />
<polyline points="186.0,195.5,194.0,195.5,202.5,195.5" stroke="black" stroke-width="2" fill="none" />
<polyline points="195.5,190.0,203.5,190.0,211.5,189.5,219.5,189.5,228.0,189.0" stroke="black" stroke-width="2" fill="none" />
<polyline points="228.0,177.0,220.5,177.5" stroke="black" stroke-width="2" fill="none" />
<polyline points="212.0,173.5,220.0,172.5,228.0,172.0,236.0,171.5" stroke="black" stroke-width="2" fill="none" />
<polyline points="236.0,161.5,228.0,162.5" stroke="black" stroke-width="2" fill="none" />
<polyline points="228.5,158.5,236.0,158.0,244.0,157.0" stroke="black" stroke-width="2" fill="none" />
<polyline points="243.5,148.0,251.5,147.0" stroke="black" stroke-width="2" fill="none" />
<polyline points="253.5,140.0,261.5,139.5" stroke="black" stroke-width="2" fill="none" />
<polyline points="258.5,134.5,266.5,134.0" stroke="black" stroke-width="2" fill="none" />
<polyline points="267.0,126.5,275.0,125.5" stroke="black" stroke-width="2" fill="none" />
<polyline points="277.0,117.0,285.0,117.0" stroke="black" stroke-width="2" fill="none" />
<polyline points="283.0,114.5,291.0,107.0,299.5,99.5" stroke="black" stroke-width="2" fill="none" />
<polyline points="300.0,93.0,308.0,93.0" stroke="black" stroke-width="2" fill="none" />
<polyline points="305.5,85.5,298.0,86.5" stroke="black" stroke-width="2" fill="none" />
<polyline points="297.0,100.5,289.0,101.0" stroke="black" stroke-width="2" fill="none" />
<polyline points="292.0,109.0,283.5,110.0" stroke="black" stroke-width="2" fill="none" />
<polyline points="292.5,122.0,283.5,130.0,281.5,130.5,289.5,124.5" stroke="black" stroke-width="2" fill="none" />
<polyline points="285.0,133.5,293.0,133.0,300.0,132.5" stroke="black" stroke-width="2" fill="none" />
<polyline points="290.5,137.0,282.5,145.0" stroke="black" stroke-width="2" fill="none" />
<polyline points="282.0,145.0,290.5,130.0,293.5,128.0,286.0,136.0,282.5,144.0,279.5,152.0,277.0,160.0,272.5,168.0,270.5,176.0,267.5,183.0,263.0,191.0,259.5,199.0,255.5,207.0,250.5,215.0,244.5,223.0,238.5,230.5,228.5,238.5" stroke="black" stroke-width="2" fill="none" />
<polyline points="180.0,213.5,172.5,213.5,164.5,214.5" stroke="black" stroke-width="2" fill="none" />
<polyline points="160.5,217.0,168.5,216.5,176.5,208.5" stroke="black" stroke-width="2" fill="none" />
<polyline points="175.0,226.5,183.0,235.5" stroke="black" stroke-width="2" fill="none" />
<polyline points="174.5,239.0,167.0,245.5,159.0,250.0,151.0,255.0,143.5,258.5,135.0,263.5,127.0,268.5,119.0,272.5,110.5,278.0,114.5,276.0,127.5,268.5,140.0,261.0,154.0,253.0,166.5,245.5,174.5,237.5,169.5,229.5" stroke="black" stroke-width="2" fill="none" />
<polyline points="155.0,214.0,147.0,214.5" stroke="black" stroke-width="2" fill="none" />
<polyline points="149.5,210.5,157.0,226.0,160.0,218.0,159.0,226.0" stroke="black" stroke-width="2" fill="none" />
<polyline points="145.5,205.5,137.5,205.5" stroke="black" stroke-width="2" fill="none" />
<polyline points="138.0,197.5,146.5,197.0" stroke="black" stroke-width="2" fill="none" />
<polyline points="139.0,193.0,146.5,186.0" stroke="black" stroke-width="2" fill="none" />
<polyline points="149.5,187.0,141.0,187.0" stroke="black" stroke-width="2" fill="none" />
<polyline points="139.0,185.5,147.0,178.5" stroke="black" stroke-width="2" fill="none" />
<polyline points="148.5,180.5,140.5,180.5" stroke="black" stroke-width="2" fill="none" />
<polyline points="140.0,173.0,147.5,172.5" stroke="black" stroke-width="2" fill="none" />
<polyline points="138.5,170.0,146.5,162.5" stroke="black" stroke-width="2" fill="none" />
<polyline points="148.5,165.0,140.5,166.0" stroke="black" stroke-width="2" fill="none" />
<polyline points="140.0,155.5,148.5,154.5" stroke="black" stroke-width="2" fill="none" />
<polyline points="141.5,152.0,142.5,160.0,144.5,167.5,144.5,175.5,146.5,183.5,146.5,191.5,146.5,199.0,148.5,207.5,150.5,215.5,155.5,223.0" stroke="black" stroke-width="2" fill="none" />
<polyline points="148.5,243.0,141.5,244.0,133.5,245.0" stroke="black" stroke-width="2" fill="none" />
<polyline points="138.0,251.0,129.5,251.5,121.5,252.0" stroke="black" stroke-width="2" fill="none" />
<polyline points="116.0,245.0,108.0,245.0,99.5,245.5" stroke="black" stroke-width="2" fill="none" />
<polyline points="107.0,251.5,99.0,252.0,91.0,252.5,83.0,253.0,75.5,253.5" stroke="black" stroke-width="2" fill="none" />
<polyline points="78.0,258.5,86.0,251.0" stroke="black" stroke-width="2" fill="none" />
<polyline points="78.0,243.0,86.0,236.0" stroke="black" stroke-width="2" fill="none" />
<polyline points="83.0,227.5,75.0,234.5" stroke="black" stroke-width="2" fill="none" />
<polyline points="75.0,237.5,83.0,237.0" stroke="black" stroke-width="2" fill="none" />
<polyline points="82.0,244.5,74.0,245.0" stroke="black" stroke-width="2" fill="none" />
<polyline points="77.5,231.0,85.0,230.0" stroke="black" stroke-width="2" fill="none" />
<polyline points="84.5,222.5,76.5,223.5" stroke="black" stroke-width="2" fill="none" />
<polyline points="76.5,223.5,84.5,199.0,92.5,183.0,100.5,171.0,108.5,167.0,116.0,167.0" stroke="black" stroke-width="2" fill="none" />
<polyline points="113.5,168.5,121.5,176.5,122.5,184.5,121.5,192.0,120.5,199.5,118.5,207.5,114.5,215.0" stroke="black" stroke-width="2" fill="none" />
<polyline points="116.5,207.5,124.5,207.5" stroke="black" stroke-width="2" fill="none" />
<polyline points="115.5,201.5,124.0,193.5" stroke="black" stroke-width="2" fill="none" />
<polyline points="116.0,186.5,124.0,179.0" stroke="black" stroke-width="2" fill="none" />
<polyline points="116.5,177.5,124.5,170.0" stroke="black" stroke-width="2" fill="none" />
<polyline points="122.5,172.0,114.5,172.5" stroke="black" stroke-width="2" fill="none" />
<polyline points="113.5,175.0,116.0,183.0,116.0,191.0,113.5,199.0,113.5,207.0,111.5,215.0" stroke="black" stroke-width="2" fill="none" />
<polyline points="114.0,200.0,122.0,199.5" stroke="black" stroke-width="2" fill="none" />
<polyline points="121.5,191.0,113.5,191.5" stroke="black" stroke-width="2" fill="none" />
<polyline points="113.0,181.0,121.0,180.5" stroke="black" stroke-width="2" fill="none" />
<polyline points="108.0,171.5,100.5,179.5" stroke="black" stroke-width="2" fill="none" />
<polyline points="100.5,174.0,108.5,173.0" stroke="black" stroke-width="2" fill="none" />
<polyline points="106.0,165.0,114.0,165.0,122.5,164.5" stroke="black" stroke-width="2" fill="none" />
<polyline points="104.5,163.5,99.5,172.0,93.5,179.5,90.0,187.5,86.0,195.5,83.5,203.5,80.0,211.5,78.0,219.0,76.0,227.0,75.0,235.0,73.5,243.5,73.5,251.0,74.0,259.0,67.0,267.0,55.0,275.0,43.0,283.0,30.5,291.5,19.5,299.5,11.0,301.5,9.0,308.0,3.5,314.0,11.5,306.0,19.5,299.5,27.5,294.5,35.0,289.0,43.0,283.0,51.5,278.0,59.5,273.0,67.5,267.0" stroke="black" stroke-width="2" fill="none" />
<polyline points="66.5,262.0,74.5,261.5,83.0,261.0,91.0,261.5" stroke="black" stroke-width="2" fill="none" />
<polyline points="108.0,269.0,116.0,268.0,124.0,267.5,132.5,267.5,140.5,267.0" stroke="black" stroke-width="2" fill="none" />
<polyline points="149.5,261.0,141.5,262.0,133.5,262.5,125.0,263.0,116.5,264.0" stroke="black" stroke-width="2" fill="none" />
<polyline points="116.5,241.5,124.5,234.0" stroke="black" stroke-width="2" fill="none" />
<polyline points="127.5,234.0,140.5,226.0,143.5,217.5,141.5,209.5,139.5,201.5,138.0,193.5,138.0,185.5,138.0,177.5,136.0,169.0,135.5,161.0,137.0,153.0,137.5,150.0" stroke="black" stroke-width="2" fill="none" />
<polyline points="120.5,133.0,112.5,138.0" stroke="black" stroke-width="2" fill="none" />
<polyline points="105.5,131.5,113.0,123.5" stroke="black" stroke-width="2" fill="none" />
<polyline points="116.5,117.0,124.5,116.0" stroke="black" stroke-width="2" fill="none" />
<polyline points="124.5,109.5,132.5,109.0,140.5,108.5" stroke="black" stroke-width="2" fill="none" />
<polyline points="147.5,99.5,139.5,100.5,131.5,101.0" stroke="black" stroke-width="2" fill="none" />
<polyline points="147.5,94.5,155.5,94.0,163.5,94.0" stroke="black" stroke-width="2" fill="none" />
<polyline points="164.0,85.0,172.0,84.5,180.5,84.0" stroke="black" stroke-width="2" fill="none" />
<polyline points="179.5,78.0,187.0,77.0,195.0,76.5" stroke="black" stroke-width="2" fill="none" />
<polyline points="202.5,73.5,186.5,81.5,170.0,90.0,157.0,97.5,143.0,105.5,131.0,113.5,119.0,121.5,110.0,129.5,101.5,137.0,94.0,145.0,86.0,152.5,79.5,160.5,74.0,168.5,70.0,176.0,66.0,184.0,64.0,192.0,62.0,200.0,60.0,208.0,60.0,216.0,57.0,221.5" stroke="black" stroke-width="2" fill="none" />
<polyline points="59.5,213.5,52.0,214.0" stroke="black" stroke-width="2" fill="none" />
<polyline points="52.5,210.5,60.5,202.5" stroke="black" stroke-width="2" fill="none" />
<polyline points="60.0,205.0,51.5,205.5" stroke="black" stroke-width="2" fill="none" />
<polyline points="52.5,197.5,60.5,197.0,67.5,197.0" stroke="black" stroke-width="2" fill="none" />
<polyline points="68.5,190.0,60.5,190.5" stroke="black" stroke-width="2" fill="none" />
<polyline points="59.0,186.0,66.5,178.5" stroke="black" stroke-width="2" fill="none" />
<polyline points="68.5,181.5,60.5,182.0" stroke="black" stroke-width="2" fill="none" />
<polyline points="65.5,184.0,73.5,168.0,81.5,158.0,89.5,148.0,97.0,140.0,105.0,132.5,113.0,126.5,121.0,120.5,129.5,114.5,138.5,109.0,146.5,104.0,154.5,99.0,162.0,94.5,170.0,90.0,177.5,86.0,185.5,82.0,193.5,77.5,201.5,73.5,209.5,70.0,209.5,76.0,201.5,84.0,195.0,91.5,188.0,100.0,182.0,108.0,181.5,116.0,187.0,101.5,195.0,93.0,203.0,85.0,210.5,75.5" stroke="black" stroke-width="2" fill="none" />
<polyline points="211.5,76.5,219.5,76.0" stroke="black" stroke-width="2" fill="none" />
<polyline points="221.0,68.0,229.0,65.0,237.0,63.0,244.5,61.0,252.5,59.5,260.5,57.5,269.0,55.0,277.5,56.0,285.5,55.5,293.5,55.0,301.5,58.0" stroke="black" stroke-width="2" fill="none" />
<polyline points="297.5,58.5,307.0,66.5,308.0,74.5,304.5,82.5,298.5,90.5,293.0,98.5,287.0,106.5,281.0,114.5,272.5,122.0,266.5,129.5,258.5,138.0,249.5,145.5,240.5,153.5,234.5,159.5,242.5,151.5,250.5,145.5,258.5,137.5,266.0,130.0,274.0,120.0,282.0,110.0,290.0,101.5,298.0,90.0,305.5,77.0" stroke="black" stroke-width="2" fill="none" />
<polyline points="309.5,60.5,302.0,54.0,294.5,52.0,286.0,52.0,278.5,51.5,270.5,51.5,262.0,51.5,254.0,51.5,246.0,53.0,238.0,56.0,230.0,58.0,222.0,61.5,214.0,63.5,206.0,67.5,198.0,70.0,190.0,72.5,182.0,76.5,173.5,80.5,166.0,84.5,158.0,90.0,149.5,95.5,141.5,99.5,133.0,105.5,125.5,109.5,117.5,116.0,109.5,121.0,101.5,129.0,93.5,136.0,85.5,142.5,77.0,152.5,69.0,163.5,61.0,178.5,53.0,197.5" stroke="black" stroke-width="2" fill="none" />
<polyline points="60.5,174.5,68.0,174.0,75.5,173.5" stroke="black" stroke-width="2" fill="none" />
<polyline points="67.5,170.0,75.5,162.0,83.0,154.0" stroke="black" stroke-width="2" fill="none" />
<polyline points="84.0,158.5,76.0,159.0" stroke="black" stroke-width="2" fill="none" />
<polyline points="77.5,151.0,85.5,150.5,93.0,149.5" stroke="black" stroke-width="2" fill="none" />
<polyline points="85.0,142.0,93.0,141.5,100.5,141.0" stroke="black" stroke-width="2" fill="none" />
<polyline points="105.5,133.0,97.5,133.0,89.5,133.5" stroke="black" stroke-width="2" fill="none" />
<polyline points="100.0,123.5,108.0,123.5,116.0,123.0" stroke="black" stroke-width="2" fill="none" />
<polyline points="171.0,157.0,179.0,157.0,186.5,156.5" stroke="black" stroke-width="2" fill="none" />
<polyline points="186.5,155.0,178.0,162.5" stroke="black" stroke-width="2" fill="none" />
<polyline points="180.5,160.5,189.0,159.5" stroke="black" stroke-width="2" fill="none" />
<polyline points="187.5,161.0,179.5,169.0" stroke="black" stroke-width="2" fill="none" />
<polyline points="180.0,165.0,187.5,164.5" stroke="black" stroke-width="2" fill="none" />
<polyline points="188.5,156.5,196.5,149.5,202.5,145.0,191.5,152.5,188.0,160.5,188.0,168.0,188.0,176.0,192.0,184.0,196.5,185.0" stroke="black" stroke-width="2" fill="none" />
<polyline points="205.0,184.5,213.5,184.0,221.5,183.0,229.5,182.5" stroke="black" stroke-width="2" fill="none" />
<polyline points="233.0,158.0,233.5,150.0" stroke="black" stroke-width="2" fill="none" />
<polyline points="237.0,148.0,229.5,148.5" stroke="black" stroke-width="2" fill="none" />
<polyline points="224.0,144.5,227.0,150.5,223.0,158.5,219.0,166.5,215.0,174.5,207.0,182.5,199.0,190.5,191.5,198.5,181.5,206.5,171.5,214.5,180.5,207.5,188.0,201.0,196.5,194.0,204.5,186.5,213.0,178.5,220.5,166.5,228.5,149.5,240.0,147.0,243.0,147.0" stroke="black" stroke-width="2" fill="none" />
<polyline points="282.0,150.0,290.0,149.5" stroke="black" stroke-width="2" fill="none" />
<polyline points="290.0,146.0,282.0,153.5" stroke="black" stroke-width="2" fill="none" />
<polyline points="285.5,141.0,293.0,140.5" stroke="black" stroke-width="2" fill="none" />
<polyline points="330.0,141.0,338.0,140.0" stroke="black" stroke-width="2" fill="none" />
<polyline points="339.0,133.0,331.5,133.5" stroke="black" stroke-width="2" fill="none" />
<polyline points="338.5,124.0,346.5,123.0" stroke="black" stroke-width="2" fill="none" />
<polyline points="347.5,117.0,339.5,124.0" stroke="black" stroke-width="2" fill="none" />
<polyline points="340.5,118.5,348.0,117.5" stroke="black" stroke-width="2" fill="none" />
<polyline points="348.5,107.5,356.5,100.0" stroke="black" stroke-width="2" fill="none" />
<polyline points="357.5,101.0,349.5,102.0" stroke="black" stroke-width="2" fill="none" />
<polyline points="348.5,93.5,356.5,93.0,364.5,92.5" stroke="black" stroke-width="2" fill="none" />
<polyline points="354.5,88.5,362.5,81.0" stroke="black" stroke-width="2" fill="none" />
<polyline points="363.5,74.5,371.5,67.0" stroke="black" stroke-width="2" fill="none" />
<polyline points="371.5,58.5,380.0,51.0" stroke="black" stroke-width="2" fill="none" />
<polyline points="379.0,53.0,371.5,53.5" stroke="black" stroke-width="2" fill="none" />
<polyline points="369.5,47.0,377.5,46.0,386.5,45.0" stroke="black" stroke-width="2" fill="none" />
<polyline points="380.0,42.0,388.5,34.5" stroke="black" stroke-width="2" fill="none" />
<polyline points="387.0,37.0,379.5,37.5" stroke="black" stroke-width="2" fill="none" />
<polyline points="379.5,29.5,387.5,29.0,395.0,28.5" stroke="black" stroke-width="2" fill="none" />
<polyline points="380.0,60.0,372.0,60.5,363.5,61.0" stroke="black" stroke-width="2" fill="none" />
<polyline points="362.5,68.0,370.5,67.5" stroke="black" stroke-width="2" fill="none" />
<polyline points="364.0,84.0,356.0,84.0" stroke="black" stroke-width="2" fill="none" />
<polyline points="353.0,76.0,361.0,76.0,369.0,76.0" stroke="black" stroke-width="2" fill="none" />
<polyline points="355.5,111.0,347.5,111.0,339.5,111.5" stroke="black" stroke-width="2" fill="none" />
<polyline points="299.5,52.0,309.5,60.0,312.0,68.5,312.0,76.5,309.0,84.5,304.0,92.5,298.5,100.5,291.5,108.5,285.0,116.5,277.0,124.0,269.5,132.0,261.0,140.0,253.5,148.0,246.0,156.0,240.0,164.5,232.0,172.5,226.0,180.5,222.5,188.5,218.5,196.5,218.5,204.5,216.5,213.0,216.5,221.0,216.5,229.0,216.5,237.0,218.5,239.0,226.5,243.0,234.0,237.0,242.0,229.0,250.5,217.0,258.5,203.0,266.5,185.5" stroke="black" stroke-width="2" fill="none" />
<polyline points="290.5,219.5,280.5,227.5,288.0,222.5" stroke="black" stroke-width="2" fill="none" />
<polyline points="194.5,179.5,186.0,179.5" stroke="black" stroke-width="2" fill="none" />
<polyline points="177.5,173.5,185.5,173.0,194.0,172.5" stroke="black" stroke-width="2" fill="none" />
<polyline points="181.0,156.5,189.0,149.0,196.5,141.0" stroke="black" stroke-width="2" fill="none" />
<polyline points="204.0,140.5,195.5,141.0,188.0,141.0" stroke="black" stroke-width="2" fill="none" />
<polyline points="189.5,134.0,197.5,133.0" stroke="black" stroke-width="2" fill="none" />
<polyline points="197.0,147.0,189.0,147.5,181.5,148.0" stroke="black" stroke-width="2" fill="none" />
<polyline points="172.0,155.5,179.5,149.5,188.0,128.5,196.0,109.0,206.0,101.0,214.0,86.0" stroke="black" stroke-width="2" fill="none" />
<polyline points="212.5,90.5,204.5,91.0" stroke="black" stroke-width="2" fill="none" />
<polyline points="202.0,86.0,210.0,85.5,218.0,85.5" stroke="black" stroke-width="2" fill="none" />
<polyline points="210.5,92.0,202.5,93.0,194.5,93.5" stroke="black" stroke-width="2" fill="none" />
<polyline points="199.0,99.5,191.5,107.5,185.5,115.0,186.0,114.0,194.0,103.5" stroke="black" stroke-width="2" fill="none" />
<polyline points="195.0,67.0,203.0,67.0,211.0,66.5,218.5,66.0,226.5,65.5" stroke="black" stroke-width="2" fill="none" />
<polyline points="231.0,57.0,220.5,69.0,218.5,77.0,215.5,84.5,210.5,92.5,206.5,100.5,202.5,108.5,198.5,116.5,196.5,124.0,193.0,132.0,190.5,139.5,196.0,139.0" stroke="black" stroke-width="2" fill="none" />
<polyline points="171.5,160.5,179.5,169.5,187.5,185.5" stroke="black" stroke-width="2" fill="none" />
<polyline points="140.0,225.5,132.0,230.5,124.0,234.5,116.0,239.0,108.0,238.0,100.0,245.5,92.0,251.5,84.0,257.0,80.0,253.5,80.5,245.5,80.5,237.5,82.5,229.5,85.0,221.5,87.0,213.5,90.0,205.5,93.0,197.5,96.5,189.5,101.5,181.5,109.5,173.5,108.5,174.5,100.5,182.0,92.0,196.0" stroke="black" stroke-width="2" fill="none" />
<polyline points="90.0,191.5,98.5,191.0" stroke="black" stroke-width="2" fill="none" />
<polyline points="97.0,183.5,89.0,184.0" stroke="black" stroke-width="2" fill="none" />
<polyline points="90.5,197.5,82.0,198.5" stroke="black" stroke-width="2" fill="none" />
<polyline points="82.0,204.5,90.0,204.5" stroke="black" stroke-width="2" fill="none" />
<polyline points="90.5,214.5,82.5,215.0,74.5,216.0" stroke="black" stroke-width="2" fill="none" />
<polyline points="57.0,228.5,51.0,223.5,53.0,215.5,52.0,207.5,53.5,199.5,56.0,191.0,60.0,183.0,62.5,175.0,66.5,167.0,72.0,159.0,78.0,151.0,83.5,143.0,93.0,135.0,102.5,127.0,112.5,119.0,122.5,111.5,135.0,103.5,147.5,95.5,160.0,88.5,175.0,80.5,183.0,72.5,177.0,70.5" stroke="black" stroke-width="2" fill="none" />
<polyline points="74.0,167.0,66.0,167.5" stroke="black" stroke-width="2" fill="none" />
<polyline points="107.0,237.5,99.5,245.5,88.5,254.0" stroke="black" stroke-width="2" fill="none" />
<polyline points="74.5,269.5,66.5,270.0,58.5,270.5" stroke="black" stroke-width="2" fill="none" />
<polyline points="61.5,278.0,53.5,278.5,46.0,278.5" stroke="black" stroke-width="2" fill="none" />
<polyline points="51.5,285.0,43.5,286.0,36.0,286.5" stroke="black" stroke-width="2" fill="none" />
<polyline points="35.0,292.5,27.0,293.0,19.0,294.0" stroke="black" stroke-width="2" fill="none" />
<polyline points="25.0,288.5,33.0,286.0" stroke="black" stroke-width="2" fill="none" />
<polyline points="28.0,299.5,19.5,300.0,12.0,300.5" stroke="black" stroke-width="2" fill="none" />
<polyline points="11.0,308.0,3.0,315.5" stroke="black" stroke-width="2" fill="none" />
<polyline points="4.5,308.5,12.5,308.0,20.5,307.0" stroke="black" stroke-width="2" fill="none" />
<polyline points="12.5,298.5,4.0,297.5" stroke="black" stroke-width="2" fill="none" />
<polyline points="125.5,241.5,111.5,249.5,100.0,257.5,91.5,265.0,73.0,273.0,58.0,281.0,46.0,288.5,35.5,296.5,24.5,304.5,15.0,312.0,12.5,314.0,20.0,308.0,28.0,301.0,35.5,296.0,43.0,290.0,51.0,285.0,60.0,280.0,68.0,275.0,76.0,271.0,84.0,267.0,92.0,264.0,100.0,257.0,108.0,251.5,116.0,246.5,124.0,243.0,131.5,240.0,139.5,237.0,147.5,235.0" stroke="black" stroke-width="2" fill="none" />
<polyline points="445.0,78.0,452.5,77.5,460.5,77.0" stroke="black" stroke-width="2" fill="none" />
<polyline points="457.5,70.0,449.5,71.0" stroke="black" stroke-width="2" fill="none" />
<polyline points="474.0,79.0,482.5,78.5,491.0,77.5" stroke="black" stroke-width="2" fill="none" />
<polyline points="484.5,77.0,492.0,69.5" stroke="black" stroke-width="2" fill="none" />
<polyline points="493.0,70.5,485.0,71.5" stroke="black" stroke-width="2" fill="none" />
<polyline points="478.5,73.0,486.5,59.0,494.5,57.5,486.0,61.5,481.5,69.5,478.5,77.5,475.5,85.5,472.0,93.5,469.5,101.5,471.5,110.0,475.5,112.0,483.5,112.0,491.5,110.0,499.0,104.0,507.0,92.0,512.0,74.0,511.0,81.5,508.0,90.0,502.5,98.0,496.5,106.0" stroke="black" stroke-width="2" fill="none" />
<polyline points="492.5,107.5,500.5,99.5,507.5,92.0" stroke="black" stroke-width="2" fill="none" />
<polyline points="508.5,94.5,501.0,95.0" stroke="black" stroke-width="2" fill="none" />
<polyline points="499.5,86.0,507.5,85.5,516.0,85.0" stroke="black" stroke-width="2" fill="none" />
<polyline points="514.0,76.5,505.5,77.0" stroke="black" stroke-width="2" fill="none" />
<polyline points="507.5,69.0,515.5,68.5" stroke="black" stroke-width="2" fill="none" />
<polyline points="516.5,61.5,508.5,62.5" stroke="black" stroke-width="2" fill="none" />
<polyline points="507.5,53.5,515.5,53.0" stroke="black" stroke-width="2" fill="none" />
<polyline points="509.0,51.0,501.5,53.0" stroke="black" stroke-width="2" fill="none" />
<polyline points="498.5,58.5,504.5,56.0,508.0,64.5,508.5,73.0,506.5,81.0,501.5,88.5,496.5,96.5,482.0,104.5,485.0,104.0,493.0,100.5,500.5,89.5" stroke="black" stroke-width="2" fill="none" />
<polyline points="484.5,84.5,477.0,92.0" stroke="black" stroke-width="2" fill="none" />
<polyline points="474.0,95.5,482.5,94.5" stroke="black" stroke-width="2" fill="none" />
<polyline points="483.0,85.5,475.5,86.0" stroke="black" stroke-width="2" fill="none" />
<polyline points="479.5,85.0,488.0,70.5,494.0,59.5,490.5,68.0,487.0,76.0,483.0,84.5,479.5,92.0,478.0,100.0" stroke="black" stroke-width="2" fill="none" />
<polyline points="467.0,101.5,475.0,100.5,483.5,99.5,492.0,99.0,500.5,98.5" stroke="black" stroke-width="2" fill="none" />
<polyline points="491.0,110.0,483.5,110.5,475.5,111.0" stroke="black" stroke-width="2" fill="none" />
<polyline points="483.5,62.0,492.0,61.5,500.0,61.5" stroke="black" stroke-width="2" fill="none" />
</svg>