<svg xmlns="http://www.w3.org/2000/svg" version="1.1"><polyline points="3.5,3.0,3.0,11.0,3.0,18.0,3.0,26.0,3.5,33.5,3.5,41.5,4.0,49.5,3.5,58.0,3.5,66.0,4.0,74.5,4.0,82.5,4.0,90.5,4.5,98.5,4.5,106.0,4.0,113.5,3.5,121.0,3.5,129.0,3.0,137.5,2.5,145.5,2.0,153.0,2.0,161.5,2.0,169.5,2.0,178.0,2.5,186.5,2.5,195.0,2.5,203.0,2.5,211.5,3.0,219.5,3.0,227.0,3.5,235.0,3.5,242.5,3.5,250.5,3.5,259.0,3.0,266.5,3.0,274.5,3.0,282.0,3.0,290.0,2.5,297.5,2.0,305.0,2.0,313.5,13.0,310.5,21.5,303.5,29.5,297.5,38.0,292.5,46.0,286.5,54.5,281.5,62.5,276.5,70.5,271.5,78.5,268.0,86.5,266.0,94.5,262.0,102.5,254.0,110.5,248.0,119.0,243.0,127.0,240.5,135.0,237.5,143.0,236.0,151.0,234.0" stroke="black" stroke-width="2" fill="none" />
<polyline points="156.0,234.0,163.5,226.5,171.5,218.5,179.5,211.5" stroke="black" stroke-width="2" fill="none" />
<polyline points="181.0,207.5,188.5,207.5,196.5,206.5" stroke="black" stroke-width="2" fill="none" />
<polyline points="196.0,208.5,204.0,203.5,194.5,209.5,182.0,217.5,181.0,226.0,178.0,223.0,177.5,226.5,182.5,233.0" stroke="black" stroke-width="2" fill="none" />
<polyline points="188.5,235.5,180.5,243.0" stroke="black" stroke-width="2" fill="none" />
<polyline points="173.0,239.5,180.5,239.0,188.0,238.0" stroke="black" stroke-width="2" fill="none" />
<polyline points="202.5,237.0,210.5,236.5,218.5,236.0,227.0,235.5,235.0,234.0,243.0,233.5" stroke="black" stroke-width="2" fill="none" />
<polyline points="236.5,231.5,244.5,231.0,252.5,230.0" stroke="black" stroke-width="2" fill="none" />
<polyline points="250.0,220.5,258.0,213.0" stroke="black" stroke-width="2" fill="none" />
<polyline points="259.0,212.0,251.0,213.0" stroke="black" stroke-width="2" fill="none" />
<polyline points="257.5,204.5,266.0,204.5" stroke="black" stroke-width="2" fill="none" />
<polyline points="268.5,204.0,276.0,196.5" stroke="black" stroke-width="2" fill="none" />
<polyline points="274.5,193.0,267.0,193.0" stroke="black" stroke-width="2" fill="none" />
<polyline points="266.0,188.0,274.0,181.0,282.0,173.5" stroke="black" stroke-width="2" fill="none" />
<polyline points="283.5,173.0,275.5,173.0" stroke="black" stroke-width="2" fill="none" />
<polyline points="275.0,171.0,282.5,163.0" stroke="black" stroke-width="2" fill="none" />
<polyline points="283.0,157.5,291.5,150.5" stroke="black" stroke-width="2" fill="none" />
<polyline points="292.0,148.5,284.5,149.0" stroke="black" stroke-width="2" fill="none" />
<polyline points="282.5,148.0,290.0,140.0" stroke="black" stroke-width="2" fill="none" />
<polyline points="291.0,141.0,283.0,141.5" stroke="black" stroke-width="2" fill="none" />
<polyline points="283.0,135.5,290.5,135.0,298.0,134.5" stroke="black" stroke-width="2" fill="none" />
<polyline points="298.0,132.5,290.0,145.5" stroke="black" stroke-width="2" fill="none" />
<polyline points="291.0,155.5,282.5,156.5,274.0,157.0" stroke="black" stroke-width="2" fill="none" />
<polyline points="274.0,164.5,282.0,164.0" stroke="black" stroke-width="2" fill="none" />
<polyline points="282.0,179.5,274.0,180.0,265.5,180.5" stroke="black" stroke-width="2" fill="none" />
<polyline points="267.0,187.5,275.5,187.0,283.5,186.5" stroke="black" stroke-width="2" fill="none" />
<polyline points="275.0,187.0,267.0,194.5" stroke="black" stroke-width="2" fill="none" />
<polyline points="274.5,197.0,266.0,197.5,258.0,198.0" stroke="black" stroke-width="2" fill="none" />
<polyline points="260.0,196.0,251.5,200.5" stroke="black" stroke-width="2" fill="none" />
<polyline points="266.0,213.5,270.0,216.5,269.5,224.0,270.0,227.0" stroke="black" stroke-width="2" fill="none" />
<polyline points="273.0,214.5,281.5,214.5" stroke="black" stroke-width="2" fill="none" />
<polyline points="283.5,216.5,277.5,226.5,280.0,223.0,286.0,220.0,283.0,213.0,281.0,213.0,274.5,211.0,274.5,203.0,276.5,195.0,277.5,187.0,278.0,179.0,280.0,171.0,283.0,162.5,285.5,154.5,289.5,146.5,294.0,138.0,294.0,129.5,281.0,129.5" stroke="black" stroke-width="2" fill="none" />
<polyline points="277.0,130.5,284.0,133.5,282.0,141.5,279.5,149.5,276.5,158.0,274.0,166.0,268.0,167.0,268.0,175.0,267.0,183.0,264.5,191.0,260.5,199.0,252.5,202.0,249.0,210.0,248.5,218.0,241.5,224.5,233.5,226.0,230.0,235.5" stroke="black" stroke-width="2" fill="none" />
<polyline points="220.5,238.0,212.5,245.5" stroke="black" stroke-width="2" fill="none" />
<polyline points="212.0,249.5,204.0,257.5" stroke="black" stroke-width="2" fill="none" />
<polyline points="202.0,253.5,210.5,253.0" stroke="black" stroke-width="2" fill="none" />
<polyline points="212.0,262.0,204.0,262.5" stroke="black" stroke-width="2" fill="none" />
<polyline points="194.5,267.0,192.5,259.0" stroke="black" stroke-width="2" fill="none" />
<polyline points="177.0,252.5,171.0,260.5,167.5,259.0" stroke="black" stroke-width="2" fill="none" />
<polyline points="162.0,252.0,170.0,244.0" stroke="black" stroke-width="2" fill="none" />
<polyline points="168.0,243.5,160.5,247.5,152.0,250.5,148.0,252.0,139.5,260.5,131.5,264.5,122.5,270.0,138.5,262.0,144.0,254.0,148.0,249.0,162.5,245.5" stroke="black" stroke-width="2" fill="none" />
<polyline points="162.5,245.5,171.0,245.0,178.5,244.5" stroke="black" stroke-width="2" fill="none" />
<polyline points="171.5,229.5,179.5,229.0,187.5,228.5" stroke="black" stroke-width="2" fill="none" />
<polyline points="180.5,219.0,172.5,226.5" stroke="black" stroke-width="2" fill="none" />
<polyline points="179.0,213.0,171.5,213.5,163.5,214.0" stroke="black" stroke-width="2" fill="none" />
<polyline points="155.5,219.5,147.5,227.0,139.5,234.5" stroke="black" stroke-width="2" fill="none" />
<polyline points="140.5,236.5,149.0,236.0,156.5,235.5" stroke="black" stroke-width="2" fill="none" />
<polyline points="156.0,227.5,148.0,235.0" stroke="black" stroke-width="2" fill="none" />
<polyline points="147.5,227.5,155.5,226.5" stroke="black" stroke-width="2" fill="none" />
<polyline points="155.5,215.0,147.5,215.5" stroke="black" stroke-width="2" fill="none" />
<polyline points="151.0,212.5,159.0,221.0,163.5,217.0,171.5,216.0,178.0,205.0,179.0,210.0,185.0,202.5" stroke="black" stroke-width="2" fill="none" />
<polyline points="186.0,198.0,194.0,197.0,202.0,196.5" stroke="black" stroke-width="2" fill="none" />
<polyline points="204.0,194.0,212.0,186.0,220.5,178.0,228.5,170.0,236.5,162.5,244.0,155.0" stroke="black" stroke-width="2" fill="none" />
<polyline points="242.0,149.5,250.0,149.0" stroke="black" stroke-width="2" fill="none" />
<polyline points="250.0,141.0,258.0,140.0" stroke="black" stroke-width="2" fill="none" />
<polyline points="258.5,134.5,266.5,134.5" stroke="black" stroke-width="2" fill="none" />
<polyline points="266.0,125.0,273.5,125.0" stroke="black" stroke-width="2" fill="none" />
<polyline points="275.0,117.5,283.0,117.0" stroke="black" stroke-width="2" fill="none" />
<polyline points="283.0,115.0,291.0,107.5,299.5,100.0" stroke="black" stroke-width="2" fill="none" />
<polyline points="300.5,92.5,308.5,92.0" stroke="black" stroke-width="2" fill="none" />
<polyline points="309.0,84.0,301.5,84.0" stroke="black" stroke-width="2" fill="none" />
<polyline points="303.0,79.5,295.0,87.5,294.0,95.0,287.0,101.5,281.0,109.5,281.0,110.5,275.0,119.0,267.0,124.0,263.0,132.5,254.5,140.5,243.5,144.5,240.5,153.0,237.5,156.0,240.0,144.5,248.0,146.0,256.5,138.0,264.5,129.0,270.0,119.5,275.5,117.5,279.5,103.0,286.5,98.0,292.5,93.0,298.0,86.0,304.0,78.5" stroke="black" stroke-width="2" fill="none" />
<polyline points="309.0,78.5,317.5,77.5" stroke="black" stroke-width="2" fill="none" />
<polyline points="310.0,77.0,307.5,85.5,303.5,93.5,297.5,101.5,291.0,109.5,284.0,118.0,275.5,125.5,267.5,133.5,259.5,141.5,251.0,150.0,243.0,158.0,237.0,166.0,229.0,174.0,224.0,182.5,220.0,190.5,218.0,198.0,216.5,206.0,216.0,214.0,216.0,221.5,216.0,229.5,216.0,237.5,216.0,247.5" stroke="black" stroke-width="2" fill="none" />
<polyline points="219.5,245.0,227.5,245.0" stroke="black" stroke-width="2" fill="none" />
<polyline points="220.0,237.5,222.0,241.0,230.5,236.0,238.5,232.0,241.5,228.5,233.5,228.0,242.0,223.5,247.0,219.5" stroke="black" stroke-width="2" fill="none" />
<polyline points="242.0,221.5,250.5,220.5,258.5,220.0" stroke="black" stroke-width="2" fill="none" />
<polyline points="277.5,205.0,285.0,203.5" stroke="black" stroke-width="2" fill="none" />
<polyline points="287.0,208.0,279.0,207.0" stroke="black" stroke-width="2" fill="none" />
<polyline points="293.0,216.0,285.0,224.5,284.0,228.0,287.0,228.0,286.0,231.0" stroke="black" stroke-width="2" fill="none" />
<polyline points="304.5,219.0,312.5,211.5" stroke="black" stroke-width="2" fill="none" />
<polyline points="307.5,215.0,315.0,214.5,322.5,214.0,330.5,213.0" stroke="black" stroke-width="2" fill="none" />
<polyline points="331.5,202.5,323.5,210.0,316.0,217.5" stroke="black" stroke-width="2" fill="none" />
<polyline points="323.0,205.0,331.0,205.0" stroke="black" stroke-width="2" fill="none" />
<polyline points="330.5,196.0,338.5,195.5" stroke="black" stroke-width="2" fill="none" />
<polyline points="341.0,189.5,348.5,189.0" stroke="black" stroke-width="2" fill="none" />
<polyline points="340.0,187.0,348.5,180.0,357.5,172.5" stroke="black" stroke-width="2" fill="none" />
<polyline points="354.0,176.0,346.0,176.5" stroke="black" stroke-width="2" fill="none" />
<polyline points="350.0,177.5,345.0,185.5,341.0,193.5,336.0,201.5,331.5,209.5,324.5,217.5,314.0,228.5,320.0,227.5,320.0,231.0" stroke="black" stroke-width="2" fill="none" />
<polyline points="315.0,204.5,307.0,205.5" stroke="black" stroke-width="2" fill="none" />
<polyline points="306.0,196.5,314.0,196.0" stroke="black" stroke-width="2" fill="none" />
<polyline points="315.0,189.0,307.0,190.0" stroke="black" stroke-width="2" fill="none" />
<polyline points="315.5,180.5,323.5,180.5" stroke="black" stroke-width="2" fill="none" />
<polyline points="324.5,174.5,316.5,175.5" stroke="black" stroke-width="2" fill="none" />
<polyline points="316.0,168.0,324.0,167.0,331.5,166.5" stroke="black" stroke-width="2" fill="none" />
<polyline points="338.5,172.0,347.0,171.5,355.5,171.5" stroke="black" stroke-width="2" fill="none" />
<polyline points="345.5,170.5,353.5,163.5,361.5,156.5" stroke="black" stroke-width="2" fill="none" />
<polyline points="362.0,159.5,354.0,159.5" stroke="black" stroke-width="2" fill="none" />
<polyline points="355.0,157.5,363.0,156.5" stroke="black" stroke-width="2" fill="none" />
<polyline points="363.0,150.0,354.5,157.0" stroke="black" stroke-width="2" fill="none" />
<polyline points="357.0,150.0,364.5,149.5,372.0,148.5" stroke="black" stroke-width="2" fill="none" />
<polyline points="380.0,157.0,388.0,156.5,396.0,156.5,404.0,156.0,412.5,155.5" stroke="black" stroke-width="2" fill="none" />
<polyline points="414.5,156.0,413.5,164.0,408.0,164.5,416.0,158.0,417.5,169.0" stroke="black" stroke-width="2" fill="none" />
<polyline points="404.0,162.5,396.0,170.5" stroke="black" stroke-width="2" fill="none" />
<polyline points="395.5,165.0,387.0,172.0" stroke="black" stroke-width="2" fill="none" />
<polyline points="387.5,172.5,395.5,172.5" stroke="black" stroke-width="2" fill="none" />
<polyline points="403.0,163.0,394.5,163.5,386.5,164.0" stroke="black" stroke-width="2" fill="none" />
<polyline points="388.5,148.5,396.0,147.5" stroke="black" stroke-width="2" fill="none" />
<polyline points="400.5,147.5,409.0,147.0,417.5,147.0" stroke="black" stroke-width="2" fill="none" />
<polyline points="412.5,146.0,420.0,139.0" stroke="black" stroke-width="2" fill="none" />
<polyline points="420.5,141.0,412.5,141.5" stroke="black" stroke-width="2" fill="none" />
<polyline points="412.5,133.5,421.0,133.0,429.0,132.5" stroke="black" stroke-width="2" fill="none" />
<polyline points="420.5,130.0,428.5,123.0" stroke="black" stroke-width="2" fill="none" />
<polyline points="429.0,117.0,437.0,116.5" stroke="black" stroke-width="2" fill="none" />
<polyline points="432.0,111.5,440.5,98.5,448.5,82.5,456.0,70.5,464.0,56.0,471.5,45.0,479.0,34.0,487.0,26.0,495.0,16.0,503.0,7.5,511.0,2.5,512.0,10.5,512.5,19.0,512.5,27.0,513.0,35.0,513.0,43.0" stroke="black" stroke-width="2" fill="none" />
<polyline points="516.0,53.0,508.0,53.5" stroke="black" stroke-width="2" fill="none" />
<polyline points="506.5,55.5,507.5,61.5,506.5,70.0,505.0,77.5,510.0,79.5,507.0,87.0,503.0,95.0,496.5,102.5" stroke="black" stroke-width="2" fill="none" />
<polyline points="489.5,107.5,497.5,100.0,505.5,92.0" stroke="black" stroke-width="2" fill="none" />
<polyline points="501.5,91.0,509.5,90.5" stroke="black" stroke-width="2" fill="none" />
<polyline points="512.0,89.0,513.0,91.0,512.5,98.5,513.0,106.5,513.0,115.0,513.0,123.0,513.0,131.0,512.5,138.5,512.5,146.0,513.0,154.0,513.0,162.0,513.0,170.0,513.0,178.0,512.5,186.5,513.0,194.5,513.0,202.5,513.0,210.0,513.0,218.0,513.0,226.0,513.0,233.5,513.0,241.5,513.0,249.5,513.0,257.5,513.0,265.5,513.0,273.5,512.5,282.0,513.0,290.0,513.5,298.0,513.5,306.0,513.5,314.0" stroke="black" stroke-width="2" fill="none" />
<polyline points="493.0,109.0,484.5,110.0,476.5,110.0" stroke="black" stroke-width="2" fill="none" />
<polyline points="468.5,101.5,477.0,100.5,484.5,99.5,492.5,99.0,501.0,98.5" stroke="black" stroke-width="2" fill="none" />
<polyline points="498.5,86.5,507.0,85.5,515.5,83.5" stroke="black" stroke-width="2" fill="none" />
<polyline points="517.0,78.0,509.0,79.0" stroke="black" stroke-width="2" fill="none" />
<polyline points="509.0,70.0,516.5,69.5" stroke="black" stroke-width="2" fill="none" />
<polyline points="514.5,62.0,507.0,63.0" stroke="black" stroke-width="2" fill="none" />
<polyline points="492.0,68.0,484.5,76.0" stroke="black" stroke-width="2" fill="none" />
<polyline points="487.0,79.0,489.0,84.0,500.0,81.5,496.0,89.5,491.0,97.5,487.0,100.5,494.5,94.0,502.0,85.0,509.0,82.0" stroke="black" stroke-width="2" fill="none" />
<polyline points="482.5,82.5,474.5,90.5" stroke="black" stroke-width="2" fill="none" />
<polyline points="474.5,94.0,482.5,93.5" stroke="black" stroke-width="2" fill="none" />
<polyline points="482.5,86.0,474.5,86.5" stroke="black" stroke-width="2" fill="none" />
<polyline points="479.5,84.0,487.5,69.5,497.5,61.0" stroke="black" stroke-width="2" fill="none" />
<polyline points="491.0,70.0,483.5,70.5" stroke="black" stroke-width="2" fill="none" />
<polyline points="483.0,61.0,491.0,61.0,500.0,60.0" stroke="black" stroke-width="2" fill="none" />
<polyline points="509.0,49.5,501.0,50.0,493.0,53.0,485.5,57.0,482.5,64.0,474.5,76.0" stroke="black" stroke-width="2" fill="none" />
<polyline points="473.5,78.5,481.5,78.0,490.0,77.5" stroke="black" stroke-width="2" fill="none" />
<polyline points="468.0,62.0,460.5,62.0" stroke="black" stroke-width="2" fill="none" />
<polyline points="459.0,66.5,451.0,74.5" stroke="black" stroke-width="2" fill="none" />
<polyline points="452.0,71.5,459.5,71.0" stroke="black" stroke-width="2" fill="none" />
<polyline points="459.0,56.0,467.5,55.5" stroke="black" stroke-width="2" fill="none" />
<polyline points="470.0,46.0,478.0,45.5" stroke="black" stroke-width="2" fill="none" />
<polyline points="476.5,48.0,484.5,42.0,485.5,45.0" stroke="black" stroke-width="2" fill="none" />
<polyline points="482.5,37.0,474.5,38.0" stroke="black" stroke-width="2" fill="none" />
<polyline points="477.5,28.0,485.0,27.5,493.0,27.0" stroke="black" stroke-width="2" fill="none" />
<polyline points="491.0,30.0,501.5,18.0,499.5,24.0,492.5,28.0,483.0,41.5,476.0,49.5,485.0,58.5,481.0,66.0,476.0,74.5,473.5,83.0,470.5,91.0,468.5,97.0,465.5,104.5,469.0,110.0,474.5,114.5" stroke="black" stroke-width="2" fill="none" />
<polyline points="452.0,87.0,444.0,87.5" stroke="black" stroke-width="2" fill="none" />
<polyline points="444.5,79.0,452.5,78.0,460.5,77.5" stroke="black" stroke-width="2" fill="none" />
<polyline points="444.5,93.5,437.0,93.5" stroke="black" stroke-width="2" fill="none" />
<polyline points="436.5,102.5,444.5,102.0" stroke="black" stroke-width="2" fill="none" />
<polyline points="436.5,108.5,428.0,109.0" stroke="black" stroke-width="2" fill="none" />
<polyline points="426.5,123.5,418.5,124.0" stroke="black" stroke-width="2" fill="none" />
<polyline points="402.5,116.0,394.0,117.0" stroke="black" stroke-width="2" fill="none" />
<polyline points="394.5,108.5,402.5,108.5" stroke="black" stroke-width="2" fill="none" />
<polyline points="402.0,100.5,394.0,100.5" stroke="black" stroke-width="2" fill="none" />
<polyline points="392.5,94.5,400.5,93.5,409.0,93.0" stroke="black" stroke-width="2" fill="none" />
<polyline points="407.5,91.5,409.5,77.0" stroke="black" stroke-width="2" fill="none" />
<polyline points="413.0,71.5,421.5,71.0" stroke="black" stroke-width="2" fill="none" />
<polyline points="412.5,66.5,420.5,59.0" stroke="black" stroke-width="2" fill="none" />
<polyline points="418.0,52.5,426.0,51.5" stroke="black" stroke-width="2" fill="none" />
<polyline points="419.5,44.0,427.5,43.5,435.0,43.0" stroke="black" stroke-width="2" fill="none" />
<polyline points="428.0,41.0,436.0,33.0" stroke="black" stroke-width="2" fill="none" />
<polyline points="434.5,35.0,426.5,35.5" stroke="black" stroke-width="2" fill="none" />
<polyline points="435.0,25.5,427.0,29.5,420.0,39.5,417.5,38.5,413.0,52.5,407.0,54.5,403.5,50.5,411.5,49.0,418.5,45.0,424.5,37.5,429.0,29.5,425.5,22.0" stroke="black" stroke-width="2" fill="none" />
<polyline points="421.0,22.0,422.0,19.0,427.0,27.0,423.0,29.0,429.5,26.0,437.5,22.0" stroke="black" stroke-width="2" fill="none" />
<polyline points="453.5,51.5,462.0,48.5,468.0,35.0,474.5,23.0,479.0,26.5,485.0,17.5,493.0,11.5,498.5,5.5" stroke="black" stroke-width="2" fill="none" />
<polyline points="499.5,6.0,507.5,5.5" stroke="black" stroke-width="2" fill="none" />
<polyline points="507.0,12.5,499.0,13.0,490.5,14.0" stroke="black" stroke-width="2" fill="none" />
<polyline points="485.5,20.0,493.5,19.5,501.0,19.5" stroke="black" stroke-width="2" fill="none" />
<polyline points="500.5,4.0,490.5,11.0,486.5,17.0,481.5,24.0,475.0,32.0,473.0,29.0,471.0,37.5,466.5,42.5,459.5,50.5,452.5,57.0,455.5,61.5,451.5,67.5,446.0,75.5,433.0,82.0,434.0,88.0,437.5,89.0,434.0,97.0,427.0,103.5,425.0,110.5,419.0,118.5,418.0,125.5,414.0,133.5,410.0,140.5,402.5,146.5,401.5,153.5,394.0,161.5,395.0,160.5,401.5,149.5" stroke="black" stroke-width="2" fill="none" />
<polyline points="399.0,140.5,407.0,144.0,414.0,127.0,421.0,117.0,425.0,109.5,430.0,102.0,433.0,87.5,437.0,81.0,443.0,77.0" stroke="black" stroke-width="2" fill="none" />
<polyline points="420.0,62.0,412.5,62.5" stroke="black" stroke-width="2" fill="none" />
<polyline points="411.0,63.5,406.0,71.5,403.0,79.5,400.5,88.0,394.5,96.0,395.5,102.0,393.0,110.0,388.5,116.0,388.5,122.5,387.5,130.5,385.5,138.5,383.5,146.5,381.5,154.5,381.5,162.5,381.5,170.5,386.5,177.5" stroke="black" stroke-width="2" fill="none" />
<polyline points="387.0,148.0,395.0,140.5" stroke="black" stroke-width="2" fill="none" />
<polyline points="396.0,139.5,388.0,139.5" stroke="black" stroke-width="2" fill="none" />
<polyline points="388.5,132.5,396.0,132.5" stroke="black" stroke-width="2" fill="none" />
<polyline points="394.0,124.0,386.0,124.5" stroke="black" stroke-width="2" fill="none" />
<polyline points="368.0,127.5,358.5,135.5,359.5,140.5,355.5,145.0,351.5,153.0,343.5,162.5,343.5,169.5,339.0,177.5,334.0,185.5,323.0,187.5,325.5,194.0,329.0,200.0,321.0,208.0" stroke="black" stroke-width="2" fill="none" />
<polyline points="333.5,192.5,338.0,184.5" stroke="black" stroke-width="2" fill="none" />
<polyline points="339.0,181.0,347.0,180.5,355.0,180.0" stroke="black" stroke-width="2" fill="none" />
<polyline points="361.5,162.5,354.0,163.0,345.5,163.5" stroke="black" stroke-width="2" fill="none" />
<polyline points="331.0,155.5,323.0,163.0" stroke="black" stroke-width="2" fill="none" />
<polyline points="322.0,156.5,330.0,156.0" stroke="black" stroke-width="2" fill="none" />
<polyline points="328.5,156.5,336.5,138.0,344.5,121.0" stroke="black" stroke-width="2" fill="none" />
<polyline points="341.0,123.0,348.5,115.0" stroke="black" stroke-width="2" fill="none" />
<polyline points="350.0,108.0,358.5,100.0" stroke="black" stroke-width="2" fill="none" />
<polyline points="355.5,92.0,363.5,85.0" stroke="black" stroke-width="2" fill="none" />
<polyline points="362.5,83.5,355.0,84.0" stroke="black" stroke-width="2" fill="none" />
<polyline points="353.0,75.5,361.5,75.0,369.5,74.5" stroke="black" stroke-width="2" fill="none" />
<polyline points="370.5,69.0,362.5,76.0" stroke="black" stroke-width="2" fill="none" />
<polyline points="362.0,68.0,370.5,67.5" stroke="black" stroke-width="2" fill="none" />
<polyline points="372.0,60.5,380.5,52.5" stroke="black" stroke-width="2" fill="none" />
<polyline points="381.0,53.0,373.0,53.0" stroke="black" stroke-width="2" fill="none" />
<polyline points="374.0,43.0,381.5,43.0,389.0,42.5" stroke="black" stroke-width="2" fill="none" />
<polyline points="388.0,36.5,380.0,44.0" stroke="black" stroke-width="2" fill="none" />
<polyline points="380.0,36.5,388.5,36.5" stroke="black" stroke-width="2" fill="none" />
<polyline points="385.5,28.0,394.0,20.5" stroke="black" stroke-width="2" fill="none" />
<polyline points="394.0,19.5,386.0,20.5" stroke="black" stroke-width="2" fill="none" />
<polyline points="388.5,16.0,380.0,24.5,378.5,32.5,375.5,35.5,370.5,41.5,370.5,48.0,367.5,54.0,361.5,61.0,360.5,68.5,356.0,76.5,352.0,84.5,348.0,92.5,345.0,100.5,341.0,108.5,335.0,116.0,329.5,125.0,332.5,128.5,329.5,136.5,322.5,144.5,317.0,154.5,313.0,167.5,314.0,174.5,311.5,182.5,307.5,190.0,305.5,198.0,303.0,206.0,302.0,214.0,296.0,217.0,297.5,225.0,286.5,228.5,287.5,224.5,292.5,217.0,301.5,215.5,312.5,223.5,320.5,219.0,328.5,211.0,336.5,197.5,344.0,183.0" stroke="black" stroke-width="2" fill="none" />
<polyline points="344.5,146.5,343.5,154.5,347.5,162.5,347.0,157.5,350.0,159.0,356.5,144.5,360.5,136.0,366.0,132.5" stroke="black" stroke-width="2" fill="none" />
<polyline points="366.0,137.0,366.0,145.0,362.0,153.0,360.0,161.0,356.5,169.0,354.5,177.5,352.5,185.5,347.0,192.0,341.5,200.5,332.5,211.5,330.5,213.5,338.5,206.5,348.5,194.5" stroke="black" stroke-width="2" fill="none" />
<polyline points="329.5,147.5,321.5,147.5" stroke="black" stroke-width="2" fill="none" />
<polyline points="316.5,154.0,324.5,151.0,319.5,159.0,318.5,167.0" stroke="black" stroke-width="2" fill="none" />
<polyline points="331.5,140.5,340.0,140.0" stroke="black" stroke-width="2" fill="none" />
<polyline points="340.5,132.0,332.5,132.5" stroke="black" stroke-width="2" fill="none" />
<polyline points="339.5,126.0,347.5,125.0" stroke="black" stroke-width="2" fill="none" />
<polyline points="346.0,117.5,337.5,118.0" stroke="black" stroke-width="2" fill="none" />
<polyline points="333.0,122.5,334.0,112.5,342.5,110.5,356.5,96.0,364.5,79.0,372.5,62.5,380.5,49.0,388.0,34.0,398.0,24.0" stroke="black" stroke-width="2" fill="none" />
<polyline points="395.5,29.0,387.5,29.5,379.5,29.5" stroke="black" stroke-width="2" fill="none" />
<polyline points="391.0,16.5,382.5,20.0,378.5,25.5,375.0,31.0,372.0,39.0,365.5,47.5,363.5,55.5,355.5,58.5,355.5,65.0" stroke="black" stroke-width="2" fill="none" />
<polyline points="361.0,60.0,369.0,59.0,377.0,58.5" stroke="black" stroke-width="2" fill="none" />
<polyline points="403.5,67.0,411.5,55.0" stroke="black" stroke-width="2" fill="none" />
<polyline points="414.0,63.5,422.5,49.5,430.5,39.5,434.0,35.0,428.5,43.0,423.0,50.5,419.0,58.5,415.0,66.5,411.5,74.5,407.5,82.5,405.0,90.5,403.0,98.5,399.0,106.5,397.5,115.0,395.5,123.5,394.0,131.5,391.5,139.5,391.0,147.5,389.0,155.5,389.0,163.5,385.0,172.0,393.0,173.0,401.0,165.0,409.0,155.0,417.5,142.0,425.5,126.5,437.0,117.5" stroke="black" stroke-width="2" fill="none" />
<polyline points="411.0,84.5,402.5,85.0" stroke="black" stroke-width="2" fill="none" />
<polyline points="402.5,77.5,410.5,77.0" stroke="black" stroke-width="2" fill="none" />
<polyline points="355.5,100.0,347.5,100.5" stroke="black" stroke-width="2" fill="none" />
<polyline points="348.0,93.0,356.0,93.0,364.5,92.0" stroke="black" stroke-width="2" fill="none" />
<polyline points="354.5,108.5,347.0,109.0,339.0,110.0" stroke="black" stroke-width="2" fill="none" />
<polyline points="363.0,138.5,371.0,138.0" stroke="black" stroke-width="2" fill="none" />
<polyline points="317.5,69.5,310.0,70.0" stroke="black" stroke-width="2" fill="none" />
<polyline points="308.5,60.5,316.5,60.0" stroke="black" stroke-width="2" fill="none" />
<polyline points="308.5,51.0,300.0,51.0,291.5,51.0,283.0,51.0,275.0,52.0,267.0,52.5,259.5,53.0,252.0,54.0,243.5,54.5" stroke="black" stroke-width="2" fill="none" />
<polyline points="220.5,67.0,212.5,74.0" stroke="black" stroke-width="2" fill="none" />
<polyline points="211.5,73.0,219.0,73.0" stroke="black" stroke-width="2" fill="none" />
<polyline points="222.0,72.5,221.0,67.0,218.0,75.0,214.0,82.5,209.5,90.0,206.0,98.0,201.5,106.0,198.5,114.0,194.5,122.0,192.5,130.5,188.0,138.0,191.5,141.0,199.5,139.0" stroke="black" stroke-width="2" fill="none" />
<polyline points="196.0,141.5,188.5,149.5,180.0,157.0" stroke="black" stroke-width="2" fill="none" />
<polyline points="178.0,161.0,186.0,153.5" stroke="black" stroke-width="2" fill="none" />
<polyline points="187.0,153.0,195.0,147.0,199.0,144.0,188.0,152.0,187.0,160.5,186.5,168.5,186.5,176.0,191.0,184.0,194.0,189.5,191.5,193.5,194.5,189.5,203.0,185.5,206.0,182.0,212.5,175.0,217.0,160.5,224.0,150.5,232.0,145.5" stroke="black" stroke-width="2" fill="none" />
<polyline points="232.0,142.5,240.0,141.5,234.5,148.5,230.5,157.0" stroke="black" stroke-width="2" fill="none" />
<polyline points="228.5,158.0,236.0,157.5,244.0,157.0" stroke="black" stroke-width="2" fill="none" />
<polyline points="237.5,154.5,229.5,162.5,222.0,170.5" stroke="black" stroke-width="2" fill="none" />
<polyline points="220.5,167.5,228.5,167.0,236.0,166.5" stroke="black" stroke-width="2" fill="none" />
<polyline points="236.5,171.0,229.0,171.5" stroke="black" stroke-width="2" fill="none" />
<polyline points="228.5,179.5,220.5,186.5,212.5,194.0" stroke="black" stroke-width="2" fill="none" />
<polyline points="212.0,197.5,220.0,196.5" stroke="black" stroke-width="2" fill="none" />
<polyline points="219.5,195.5,211.5,203.0" stroke="black" stroke-width="2" fill="none" />
<polyline points="211.5,205.0,219.5,204.5" stroke="black" stroke-width="2" fill="none" />
<polyline points="218.0,205.0,209.5,211.5" stroke="black" stroke-width="2" fill="none" />
<polyline points="212.0,215.5,220.0,214.5" stroke="black" stroke-width="2" fill="none" />
<polyline points="219.5,211.5,211.0,219.0" stroke="black" stroke-width="2" fill="none" />
<polyline points="211.5,227.5,219.5,220.5" stroke="black" stroke-width="2" fill="none" />
<polyline points="221.5,227.5,213.0,235.0,204.5,242.5" stroke="black" stroke-width="2" fill="none" />
<polyline points="203.0,244.0,211.0,243.5" stroke="black" stroke-width="2" fill="none" />
<polyline points="208.5,239.5,216.5,244.0,224.5,249.0,232.5,246.0,240.0,239.5,248.5,229.5,256.0,218.5,264.0,203.5,265.5,200.0,261.5,208.0,256.5,216.0,252.5,223.5,245.5,232.0,238.5,239.5,229.0,252.5" stroke="black" stroke-width="2" fill="none" />
<polyline points="219.0,233.5,211.0,234.0" stroke="black" stroke-width="2" fill="none" />
<polyline points="209.0,238.0,208.0,246.0,206.0,254.0,206.0,262.0,208.5,269.0" stroke="black" stroke-width="2" fill="none" />
<polyline points="203.0,231.5,211.0,230.5,219.0,230.0" stroke="black" stroke-width="2" fill="none" />
<polyline points="218.5,220.5,210.5,221.0,202.5,221.5" stroke="black" stroke-width="2" fill="none" />
<polyline points="179.5,217.5,172.0,218.0,164.0,219.0,156.0,219.5,147.5,220.5,139.5,221.0" stroke="black" stroke-width="2" fill="none" />
<polyline points="139.0,226.5,131.5,233.5" stroke="black" stroke-width="2" fill="none" />
<polyline points="133.0,230.0,141.0,230.0,149.0,229.5,156.5,229.0,164.5,228.5" stroke="black" stroke-width="2" fill="none" />
<polyline points="162.0,252.0,154.0,252.0,146.0,252.0" stroke="black" stroke-width="2" fill="none" />
<polyline points="148.5,260.0,140.5,267.5" stroke="black" stroke-width="2" fill="none" />
<polyline points="130.5,267.5,122.5,275.0" stroke="black" stroke-width="2" fill="none" />
<polyline points="114.0,274.0,106.0,281.5" stroke="black" stroke-width="2" fill="none" />
<polyline points="108.5,281.5,100.5,282.0" stroke="black" stroke-width="2" fill="none" />
<polyline points="100.5,278.0,108.0,277.5,116.0,277.0,123.5,276.5" stroke="black" stroke-width="2" fill="none" />
<polyline points="114.0,266.5,106.0,274.0,98.5,282.0,90.5,289.5,83.0,296.5" stroke="black" stroke-width="2" fill="none" />
<polyline points="75.5,295.0,83.5,294.5,92.0,293.5" stroke="black" stroke-width="2" fill="none" />
<polyline points="93.5,288.5,101.5,288.5" stroke="black" stroke-width="2" fill="none" />
<polyline points="107.0,283.5,99.0,284.5,91.5,285.0,83.5,285.5" stroke="black" stroke-width="2" fill="none" />
<polyline points="75.5,279.5,76.5,275.0,86.5,282.0,81.0,287.5,78.0,295.0,70.5,303.0,72.5,300.0,80.0,292.5,85.5,287.5,87.5,277.0,91.5,272.0" stroke="black" stroke-width="2" fill="none" />
<polyline points="91.0,257.0,99.5,249.5,108.0,241.5,116.0,234.0" stroke="black" stroke-width="2" fill="none" />
<polyline points="123.5,236.5,115.5,243.5" stroke="black" stroke-width="2" fill="none" />
<polyline points="113.5,245.0,105.5,245.5,97.5,246.0" stroke="black" stroke-width="2" fill="none" />
<polyline points="99.5,256.0,91.5,256.5" stroke="black" stroke-width="2" fill="none" />
<polyline points="82.5,257.5,74.5,265.5" stroke="black" stroke-width="2" fill="none" />
<polyline points="75.5,258.5,83.5,250.5" stroke="black" stroke-width="2" fill="none" />
<polyline points="85.5,245.5,78.0,246.0" stroke="black" stroke-width="2" fill="none" />
<polyline points="75.5,242.5,83.5,235.0" stroke="black" stroke-width="2" fill="none" />
<polyline points="85.0,238.0,77.0,238.0" stroke="black" stroke-width="2" fill="none" />
<polyline points="76.0,234.0,85.0,226.5" stroke="black" stroke-width="2" fill="none" />
<polyline points="85.0,229.0,77.0,229.5" stroke="black" stroke-width="2" fill="none" />
<polyline points="77.0,222.0,84.5,222.0" stroke="black" stroke-width="2" fill="none" />
<polyline points="91.5,213.0,84.5,213.0,76.5,213.5" stroke="black" stroke-width="2" fill="none" />
<polyline points="83.0,206.5,91.0,206.5" stroke="black" stroke-width="2" fill="none" />
<polyline points="91.0,199.0,83.0,199.0" stroke="black" stroke-width="2" fill="none" />
<polyline points="91.5,195.5,100.0,182.5,108.0,173.0,116.0,173.0,120.5,175.0,122.5,183.0,120.5,190.5,120.5,198.5,118.5,206.5,114.5,215.0" stroke="black" stroke-width="2" fill="none" />
<polyline points="114.5,206.0,122.0,205.5" stroke="black" stroke-width="2" fill="none" />
<polyline points="115.0,202.0,123.5,194.0" stroke="black" stroke-width="2" fill="none" />
<polyline points="122.5,195.5,115.0,196.0" stroke="black" stroke-width="2" fill="none" />
<polyline points="116.0,189.5,123.5,189.0" stroke="black" stroke-width="2" fill="none" />
<polyline points="114.5,186.5,123.0,178.5" stroke="black" stroke-width="2" fill="none" />
<polyline points="124.5,181.5,116.5,182.0" stroke="black" stroke-width="2" fill="none" />
<polyline points="114.0,178.0,122.0,170.0" stroke="black" stroke-width="2" fill="none" />
<polyline points="122.5,175.0,114.5,176.0" stroke="black" stroke-width="2" fill="none" />
<polyline points="114.0,175.0,115.0,183.0,115.0,191.5,113.0,199.5,112.5,207.5,110.5,215.5" stroke="black" stroke-width="2" fill="none" />
<polyline points="102.5,231.0,110.5,235.0,118.5,233.5,124.0,232.5,128.0,228.0,136.5,224.0" stroke="black" stroke-width="2" fill="none" />
<polyline points="139.5,205.0,147.5,204.5" stroke="black" stroke-width="2" fill="none" />
<polyline points="148.5,196.0,140.5,196.5" stroke="black" stroke-width="2" fill="none" />
<polyline points="141.0,195.5,149.0,188.0" stroke="black" stroke-width="2" fill="none" />
<polyline points="149.5,187.0,141.5,187.5" stroke="black" stroke-width="2" fill="none" />
<polyline points="140.5,186.0,148.5,178.5" stroke="black" stroke-width="2" fill="none" />
<polyline points="149.0,181.0,141.0,181.5" stroke="black" stroke-width="2" fill="none" />
<polyline points="140.5,172.5,149.0,172.5" stroke="black" stroke-width="2" fill="none" />
<polyline points="142.0,169.5,150.5,162.5" stroke="black" stroke-width="2" fill="none" />
<polyline points="149.5,166.0,141.5,166.5" stroke="black" stroke-width="2" fill="none" />
<polyline points="140.5,159.5,148.0,159.0" stroke="black" stroke-width="2" fill="none" />
<polyline points="135.5,149.5,143.5,150.5,142.5,159.5,144.0,167.5,144.0,175.0,145.0,183.5,146.0,191.5,146.0,199.5,148.0,208.0,150.0,216.5,154.0,224.5,159.0,228.5,161.5,233.5,152.5,241.0,143.5,249.0,133.5,256.5,124.5,265.0,115.0,273.0,106.0,281.0,110.0,277.5,118.0,271.0,126.0,264.5,133.5,256.0,141.0,250.0,149.0,242.5,157.0,236.5,165.0,228.5,173.0,230.5" stroke="black" stroke-width="2" fill="none" />
<polyline points="148.0,246.0,140.0,246.5,132.5,247.5" stroke="black" stroke-width="2" fill="none" />
<polyline points="127.5,248.5,123.0,256.5,115.0,263.5,119.0,248.5" stroke="black" stroke-width="2" fill="none" />
<polyline points="121.0,246.0,109.0,254.0,119.0,255.0,111.5,263.0,103.5,268.5,97.5,276.5,93.0,281.5,101.0,273.5,107.0,269.5,114.0,263.5,119.0,255.0,124.0,255.0,126.0,248.0,130.0,244.0,135.0,246.5" stroke="black" stroke-width="2" fill="none" />
<polyline points="141.5,253.0,134.0,253.5,125.5,254.0" stroke="black" stroke-width="2" fill="none" />
<polyline points="116.0,263.5,124.0,263.0,131.0,262.5,138.5,262.0,147.0,261.5" stroke="black" stroke-width="2" fill="none" />
<polyline points="139.5,269.5,131.5,270.0,123.5,270.0,115.5,270.5,107.5,271.0" stroke="black" stroke-width="2" fill="none" />
<polyline points="108.0,252.5,100.0,253.0,92.5,253.0,84.5,253.5,76.5,254.0" stroke="black" stroke-width="2" fill="none" />
<polyline points="67.5,260.0,75.5,259.5,83.5,259.0,91.0,258.5" stroke="black" stroke-width="2" fill="none" />
<polyline points="108.0,238.0,116.5,238.0,124.5,237.0,132.5,236.5" stroke="black" stroke-width="2" fill="none" />
<polyline points="107.5,235.0,100.5,236.5,100.5,244.5,87.0,249.5,89.0,251.5" stroke="black" stroke-width="2" fill="none" />
<polyline points="74.5,267.5,67.0,268.0,59.0,268.5" stroke="black" stroke-width="2" fill="none" />
<polyline points="60.5,274.5,52.0,274.5,44.0,275.5" stroke="black" stroke-width="2" fill="none" />
<polyline points="49.5,271.5,59.5,267.5,51.5,269.5,49.0,277.5,38.0,285.5,30.0,288.5,22.5,296.0,16.5,300.0,5.5,309.0" stroke="black" stroke-width="2" fill="none" />
<polyline points="4.0,311.0,11.5,310.0,19.0,308.5" stroke="black" stroke-width="2" fill="none" />
<polyline points="11.5,307.0,3.5,315.0" stroke="black" stroke-width="2" fill="none" />
<polyline points="10.5,301.0,18.5,300.5,26.5,300.5" stroke="black" stroke-width="2" fill="none" />
<polyline points="23.5,289.5,31.5,286.5,39.0,285.5" stroke="black" stroke-width="2" fill="none" />
<polyline points="35.5,284.0,43.5,284.0,52.0,284.0" stroke="black" stroke-width="2" fill="none" />
<polyline points="34.0,291.5,25.5,292.5,17.5,293.0" stroke="black" stroke-width="2" fill="none" />
<polyline points="12.0,302.5,8.5,305.0,12.5,303.5,14.0,297.5,6.0,296.5" stroke="black" stroke-width="2" fill="none" />
<polyline points="23.0,280.5,26.0,284.5,22.0,292.5,19.0,293.5,16.0,297.0,24.5,295.0,26.5,284.5,40.5,280.5,48.5,277.5,57.0,273.5" stroke="black" stroke-width="2" fill="none" />
<polyline points="68.0,267.0,61.0,268.0,70.0,264.5,72.5,256.5,72.5,248.5,68.0,246.0,74.0,237.5,74.0,229.5,76.0,221.5,79.0,213.5,82.0,206.0,78.5,204.0,84.5,196.0,89.0,188.0,93.0,180.0,94.0,172.0,98.0,164.0,97.5,170.0" stroke="black" stroke-width="2" fill="none" />
<polyline points="100.0,174.5,108.0,174.0" stroke="black" stroke-width="2" fill="none" />
<polyline points="107.5,170.5,100.0,178.5" stroke="black" stroke-width="2" fill="none" />
<polyline points="99.5,181.5,91.0,182.0" stroke="black" stroke-width="2" fill="none" />
<polyline points="92.0,189.0,100.0,188.5" stroke="black" stroke-width="2" fill="none" />
<polyline points="111.0,171.5,103.0,179.5,97.0,188.0,92.0,196.0,90.0,204.0,86.0,212.0,84.0,220.0,82.0,228.0,80.0,236.0,80.0,243.5,79.0,251.5,84.0,253.0,89.5,255.0,97.5,249.0,99.0,238.0,104.0,239.0,104.0,241.5" stroke="black" stroke-width="2" fill="none" />
<polyline points="59.0,229.0,57.0,225.0,51.0,233.0,56.5,225.5,57.0,215.5,57.0,207.5,59.5,199.5,61.5,191.5,64.0,183.5,68.0,175.5,71.5,168.0,77.5,160.0,84.5,152.5,92.0,144.5,99.5,137.0,107.5,128.5,116.5,121.0,130.0,112.5,141.0,104.5,154.0,96.5,169.5,88.5,186.0,80.5,201.5,72.5,193.0,64.5,185.5,65.5,177.5,68.0" stroke="black" stroke-width="2" fill="none" />
<polyline points="175.5,67.0,178.5,70.5,184.0,72.0,181.0,76.0,166.5,82.0,162.5,85.5,169.0,81.5,177.0,77.5,180.0,71.0,185.0,72.0,191.5,70.0,200.5,66.0,208.5,64.0,216.5,60.0,224.0,55.5,228.0,55.5,236.0,54.0,244.0,52.0,252.5,50.0,260.5,50.0,268.0,50.0,276.5,49.0,284.5,49.0,292.5,50.0,299.5,48.0,307.5,50.0,309.5,58.0" stroke="black" stroke-width="2" fill="none" />
<polyline points="302.5,58.0,294.5,56.5,286.0,54.5,277.5,55.0,263.5,57.0,256.0,56.5,248.0,58.5,240.5,60.5,232.5,62.0,224.5,66.0,216.5,80.5,208.5,95.0,194.5,109.5,186.5,118.0" stroke="black" stroke-width="2" fill="none" />
<polyline points="182.0,116.0,190.0,107.0,198.0,99.0" stroke="black" stroke-width="2" fill="none" />
<polyline points="193.0,94.5,201.0,94.0,209.5,93.0" stroke="black" stroke-width="2" fill="none" />
<polyline points="214.0,92.0,205.5,99.5,197.0,106.5" stroke="black" stroke-width="2" fill="none" />
<polyline points="188.0,103.0,196.0,102.5,204.0,102.0,212.0,101.5" stroke="black" stroke-width="2" fill="none" />
<polyline points="212.0,88.0,203.5,88.5" stroke="black" stroke-width="2" fill="none" />
<polyline points="204.5,86.5,212.5,85.5,220.5,85.0" stroke="black" stroke-width="2" fill="none" />
<polyline points="218.5,76.0,210.5,83.5,202.0,91.5,194.0,99.0,186.5,107.5" stroke="black" stroke-width="2" fill="none" />
<polyline points="180.0,109.5,187.5,109.5,195.5,109.0,203.0,108.5" stroke="black" stroke-width="2" fill="none" />
<polyline points="201.0,117.5,192.5,118.0" stroke="black" stroke-width="2" fill="none" />
<polyline points="196.5,126.0,188.5,126.5" stroke="black" stroke-width="2" fill="none" />
<polyline points="189.5,136.0,197.0,135.5" stroke="black" stroke-width="2" fill="none" />
<polyline points="203.0,141.0,194.5,141.5,186.5,142.0" stroke="black" stroke-width="2" fill="none" />
<polyline points="180.5,149.5,188.5,148.5,195.5,148.0" stroke="black" stroke-width="2" fill="none" />
<polyline points="186.5,162.5,178.5,169.5" stroke="black" stroke-width="2" fill="none" />
<polyline points="180.5,164.5,189.0,164.0" stroke="black" stroke-width="2" fill="none" />
<polyline points="187.5,161.0,179.5,161.5" stroke="black" stroke-width="2" fill="none" />
<polyline points="173.5,161.0,174.5,168.0" stroke="black" stroke-width="2" fill="none" />
<polyline points="180.5,175.0,189.0,174.5,197.0,174.0" stroke="black" stroke-width="2" fill="none" />
<polyline points="203.0,180.5,211.0,180.0,219.5,179.0,228.0,178.5" stroke="black" stroke-width="2" fill="none" />
<polyline points="228.0,178.5,220.0,179.0" stroke="black" stroke-width="2" fill="none" />
<polyline points="221.0,183.5,229.0,171.5,237.0,164.0,245.5,154.5,253.5,147.0,261.5,140.0,269.5,131.5,278.0,123.5,286.0,115.0,294.5,105.0,302.5,95.5,304.5,102.5,300.5,107.0,301.0,105.5,304.0,91.5,315.0,81.0,322.0,90.0" stroke="black" stroke-width="2" fill="none" />
<polyline points="300.0,100.0,291.5,100.5" stroke="black" stroke-width="2" fill="none" />
<polyline points="290.5,109.5,282.5,110.0" stroke="black" stroke-width="2" fill="none" />
<polyline points="278.5,114.0,286.5,103.0,283.0,101.0" stroke="black" stroke-width="2" fill="none" />
<polyline points="247.5,124.0,253.5,128.0,250.5,131.0" stroke="black" stroke-width="2" fill="none" />
<polyline points="236.5,148.5,228.5,149.0" stroke="black" stroke-width="2" fill="none" />
<polyline points="224.0,144.5,224.0,144.5,225.0,152.5,217.5,160.5,217.5,168.5,209.0,176.5,205.0,178.5,194.5,181.5,198.5,178.5,202.0,175.0,210.0,171.0" stroke="black" stroke-width="2" fill="none" />
<polyline points="211.0,174.0,219.0,173.5,226.5,173.0,234.5,172.5" stroke="black" stroke-width="2" fill="none" />
<polyline points="235.0,161.5,227.0,162.0" stroke="black" stroke-width="2" fill="none" />
<polyline points="220.0,185.0,212.0,185.5" stroke="black" stroke-width="2" fill="none" />
<polyline points="207.5,181.5,200.0,189.5" stroke="black" stroke-width="2" fill="none" />
<polyline points="195.5,190.5,203.5,190.5,211.5,189.5,219.5,189.0,228.0,188.5" stroke="black" stroke-width="2" fill="none" />
<polyline points="210.0,197.0,208.0,205.0,207.5,213.0,205.5,220.5,205.0,226.5,203.0,234.0,202.5,242.0,202.5,250.0,200.5,257.5,197.0,265.5,202.0,269.5,210.0,265.5" stroke="black" stroke-width="2" fill="none" />
<polyline points="187.0,190.5,194.5,187.5,200.5,183.5" stroke="black" stroke-width="2" fill="none" />
<polyline points="192.5,179.5,184.5,180.0" stroke="black" stroke-width="2" fill="none" />
<polyline points="187.5,155.0,179.0,155.5,171.0,156.0" stroke="black" stroke-width="2" fill="none" />
<polyline points="174.0,143.5,182.0,144.5" stroke="black" stroke-width="2" fill="none" />
<polyline points="183.5,132.5,187.0,124.5,184.5,114.0,190.5,106.0,199.0,98.0,186.0,101.5,178.0,110.5" stroke="black" stroke-width="2" fill="none" />
<polyline points="179.0,85.0,171.0,85.5,163.0,86.0" stroke="black" stroke-width="2" fill="none" />
<polyline points="164.0,94.0,156.0,94.0,148.5,94.5" stroke="black" stroke-width="2" fill="none" />
<polyline points="150.0,102.0,141.5,102.0,133.0,102.5" stroke="black" stroke-width="2" fill="none" />
<polyline points="124.0,101.5,133.0,98.5,130.5,106.5,117.5,111.5,113.5,116.5,117.5,116.0,120.5,113.5,128.5,108.5,135.5,98.0,142.5,97.0,150.5,93.5" stroke="black" stroke-width="2" fill="none" />
<polyline points="149.5,86.0,159.5,87.0,159.5,78.5" stroke="black" stroke-width="2" fill="none" />
<polyline points="179.0,78.0,187.0,77.5,195.5,77.0" stroke="black" stroke-width="2" fill="none" />
<polyline points="193.0,69.5,201.0,69.0,209.0,68.5,217.0,68.0,225.5,68.0" stroke="black" stroke-width="2" fill="none" />
<polyline points="218.5,63.0,226.5,62.5,235.0,61.5,243.0,60.5" stroke="black" stroke-width="2" fill="none" />
<polyline points="218.5,76.5,210.5,76.5" stroke="black" stroke-width="2" fill="none" />
<polyline points="206.5,75.5,198.5,83.5,194.0,82.0,192.0,85.5" stroke="black" stroke-width="2" fill="none" />
<polyline points="140.0,111.0,131.5,111.5,123.5,112.0" stroke="black" stroke-width="2" fill="none" />
<polyline points="123.0,119.0,115.0,120.0" stroke="black" stroke-width="2" fill="none" />
<polyline points="118.0,123.0,109.5,130.5" stroke="black" stroke-width="2" fill="none" />
<polyline points="107.5,133.0,99.0,133.5,90.5,134.0" stroke="black" stroke-width="2" fill="none" />
<polyline points="95.0,129.0,87.0,131.0,87.0,139.5,75.5,143.5,79.0,147.5,71.0,151.5,73.0,151.5,71.5,154.5,77.5,149.5,83.5,141.5,89.5,134.0,96.5,125.0,103.5,124.5,109.0,119.5" stroke="black" stroke-width="2" fill="none" />
<polyline points="117.5,125.0,109.0,125.5,100.5,126.0" stroke="black" stroke-width="2" fill="none" />
<polyline points="100.5,141.0,92.5,142.0,84.5,143.0" stroke="black" stroke-width="2" fill="none" />
<polyline points="77.0,147.0,85.0,147.0,92.5,147.0" stroke="black" stroke-width="2" fill="none" />
<polyline points="81.5,153.0,74.0,160.5,66.5,168.5" stroke="black" stroke-width="2" fill="none" />
<polyline points="67.5,164.0,75.5,163.5" stroke="black" stroke-width="2" fill="none" />
<polyline points="76.0,156.5,84.0,156.0" stroke="black" stroke-width="2" fill="none" />
<polyline points="76.5,172.5,68.0,172.5,60.0,173.0" stroke="black" stroke-width="2" fill="none" />
<polyline points="62.5,172.5,67.0,162.5,66.0,165.5,63.0,172.5,58.5,180.5,55.5,188.0,54.5,191.0,52.0,198.5,50.0,206.5,51.0,214.5,49.5,222.5,52.0,223.0" stroke="black" stroke-width="2" fill="none" />
<polyline points="51.5,213.5,60.0,213.5" stroke="black" stroke-width="2" fill="none" />
<polyline points="51.5,211.0,59.0,203.0" stroke="black" stroke-width="2" fill="none" />
<polyline points="61.0,206.0,52.5,206.0" stroke="black" stroke-width="2" fill="none" />
<polyline points="52.5,197.5,60.5,197.0,69.0,196.5" stroke="black" stroke-width="2" fill="none" />
<polyline points="66.0,188.5,58.5,189.0" stroke="black" stroke-width="2" fill="none" />
<polyline points="58.5,185.0,66.5,177.5" stroke="black" stroke-width="2" fill="none" />
<polyline points="67.5,181.5,59.0,182.0" stroke="black" stroke-width="2" fill="none" />
<polyline points="64.0,185.0,72.0,169.0,80.5,159.0,88.5,150.0,97.0,142.0,105.0,134.0,113.0,126.5,121.0,120.5,128.5,114.0,136.5,108.0,144.0,102.0,152.0,98.0,160.0,94.0,168.0,89.0,176.0,85.5,184.0,81.5,192.0,77.5,200.0,73.0,208.5,70.0,206.5,76.0,201.5,84.0,197.5,80.5,198.5,86.5,189.0,94.5,183.5,102.5,176.5,111.0,178.5,118.5,172.5,121.0,173.0,131.0,177.5,130.0,182.0,137.0,177.5,142.0,173.5,148.0,169.0,156.0,172.5,163.5,177.5,166.5,178.0,174.5,180.0,181.5,187.0,188.0,186.5,196.0,180.5,204.0,174.5,207.0,172.5,220.5,181.0,212.5,188.5,206.5,196.5,199.5,204.5,192.5,212.5,188.0,202.0,194.0,192.5,202.0,182.5,210.0,174.5,218.0,174.5,226.5,181.5,234.5,181.5,242.0,169.5,250.0,155.5,258.0,140.5,266.5,126.5,274.5,112.5,282.0,98.5,290.0,85.5,298.0,92.5,299.0,96.0,302.0,103.5,293.0" stroke="black" stroke-width="2" fill="none" />
<polyline points="103.0,296.5,105.0,304.5" stroke="black" stroke-width="2" fill="none" />
<polyline points="113.0,289.5,125.5,282.5,117.5,289.0" stroke="black" stroke-width="2" fill="none" />
<polyline points="74.0,305.5,82.0,302.5,89.5,298.0,97.5,292.5,106.0,288.0,114.0,283.0,122.0,277.5,130.5,273.0,138.5,269.0,146.5,265.5,154.5,260.0,162.0,255.5,170.0,251.5,177.5,246.5" stroke="black" stroke-width="2" fill="none" />
<polyline points="124.0,165.5,115.5,166.0,107.5,166.5" stroke="black" stroke-width="2" fill="none" />
<polyline points="112.5,136.5,120.5,128.5" stroke="black" stroke-width="2" fill="none" />
<polyline points="132.5,143.5,129.5,148.5,130.0,146.5,138.0,141.0" stroke="black" stroke-width="2" fill="none" />
<polyline points="138.0,139.5,135.0,148.0,136.0,156.0,135.5,164.5,135.5,172.5,137.0,179.5,137.0,188.0,137.0,196.5,139.0,205.0,141.5,213.0,142.5,221.0,132.5,223.5,130.0,230.5,126.5,240.5,111.5,248.5,100.5,256.5,90.5,264.5,71.0,272.0,57.5,280.5,45.5,288.0,35.5,296.0,23.5,304.0,14.5,312.0,14.5,319.0,20.5,319.0,28.5,319.0,36.5,318.5,44.5,318.5,53.0,318.5,60.5,318.5,68.5,318.5,76.5,318.5,84.5,318.5,92.5,318.5,100.0,318.0,108.0,318.0,116.0,317.5,124.0,317.5,131.5,317.5,139.5,317.5,147.0,317.5,155.5,317.5,163.5,317.5,171.5,317.5,179.5,318.0,187.5,318.5,196.0,318.5,204.0,318.5,212.0,318.5,220.0,318.5,228.0,318.0,236.0,318.5,244.0,318.5,251.5,318.5,259.5,318.0,267.5,318.5,275.5,318.5,284.0,319.0,292.0,319.5,300.0,319.5,308.0,320.0,316.0,320.0,324.0,319.5,331.5,319.0,340.0,318.5,347.5,318.0,355.5,318.0,363.5,317.5,371.0,317.5,379.0,317.5,387.0,317.5,395.0,317.5,403.5,317.5,411.5,317.5,420.0,317.5,428.0,317.5,436.5,317.5,444.5,317.5,453.0,317.5,461.0,317.5,469.5,317.5,477.5,318.0,485.5,318.0,493.5,318.0,501.0,318.0,509.0,318.0" stroke="black" stroke-width="2" fill="none" />
<polyline points="391.5,179.5,386.5,182.5,395.5,170.5,403.0,162.5,409.0,154.5,413.5,147.0,418.0,139.5,424.0,131.0,428.0,123.0,432.0,114.5,436.0,106.5,441.0,98.0,445.0,89.5,449.0,81.5,452.5,73.0,458.5,65.0,462.0,57.0,467.0,49.0,473.5,40.5,479.5,33.0,488.0,25.0,495.0,17.0,502.0,9.0,508.5,1.5,498.5,2.5,490.5,3.0,482.5,3.0,474.0,3.0,466.0,3.0,458.0,3.0,450.0,3.0,442.5,2.5,434.5,3.0,426.0,3.0,418.0,3.5,410.5,3.5,402.5,4.0,394.5,4.0,386.5,3.5,378.5,3.0,370.5,2.5,362.5,2.5,354.5,2.5,347.0,3.0,339.0,3.0,331.0,3.0,323.0,3.0,314.5,3.0,306.5,2.5,298.5,2.5,290.5,2.0,282.5,2.5,274.5,2.5,266.0,2.0,257.5,2.5,249.5,3.0,241.5,3.0,233.5,3.0,225.0,2.5,217.0,2.0,209.0,2.5,201.0,2.5,193.0,2.5,185.5,3.0,177.5,3.0,169.5,3.0,161.0,3.0,153.5,3.5,145.5,3.0,137.5,3.0,129.5,3.0,122.0,3.0,113.5,3.0,106.0,3.5,98.0,4.0,90.0,4.0,82.0,4.5,74.0,4.0,66.0,4.0,58.0,4.0,50.0,4.0,42.0,3.5,34.0,3.5,26.5,3.5,19.0,3.0,11.0,3.0,3.5,2.5" stroke="black" stroke-width="2" fill="none" />
<polyline points="73.5,140.5,81.5,143.5" stroke="black" stroke-width="2" fill="none" />
<polyline points="73.0,178.0,74.0,177.0,71.0,184.0,67.0,194.5,66.0,201.5,79.0,204.0,82.5,190.0,88.0,190.0,92.0,181.5,97.0,168.5,98.0,160.5,107.0,162.5,115.0,164.5,121.5,167.5" stroke="black" stroke-width="2" fill="none" />
<polyline points="135.5,115.0,131.5,120.0,137.5,112.0" stroke="black" stroke-width="2" fill="none" />
<polyline points="263.0,169.0,264.0,171.0,265.0,171.0" stroke="black" stroke-width="2" fill="none" />
<polyline points="303.0,70.5,295.0,74.0,307.0,71.0,306.0,66.0,309.0,61.0,298.5,53.0" stroke="black" stroke-width="2" fill="none" />
<polyline points="393.0,18.5,391.0,26.5,386.5,35.0,382.5,43.0,378.5,51.0,373.0,59.0,369.0,67.5,365.0,75.5,361.5,83.5,357.5,91.5,353.5,99.5,349.5,107.5,347.5,115.5,343.0,123.5,339.0,131.5,335.0,139.5,331.5,147.0,328.5,155.0,325.5,163.0,321.5,171.0,319.5,179.0,315.5,187.0,313.5,195.0,310.5,203.0,310.0,211.0,313.0,213.0,318.0,211.0,326.0,203.0,329.0,195.0,337.0,187.5,340.5,173.5" stroke="black" stroke-width="2" fill="none" />
<polyline points="502.0,98.5,493.5,107.5,485.5,110.5,477.5,110.0,476.5,105.0,477.0,97.5,479.5,89.0,483.0,81.0,488.0,72.5,491.5,64.0,489.5,54.5,494.5,47.0" stroke="black" stroke-width="2" fill="none" />
</svg>