<svg xmlns="http://www.w3.org/2000/svg" version="1.1"><polyline points="504.5,3.0,496.5,11.0,488.0,19.0,482.5,26.5,475.5,34.5,470.0,42.5,464.0,50.5,459.5,58.5,454.5,67.0,449.5,75.5,445.5,83.5,440.0,91.5,435.5,99.0,430.5,107.0,426.0,115.5,421.5,123.5,416.5,131.5,412.5,139.5,407.5,147.5,401.5,155.5,395.0,163.5,392.0,167.0,400.5,157.0,408.5,143.5,417.0,130.0,425.5,116.0,433.5,99.5,441.5,85.5,449.5,71.5,457.5,58.0,465.5,46.0,473.5,36.5,481.5,26.5,489.5,16.5,497.5,9.0" stroke="black" stroke-width="2" fill="none" />
<polyline points="500.0,5.5,507.5,5.0" stroke="black" stroke-width="2" fill="none" />
<polyline points="509.0,2.5,504.0,10.5,496.0,18.5,490.0,27.0,482.0,35.0,476.5,43.0,469.5,51.0,466.0,59.0,462.0,67.0,456.0,75.0,452.0,83.0,447.0,91.0,442.5,99.0,437.0,107.0,433.0,115.5,428.5,123.5,424.0,131.5,419.0,139.5,413.5,147.0,409.5,155.0,403.5,163.0,397.5,171.0,386.5,182.5,388.0,182.0" stroke="black" stroke-width="2" fill="none" />
<polyline points="387.0,172.5,395.0,172.0" stroke="black" stroke-width="2" fill="none" />
<polyline points="394.5,172.5,402.5,165.0" stroke="black" stroke-width="2" fill="none" />
<polyline points="397.0,165.0,389.0,172.5" stroke="black" stroke-width="2" fill="none" />
<polyline points="389.0,167.5,396.5,167.0,404.5,166.5" stroke="black" stroke-width="2" fill="none" />
<polyline points="403.5,148.5,412.0,148.0,421.0,147.0" stroke="black" stroke-width="2" fill="none" />
<polyline points="418.0,139.5,410.5,147.5" stroke="black" stroke-width="2" fill="none" />
<polyline points="410.0,141.0,418.0,140.5" stroke="black" stroke-width="2" fill="none" />
<polyline points="418.0,133.0,426.0,125.0" stroke="black" stroke-width="2" fill="none" />
<polyline points="428.5,124.5,421.0,125.0" stroke="black" stroke-width="2" fill="none" />
<polyline points="427.5,131.5,420.0,132.0,412.0,132.0" stroke="black" stroke-width="2" fill="none" />
<polyline points="395.0,141.5,387.0,149.0" stroke="black" stroke-width="2" fill="none" />
<polyline points="387.5,151.0,395.5,150.0" stroke="black" stroke-width="2" fill="none" />
<polyline points="396.0,140.5,388.0,140.5" stroke="black" stroke-width="2" fill="none" />
<polyline points="386.5,133.0,394.5,132.5" stroke="black" stroke-width="2" fill="none" />
<polyline points="395.5,122.5,387.0,122.5" stroke="black" stroke-width="2" fill="none" />
<polyline points="395.0,117.0,403.5,116.5" stroke="black" stroke-width="2" fill="none" />
<polyline points="401.0,107.5,409.0,86.5,416.5,68.5,424.5,52.5,432.5,41.5" stroke="black" stroke-width="2" fill="none" />
<polyline points="430.0,38.5,437.5,38.0" stroke="black" stroke-width="2" fill="none" />
<polyline points="435.0,36.5,427.0,44.0" stroke="black" stroke-width="2" fill="none" />
<polyline points="420.0,43.5,428.0,43.0,436.5,43.0" stroke="black" stroke-width="2" fill="none" />
<polyline points="429.0,51.0,421.0,51.0" stroke="black" stroke-width="2" fill="none" />
<polyline points="418.0,60.5,410.5,68.0" stroke="black" stroke-width="2" fill="none" />
<polyline points="413.0,67.5,420.5,67.0" stroke="black" stroke-width="2" fill="none" />
<polyline points="420.5,59.5,412.5,60.5" stroke="black" stroke-width="2" fill="none" />
<polyline points="407.5,74.0,415.5,56.5,423.0,42.0,431.0,31.0,439.0,30.0,428.0,35.0,421.5,42.5,417.0,50.0,413.0,58.0,408.5,66.0,406.0,74.5,402.0,82.5,399.5,90.5,396.5,99.0,393.5,107.0,391.5,115.5,389.5,123.5,388.0,131.5,386.0,139.5,385.0,148.0,383.0,156.0,383.0,164.0,383.0,172.0,385.0,175.0,393.0,176.0,401.0,169.0,408.5,156.5,416.5,144.5,424.5,129.5,433.0,112.5,441.5,98.5,449.0,83.5,457.0,71.0,465.0,58.5,473.0,46.5,481.0,35.5,489.0,27.5,496.5,17.5,504.5,9.0" stroke="black" stroke-width="2" fill="none" />
<polyline points="508.5,14.5,501.0,14.5,493.5,15.0" stroke="black" stroke-width="2" fill="none" />
<polyline points="499.0,18.5,492.0,18.5,484.0,19.5" stroke="black" stroke-width="2" fill="none" />
<polyline points="491.5,29.0,483.5,29.5,476.5,30.0" stroke="black" stroke-width="2" fill="none" />
<polyline points="475.5,38.5,483.5,37.5" stroke="black" stroke-width="2" fill="none" />
<polyline points="473.5,45.5,465.5,45.5" stroke="black" stroke-width="2" fill="none" />
<polyline points="466.5,52.0,458.5,53.0" stroke="black" stroke-width="2" fill="none" />
<polyline points="459.0,61.5,467.0,61.0" stroke="black" stroke-width="2" fill="none" />
<polyline points="458.0,67.5,450.0,75.0" stroke="black" stroke-width="2" fill="none" />
<polyline points="449.5,70.0,457.5,70.0" stroke="black" stroke-width="2" fill="none" />
<polyline points="459.5,76.5,451.5,76.5,444.0,77.0" stroke="black" stroke-width="2" fill="none" />
<polyline points="442.0,86.5,450.0,85.5" stroke="black" stroke-width="2" fill="none" />
<polyline points="454.0,85.5,456.0,88.5" stroke="black" stroke-width="2" fill="none" />
<polyline points="466.0,103.0,474.5,102.5,483.0,102.0,491.0,101.5,499.0,100.5" stroke="black" stroke-width="2" fill="none" />
<polyline points="498.5,92.0,506.5,91.5" stroke="black" stroke-width="2" fill="none" />
<polyline points="506.5,93.0,499.0,100.5,491.0,107.0" stroke="black" stroke-width="2" fill="none" />
<polyline points="491.5,108.0,484.0,109.0,476.0,109.5" stroke="black" stroke-width="2" fill="none" />
<polyline points="477.0,94.0,485.5,93.5" stroke="black" stroke-width="2" fill="none" />
<polyline points="483.0,84.5,474.5,92.0" stroke="black" stroke-width="2" fill="none" />
<polyline points="476.0,86.0,484.0,85.5" stroke="black" stroke-width="2" fill="none" />
<polyline points="480.0,85.0,488.0,70.0,493.5,59.0,489.5,67.0,485.5,75.0,481.5,82.5,477.5,90.5,475.5,98.5" stroke="black" stroke-width="2" fill="none" />
<polyline points="474.5,76.5,483.0,76.0,491.0,75.5" stroke="black" stroke-width="2" fill="none" />
<polyline points="489.5,70.0,481.5,77.0" stroke="black" stroke-width="2" fill="none" />
<polyline points="479.0,74.0,487.0,60.0,495.0,58.0,485.5,62.0,480.0,69.5,477.0,77.5,474.0,85.0,470.0,93.0,468.0,101.0,469.5,109.0,473.0,111.0,481.5,111.0,490.0,109.0,498.5,103.0,506.5,90.5,511.5,73.0,510.5,81.0,507.5,89.0,503.0,97.0,497.0,105.0" stroke="black" stroke-width="2" fill="none" />
<polyline points="499.0,87.0,507.0,86.0,514.5,85.5" stroke="black" stroke-width="2" fill="none" />
<polyline points="516.5,76.0,508.5,76.0" stroke="black" stroke-width="2" fill="none" />
<polyline points="507.0,70.0,515.0,69.5" stroke="black" stroke-width="2" fill="none" />
<polyline points="513.5,61.5,505.0,61.5" stroke="black" stroke-width="2" fill="none" />
<polyline points="500.0,61.0,492.5,61.5,485.0,62.0" stroke="black" stroke-width="2" fill="none" />
<polyline points="485.0,70.5,493.0,70.5" stroke="black" stroke-width="2" fill="none" />
<polyline points="499.0,59.5,505.0,56.5,508.0,64.5,508.0,72.5,506.0,80.5,501.0,88.0,496.0,96.0,482.5,104.0,485.5,103.0,494.0,99.0,501.5,88.0" stroke="black" stroke-width="2" fill="none" />
<polyline points="499.5,53.5,507.0,51.0" stroke="black" stroke-width="2" fill="none" />
<polyline points="505.5,52.5,514.0,52.0" stroke="black" stroke-width="2" fill="none" />
<polyline points="503.0,23.0,500.0,20.5,500.0,23.5,502.0,17.5" stroke="black" stroke-width="2" fill="none" />
<polyline points="435.0,30.0,435.0,38.0,428.0,45.5,423.0,53.5,420.0,61.5,416.0,69.0,412.0,77.0,409.0,85.0,406.0,92.5,403.5,100.5,400.5,108.5,398.5,116.5,395.0,124.5,394.0,133.0,391.5,141.5,390.5,149.5,390.5,157.5,389.5,165.5" stroke="black" stroke-width="2" fill="none" />
<polyline points="379.5,156.5,387.5,156.0,395.5,155.5,403.5,155.0,411.5,154.5" stroke="black" stroke-width="2" fill="none" />
<polyline points="428.5,114.5,436.5,114.0" stroke="black" stroke-width="2" fill="none" />
<polyline points="437.5,109.0,429.5,109.5" stroke="black" stroke-width="2" fill="none" />
<polyline points="435.0,100.0,443.0,99.5" stroke="black" stroke-width="2" fill="none" />
<polyline points="443.0,92.5,435.0,93.0" stroke="black" stroke-width="2" fill="none" />
<polyline points="411.0,86.0,403.0,87.0" stroke="black" stroke-width="2" fill="none" />
<polyline points="401.5,79.5,409.5,78.5" stroke="black" stroke-width="2" fill="none" />
<polyline points="411.0,91.5,403.0,92.5,395.0,93.0" stroke="black" stroke-width="2" fill="none" />
<polyline points="395.0,98.5,403.0,98.5" stroke="black" stroke-width="2" fill="none" />
<polyline points="403.5,107.0,395.5,107.0" stroke="black" stroke-width="2" fill="none" />
<polyline points="355.0,100.5,347.0,108.0" stroke="black" stroke-width="2" fill="none" />
<polyline points="348.0,100.5,355.5,100.5" stroke="black" stroke-width="2" fill="none" />
<polyline points="349.0,94.5,357.0,93.5,365.5,93.0" stroke="black" stroke-width="2" fill="none" />
<polyline points="354.5,89.0,363.0,81.0" stroke="black" stroke-width="2" fill="none" />
<polyline points="364.5,74.5,373.0,66.5" stroke="black" stroke-width="2" fill="none" />
<polyline points="372.5,56.5,380.0,48.5" stroke="black" stroke-width="2" fill="none" />
<polyline points="379.0,43.0,387.5,35.5" stroke="black" stroke-width="2" fill="none" />
<polyline points="388.0,38.0,380.0,39.0" stroke="black" stroke-width="2" fill="none" />
<polyline points="381.5,31.5,389.5,30.5,397.5,29.5" stroke="black" stroke-width="2" fill="none" />
<polyline points="393.5,19.5,385.5,26.5" stroke="black" stroke-width="2" fill="none" />
<polyline points="387.0,20.0,395.0,19.5" stroke="black" stroke-width="2" fill="none" />
<polyline points="394.0,18.0,392.5,26.0,388.5,34.0,384.0,41.5,380.0,49.5,376.0,57.5,372.0,65.5,367.5,73.5,363.5,81.5,359.5,89.5,355.5,97.0,352.5,105.5,348.5,114.0,344.5,122.0,341.0,130.0,337.0,138.0,335.0,146.5,331.0,155.0,327.0,163.0,324.0,171.0,320.5,179.0,317.5,187.0,314.5,195.0,312.5,202.5,310.5,210.5,306.0,221.0,314.0,224.0,322.5,218.5,330.5,209.5,338.5,195.5,346.5,182.5" stroke="black" stroke-width="2" fill="none" />
<polyline points="347.0,178.5,344.0,186.5,339.5,194.5,336.0,202.0,330.0,210.5,324.5,218.0,322.0,226.0" stroke="black" stroke-width="2" fill="none" />
<polyline points="315.0,218.5,323.5,211.5,331.5,204.5" stroke="black" stroke-width="2" fill="none" />
<polyline points="330.0,197.5,338.0,197.0" stroke="black" stroke-width="2" fill="none" />
<polyline points="338.5,189.0,347.0,188.5" stroke="black" stroke-width="2" fill="none" />
<polyline points="340.0,185.5,348.0,178.5,355.5,171.0" stroke="black" stroke-width="2" fill="none" />
<polyline points="347.0,172.0,355.5,164.0,363.5,156.0" stroke="black" stroke-width="2" fill="none" />
<polyline points="355.5,155.0,363.5,147.5" stroke="black" stroke-width="2" fill="none" />
<polyline points="362.0,142.5,370.0,141.5" stroke="black" stroke-width="2" fill="none" />
<polyline points="366.0,138.5,366.0,146.0,363.0,154.0,360.5,161.5,358.5,169.5,355.5,177.5,354.0,185.5,345.0,197.5,351.0,194.5" stroke="black" stroke-width="2" fill="none" />
<polyline points="350.5,188.0,350.5,180.0" stroke="black" stroke-width="2" fill="none" />
<polyline points="347.5,176.5,355.0,176.0" stroke="black" stroke-width="2" fill="none" />
<polyline points="357.0,162.0,364.5,162.0" stroke="black" stroke-width="2" fill="none" />
<polyline points="363.0,158.0,355.0,158.5" stroke="black" stroke-width="2" fill="none" />
<polyline points="354.5,150.5,362.5,150.5,370.5,150.5" stroke="black" stroke-width="2" fill="none" />
<polyline points="362.5,163.5,354.0,164.0,346.0,165.0" stroke="black" stroke-width="2" fill="none" />
<polyline points="338.5,173.0,347.0,172.5,354.5,172.0" stroke="black" stroke-width="2" fill="none" />
<polyline points="355.0,178.0,346.5,179.0,338.5,179.5" stroke="black" stroke-width="2" fill="none" />
<polyline points="324.0,163.0,332.0,155.0" stroke="black" stroke-width="2" fill="none" />
<polyline points="332.0,156.0,323.5,156.5" stroke="black" stroke-width="2" fill="none" />
<polyline points="326.5,149.5,334.5,133.0,342.5,113.5,350.0,95.0,358.0,78.0,366.0,61.0,374.0,45.0,382.0,29.0,390.0,16.5,388.0,17.5,384.0,25.5,380.0,33.5,374.5,42.0,371.5,50.5,367.5,59.0,363.0,67.0,359.5,75.0,355.5,83.0,352.0,91.0,349.0,99.5,345.0,108.0,342.0,115.5,337.0,124.0,335.0,132.0,330.5,139.5,326.5,147.5,323.5,155.5,320.5,163.0,317.5,170.5,314.0,178.5,311.0,186.5,308.5,194.5,306.5,202.5,304.0,211.0,304.0,219.0,303.0,228.5,306.0,230.5" stroke="black" stroke-width="2" fill="none" />
<polyline points="308.5,220.5,317.0,213.0" stroke="black" stroke-width="2" fill="none" />
<polyline points="323.5,206.5,331.5,206.0" stroke="black" stroke-width="2" fill="none" />
<polyline points="332.0,211.5,324.5,212.5,316.0,214.0,307.5,214.5" stroke="black" stroke-width="2" fill="none" />
<polyline points="305.5,206.5,314.0,205.5" stroke="black" stroke-width="2" fill="none" />
<polyline points="314.5,199.0,307.0,200.0" stroke="black" stroke-width="2" fill="none" />
<polyline points="307.0,191.0,314.5,190.5" stroke="black" stroke-width="2" fill="none" />
<polyline points="316.0,193.0,316.0,175.5,328.5,161.0,336.0,142.0,344.0,123.5,352.0,106.5,360.0,89.5,368.0,72.5,376.5,56.0,384.5,41.0,392.5,27.0" stroke="black" stroke-width="2" fill="none" />
<polyline points="387.0,46.0,379.0,46.5,371.0,47.0" stroke="black" stroke-width="2" fill="none" />
<polyline points="373.0,55.0,380.5,54.5" stroke="black" stroke-width="2" fill="none" />
<polyline points="369.5,71.0,362.0,71.5" stroke="black" stroke-width="2" fill="none" />
<polyline points="357.0,76.0,365.0,75.5,373.5,75.0" stroke="black" stroke-width="2" fill="none" />
<polyline points="379.0,61.5,370.0,62.0,361.5,63.0" stroke="black" stroke-width="2" fill="none" />
<polyline points="363.5,85.0,355.5,85.5" stroke="black" stroke-width="2" fill="none" />
<polyline points="354.5,108.5,346.5,109.0,338.0,109.5" stroke="black" stroke-width="2" fill="none" />
<polyline points="338.5,118.0,346.0,117.5" stroke="black" stroke-width="2" fill="none" />
<polyline points="346.5,117.5,338.5,124.5" stroke="black" stroke-width="2" fill="none" />
<polyline points="337.5,126.0,345.5,125.5" stroke="black" stroke-width="2" fill="none" />
<polyline points="339.5,132.5,332.0,132.5" stroke="black" stroke-width="2" fill="none" />
<polyline points="330.0,139.5,337.5,139.5" stroke="black" stroke-width="2" fill="none" />
<polyline points="330.5,147.0,322.5,148.0" stroke="black" stroke-width="2" fill="none" />
<polyline points="331.0,164.5,323.0,165.5,314.5,166.0" stroke="black" stroke-width="2" fill="none" />
<polyline points="316.5,172.0,324.0,171.0" stroke="black" stroke-width="2" fill="none" />
<polyline points="324.0,179.5,316.0,180.5" stroke="black" stroke-width="2" fill="none" />
<polyline points="284.5,170.5,276.5,178.0,268.5,185.5" stroke="black" stroke-width="2" fill="none" />
<polyline points="267.0,190.0,275.0,190.0,283.0,189.5" stroke="black" stroke-width="2" fill="none" />
<polyline points="278.5,188.5,270.5,195.5" stroke="black" stroke-width="2" fill="none" />
<polyline points="268.0,195.5,275.5,194.5" stroke="black" stroke-width="2" fill="none" />
<polyline points="277.5,196.0,269.5,203.5" stroke="black" stroke-width="2" fill="none" />
<polyline points="268.0,204.5,260.0,205.0" stroke="black" stroke-width="2" fill="none" />
<polyline points="258.0,199.0,266.0,198.0,274.5,197.5" stroke="black" stroke-width="2" fill="none" />
<polyline points="270.0,200.5,272.0,208.0,273.5,216.5,265.5,219.5" stroke="black" stroke-width="2" fill="none" />
<polyline points="260.5,211.5,252.5,219.0" stroke="black" stroke-width="2" fill="none" />
<polyline points="252.0,216.0,260.5,215.5" stroke="black" stroke-width="2" fill="none" />
<polyline points="260.5,219.5,252.5,220.0,245.0,220.5" stroke="black" stroke-width="2" fill="none" />
<polyline points="251.0,229.0,242.5,230.0,234.0,230.5" stroke="black" stroke-width="2" fill="none" />
<polyline points="218.5,229.0,210.5,236.5,202.5,244.0" stroke="black" stroke-width="2" fill="none" />
<polyline points="203.5,246.5,211.5,246.5" stroke="black" stroke-width="2" fill="none" />
<polyline points="211.0,245.0,219.0,237.5" stroke="black" stroke-width="2" fill="none" />
<polyline points="218.5,232.0,210.5,232.5" stroke="black" stroke-width="2" fill="none" />
<polyline points="211.5,228.0,220.0,221.0" stroke="black" stroke-width="2" fill="none" />
<polyline points="212.5,219.0,220.5,211.5" stroke="black" stroke-width="2" fill="none" />
<polyline points="212.5,210.5,220.5,203.0" stroke="black" stroke-width="2" fill="none" />
<polyline points="221.5,206.0,214.0,206.5" stroke="black" stroke-width="2" fill="none" />
<polyline points="211.5,201.0,219.5,193.5" stroke="black" stroke-width="2" fill="none" />
<polyline points="219.0,197.5,211.0,198.0" stroke="black" stroke-width="2" fill="none" />
<polyline points="212.5,194.5,220.0,187.0,228.0,179.5" stroke="black" stroke-width="2" fill="none" />
<polyline points="226.0,171.5,234.0,171.5" stroke="black" stroke-width="2" fill="none" />
<polyline points="234.5,161.0,226.5,161.5" stroke="black" stroke-width="2" fill="none" />
<polyline points="228.5,159.5,237.0,159.0,244.5,158.5" stroke="black" stroke-width="2" fill="none" />
<polyline points="245.5,155.5,237.5,163.0,230.0,170.5,221.5,178.5,213.0,186.0,204.5,193.0" stroke="black" stroke-width="2" fill="none" />
<polyline points="208.5,185.0,216.5,184.5" stroke="black" stroke-width="2" fill="none" />
<polyline points="218.5,178.5,226.5,178.0" stroke="black" stroke-width="2" fill="none" />
<polyline points="225.5,179.5,217.5,179.5,209.5,180.0,201.5,180.0" stroke="black" stroke-width="2" fill="none" />
<polyline points="195.5,188.5,203.0,188.0,211.0,187.5,218.5,187.5,226.5,187.5" stroke="black" stroke-width="2" fill="none" />
<polyline points="223.5,186.5,231.5,174.5,239.5,166.5,247.5,156.5,255.5,148.0,263.0,140.0,271.0,132.0,279.0,123.5,286.5,115.5,294.5,105.5,302.5,95.0,310.5,80.0" stroke="black" stroke-width="2" fill="none" />
<polyline points="307.5,78.0,315.5,77.5" stroke="black" stroke-width="2" fill="none" />
<polyline points="313.5,69.0,305.5,69.5" stroke="black" stroke-width="2" fill="none" />
<polyline points="306.5,62.5,314.5,62.5" stroke="black" stroke-width="2" fill="none" />
<polyline points="309.0,48.0,301.0,48.5,293.5,50.0,286.0,50.5,277.5,51.0,269.0,51.0,261.0,51.5,253.0,52.5,245.5,53.5" stroke="black" stroke-width="2" fill="none" />
<polyline points="242.5,60.0,234.0,60.5,226.0,61.0,218.5,62.0" stroke="black" stroke-width="2" fill="none" />
<polyline points="220.5,68.5,212.5,75.5" stroke="black" stroke-width="2" fill="none" />
<polyline points="211.5,77.0,220.0,76.0" stroke="black" stroke-width="2" fill="none" />
<polyline points="219.0,74.0,211.0,82.0,202.5,89.0,194.5,96.5,186.5,104.5" stroke="black" stroke-width="2" fill="none" />
<polyline points="189.0,103.5,197.0,103.0,205.5,102.5,213.5,101.5" stroke="black" stroke-width="2" fill="none" />
<polyline points="212.0,92.5,204.0,100.0,196.0,106.5" stroke="black" stroke-width="2" fill="none" />
<polyline points="202.5,108.0,195.0,108.5,187.5,109.5,180.0,110.0" stroke="black" stroke-width="2" fill="none" />
<polyline points="186.5,126.0,194.5,126.0" stroke="black" stroke-width="2" fill="none" />
<polyline points="196.0,116.5,204.0,116.0" stroke="black" stroke-width="2" fill="none" />
<polyline points="199.5,100.0,195.5,108.0,191.5,116.5,188.5,124.5,186.0,133.0,184.5,141.0,180.5,149.0,171.5,157.0,176.5,165.0,180.5,172.5,182.5,180.5,186.5,192.5,188.5,196.5" stroke="black" stroke-width="2" fill="none" />
<polyline points="188.0,196.5,196.5,196.0,204.5,195.5" stroke="black" stroke-width="2" fill="none" />
<polyline points="213.5,191.5,211.5,199.5,209.5,207.5,207.5,215.0,207.0,223.0,205.0,231.0,204.0,239.0,203.0,247.0,201.0,255.5,201.0,263.5,202.0,267.0" stroke="black" stroke-width="2" fill="none" />
<polyline points="204.0,262.0,212.0,254.5" stroke="black" stroke-width="2" fill="none" />
<polyline points="217.5,248.0,226.0,247.0" stroke="black" stroke-width="2" fill="none" />
<polyline points="228.5,240.5,238.0,232.5,243.5,224.5,249.5,216.0,254.5,208.0,258.5,200.0,262.5,191.5,266.5,183.5,270.0,176.0,272.5,168.0,277.0,160.5,279.5,152.5,283.0,144.0,286.0,136.0,293.5,128.0,290.5,130.0,282.0,145.5" stroke="black" stroke-width="2" fill="none" />
<polyline points="283.5,145.5,292.0,138.0" stroke="black" stroke-width="2" fill="none" />
<polyline points="290.0,145.0,281.5,152.5" stroke="black" stroke-width="2" fill="none" />
<polyline points="286.5,152.0,294.0,151.0" stroke="black" stroke-width="2" fill="none" />
<polyline points="292.5,156.5,284.5,157.0,276.5,158.0" stroke="black" stroke-width="2" fill="none" />
<polyline points="276.5,165.5,284.5,165.0" stroke="black" stroke-width="2" fill="none" />
<polyline points="284.5,163.0,276.5,170.5" stroke="black" stroke-width="2" fill="none" />
<polyline points="274.5,174.0,283.0,173.0" stroke="black" stroke-width="2" fill="none" />
<polyline points="283.0,179.0,276.0,180.0,268.0,180.5" stroke="black" stroke-width="2" fill="none" />
<polyline points="287.5,154.0,295.5,137.5,297.5,135.5,293.5,143.5,289.5,151.5,286.5,159.5,284.0,167.5,281.5,175.0,279.5,183.0,277.5,190.5,275.5,198.5,275.5,206.5,277.5,214.5,279.5,218.5,281.5,214.0" stroke="black" stroke-width="2" fill="none" />
<polyline points="278.0,212.5,285.0,212.0" stroke="black" stroke-width="2" fill="none" />
<polyline points="290.5,220.5,280.5,228.0,288.5,223.0" stroke="black" stroke-width="2" fill="none" />
<polyline points="219.5,212.5,211.5,213.5" stroke="black" stroke-width="2" fill="none" />
<polyline points="204.5,221.5,212.5,220.5,220.0,220.5" stroke="black" stroke-width="2" fill="none" />
<polyline points="219.5,229.5,212.0,229.5,204.5,230.0" stroke="black" stroke-width="2" fill="none" />
<polyline points="202.5,239.5,211.0,239.0,219.0,238.5,227.5,237.5,236.0,236.0,244.5,235.0" stroke="black" stroke-width="2" fill="none" />
<polyline points="237.5,244.0,246.0,236.0,252.0,228.5,258.0,220.5,263.5,212.5,267.5,204.5,268.5,201.5,260.5,216.5,252.5,228.5,244.0,238.5,236.5,245.0,228.5,250.0,220.5,247.5,212.0,239.5" stroke="black" stroke-width="2" fill="none" />
<polyline points="212.0,239.0,218.0,246.5" stroke="black" stroke-width="2" fill="none" />
<polyline points="211.0,254.0,203.0,254.5" stroke="black" stroke-width="2" fill="none" />
<polyline points="204.0,260.0,212.0,260.0" stroke="black" stroke-width="2" fill="none" />
<polyline points="206.5,263.0,207.5,255.0,208.0,247.0,209.0,239.0" stroke="black" stroke-width="2" fill="none" />
<polyline points="188.0,235.5,180.0,243.0" stroke="black" stroke-width="2" fill="none" />
<polyline points="174.0,244.0,166.0,251.5" stroke="black" stroke-width="2" fill="none" />
<polyline points="163.0,247.0,171.0,246.5,178.5,245.5" stroke="black" stroke-width="2" fill="none" />
<polyline points="170.0,237.5,178.0,236.5,186.5,236.5" stroke="black" stroke-width="2" fill="none" />
<polyline points="186.5,227.5,178.5,227.5,170.5,228.0" stroke="black" stroke-width="2" fill="none" />
<polyline points="171.0,228.5,176.0,237.0,168.0,245.5,155.0,253.5,141.0,262.0,128.0,269.5,115.0,278.0,111.0,280.0,119.5,274.5,127.5,270.5,136.0,265.5,144.0,260.5,151.5,256.5,159.0,251.5,167.0,246.5,174.5,239.0" stroke="black" stroke-width="2" fill="none" />
<polyline points="171.5,227.5,179.5,220.0" stroke="black" stroke-width="2" fill="none" />
<polyline points="179.0,219.0,171.0,220.0,163.0,220.5,155.0,221.0,147.0,221.5,139.0,222.0" stroke="black" stroke-width="2" fill="none" />
<polyline points="141.0,228.5,133.0,235.5" stroke="black" stroke-width="2" fill="none" />
<polyline points="133.0,230.0,141.5,229.0,149.5,228.5,157.0,228.0,164.5,227.5" stroke="black" stroke-width="2" fill="none" />
<polyline points="168.0,228.0,159.0,236.0,149.5,244.0,141.5,252.0,131.5,260.5,121.5,269.0,110.5,277.0,107.0,279.5,115.0,274.5,123.0,266.5,131.5,261.0,139.5,253.5,147.0,246.0,155.0,239.0,163.0,232.0,171.0,228.0" stroke="black" stroke-width="2" fill="none" />
<polyline points="176.0,225.0,184.0,234.0" stroke="black" stroke-width="2" fill="none" />
<polyline points="184.0,243.5,176.0,247.5,168.0,252.0,160.0,256.0,151.5,262.5,143.5,266.5,135.5,271.5,127.5,276.0,119.5,281.0,111.0,285.5,103.0,291.0,95.0,296.0,87.0,301.5,79.0,304.0,70.5,306.0,74.5,299.0,82.5,291.0,92.5,283.0,101.5,275.0,111.0,267.0,121.0,259.0,131.5,251.0,139.5,242.5,147.5,237.0,140.0,243.0,131.5,251.0,123.5,257.0,115.0,265.0,107.0,271.0,99.0,277.5,91.0,285.5,82.5,291.5,74.5,299.0,80.5,303.5,96.0,295.5,109.0,287.0,123.5,279.0,139.0,270.5,153.0,262.5,167.5,254.5,180.5,246.0,186.5,238.0,179.5,230.0,175.5,222.0,182.5,214.0,191.5,206.0,203.0,197.5,212.0,190.0,208.0,194.0,199.5,200.0,191.5,206.5,183.5,213.5,175.5,221.5" stroke="black" stroke-width="2" fill="none" />
<polyline points="181.0,210.5,172.5,218.0,164.5,226.0,156.0,233.5" stroke="black" stroke-width="2" fill="none" />
<polyline points="155.0,226.5,147.0,234.5" stroke="black" stroke-width="2" fill="none" />
<polyline points="138.5,234.5,146.0,227.0,153.5,219.0" stroke="black" stroke-width="2" fill="none" />
<polyline points="155.0,225.5,147.5,225.5" stroke="black" stroke-width="2" fill="none" />
<polyline points="158.5,228.0,159.5,220.5,156.5,229.0,148.5,214.0" stroke="black" stroke-width="2" fill="none" />
<polyline points="148.0,213.0,155.5,212.5" stroke="black" stroke-width="2" fill="none" />
<polyline points="162.0,214.5,170.0,214.0,178.0,213.0" stroke="black" stroke-width="2" fill="none" />
<polyline points="180.0,205.5,188.0,205.0,196.0,204.5" stroke="black" stroke-width="2" fill="none" />
<polyline points="192.5,180.5,184.5,181.0" stroke="black" stroke-width="2" fill="none" />
<polyline points="178.0,172.5,186.5,171.5,194.0,171.5" stroke="black" stroke-width="2" fill="none" />
<polyline points="187.0,164.5,178.5,172.0" stroke="black" stroke-width="2" fill="none" />
<polyline points="180.5,165.0,189.0,164.5" stroke="black" stroke-width="2" fill="none" />
<polyline points="187.0,156.0,179.0,163.5" stroke="black" stroke-width="2" fill="none" />
<polyline points="180.5,161.0,188.5,160.5" stroke="black" stroke-width="2" fill="none" />
<polyline points="186.0,157.5,178.0,157.5,170.0,158.5" stroke="black" stroke-width="2" fill="none" />
<polyline points="172.0,156.0,180.0,150.0,188.0,129.0,196.0,109.5,206.0,101.5,214.0,87.0" stroke="black" stroke-width="2" fill="none" />
<polyline points="208.5,89.0,200.5,89.5" stroke="black" stroke-width="2" fill="none" />
<polyline points="197.0,91.0,205.0,90.5,212.5,90.5" stroke="black" stroke-width="2" fill="none" />
<polyline points="217.5,84.0,209.5,84.0,201.5,84.5" stroke="black" stroke-width="2" fill="none" />
<polyline points="195.0,75.5,187.5,76.0,179.5,77.0" stroke="black" stroke-width="2" fill="none" />
<polyline points="177.0,69.5,183.0,71.5,175.5,80.0,160.5,88.0,148.0,95.5,135.0,103.5,123.0,111.0,113.0,119.0,102.5,126.5,93.5,134.0,84.5,142.5,78.5,150.5,72.5,158.5,66.0,166.5,62.5,174.5,59.5,183.0,55.5,191.0,52.0,199.5,50.0,208.0,51.0,216.5,49.0,224.5,55.0,229.5" stroke="black" stroke-width="2" fill="none" />
<polyline points="52.0,213.5,60.0,213.0" stroke="black" stroke-width="2" fill="none" />
<polyline points="60.0,206.5,52.0,213.5" stroke="black" stroke-width="2" fill="none" />
<polyline points="53.5,208.0,61.5,207.5" stroke="black" stroke-width="2" fill="none" />
<polyline points="53.5,199.0,61.5,180.0,69.5,165.0,78.0,154.0,85.5,143.5,93.5,136.5,101.5,129.5,109.5,121.5,117.5,116.5,125.0,109.5,133.0,105.0,141.0,99.5,149.0,95.5,156.5,90.5,164.5,85.0,172.5,81.0,180.5,77.0,188.5,73.5,197.0,70.5,205.0,67.5,213.0,63.5,221.0,62.0,229.0,58.5,237.0,56.0,245.0,53.0,253.0,50.5,261.0,50.5,269.0,51.0,277.0,51.0,285.5,51.5,293.5,51.5,301.5,53.0,309.5,59.0" stroke="black" stroke-width="2" fill="none" />
<polyline points="299.5,59.5,291.5,56.5,284.0,57.0,276.5,57.5,268.5,56.0,261.0,58.0,253.0,60.0,245.5,62.5,237.5,64.0,229.5,66.0,221.0,69.0" stroke="black" stroke-width="2" fill="none" />
<polyline points="220.5,72.5,212.5,73.0" stroke="black" stroke-width="2" fill="none" />
<polyline points="210.5,74.0,202.5,84.5,194.5,93.5,186.5,102.0,181.5,117.0,181.5,108.5,187.5,100.5,194.5,92.5,201.5,84.0,209.5,76.0,209.5,70.5,201.5,73.5,193.5,77.5,185.5,82.0,177.0,86.0,168.5,90.5,160.5,95.0,152.0,100.0,144.0,105.5,136.5,110.5,128.5,116.5,120.5,122.5,112.5,128.5,104.5,134.5,97.0,142.5,89.5,150.0,81.5,160.0,74.0,170.5,66.5,186.5" stroke="black" stroke-width="2" fill="none" />
<polyline points="66.5,182.0,59.0,189.5" stroke="black" stroke-width="2" fill="none" />
<polyline points="58.5,189.5,66.5,189.0" stroke="black" stroke-width="2" fill="none" />
<polyline points="66.5,181.5,59.0,182.5" stroke="black" stroke-width="2" fill="none" />
<polyline points="57.5,173.0,66.0,172.5,75.0,172.0" stroke="black" stroke-width="2" fill="none" />
<polyline points="66.5,171.5,74.0,164.0,82.0,157.0" stroke="black" stroke-width="2" fill="none" />
<polyline points="82.5,156.5,74.5,156.5" stroke="black" stroke-width="2" fill="none" />
<polyline points="74.0,150.0,82.0,149.5,90.0,149.5" stroke="black" stroke-width="2" fill="none" />
<polyline points="85.0,141.5,93.0,141.0,101.5,140.5" stroke="black" stroke-width="2" fill="none" />
<polyline points="105.5,130.0,113.5,122.0" stroke="black" stroke-width="2" fill="none" />
<polyline points="117.0,117.0,125.0,117.0" stroke="black" stroke-width="2" fill="none" />
<polyline points="125.5,111.0,133.5,110.5,141.5,110.5" stroke="black" stroke-width="2" fill="none" />
<polyline points="148.0,102.0,140.5,103.0,132.5,103.5" stroke="black" stroke-width="2" fill="none" />
<polyline points="146.0,93.5,154.5,92.5,162.5,92.0" stroke="black" stroke-width="2" fill="none" />
<polyline points="161.0,86.5,169.0,86.0,177.0,85.0" stroke="black" stroke-width="2" fill="none" />
<polyline points="197.5,99.5,190.5,107.5,184.5,115.0,185.5,113.5,194.0,103.5" stroke="black" stroke-width="2" fill="none" />
<polyline points="194.5,133.0,186.5,133.5" stroke="black" stroke-width="2" fill="none" />
<polyline points="185.5,141.5,193.5,141.5,201.0,141.5" stroke="black" stroke-width="2" fill="none" />
<polyline points="196.5,137.0,188.5,144.5,180.5,152.0" stroke="black" stroke-width="2" fill="none" />
<polyline points="179.5,150.5,187.5,149.5,195.5,149.0" stroke="black" stroke-width="2" fill="none" />
<polyline points="188.0,155.5,196.0,149.0,202.0,144.5,191.0,152.5,188.0,160.5,188.0,168.0,188.5,175.5,192.5,183.5,196.5,184.0" stroke="black" stroke-width="2" fill="none" />
<polyline points="212.0,172.5,220.5,172.0,228.5,171.0,236.5,170.5" stroke="black" stroke-width="2" fill="none" />
<polyline points="221.5,170.0,229.5,162.5,237.5,154.5" stroke="black" stroke-width="2" fill="none" />
<polyline points="236.0,149.5,228.5,149.5" stroke="black" stroke-width="2" fill="none" />
<polyline points="231.0,149.5,231.0,157.5" stroke="black" stroke-width="2" fill="none" />
<polyline points="233.5,167.0,225.0,167.0,217.0,167.5" stroke="black" stroke-width="2" fill="none" />
<polyline points="225.0,146.5,227.5,152.0,223.5,160.0,219.0,168.0,215.0,175.5,207.0,183.5,198.0,191.5,190.0,199.0,180.0,207.0,170.0,215.0,179.0,208.0,187.0,201.5,194.5,194.5,202.5,186.5,211.0,178.5,219.5,167.0,227.5,149.5,239.5,147.5,242.5,147.5" stroke="black" stroke-width="2" fill="none" />
<polyline points="245.0,147.5,253.0,147.0" stroke="black" stroke-width="2" fill="none" />
<polyline points="252.5,142.5,261.0,142.0" stroke="black" stroke-width="2" fill="none" />
<polyline points="259.5,135.0,267.5,134.5" stroke="black" stroke-width="2" fill="none" />
<polyline points="266.5,124.5,275.0,124.5" stroke="black" stroke-width="2" fill="none" />
<polyline points="276.5,118.5,285.0,118.0" stroke="black" stroke-width="2" fill="none" />
<polyline points="283.0,114.5,291.5,107.5,299.5,100.0" stroke="black" stroke-width="2" fill="none" />
<polyline points="299.0,94.0,307.5,93.5" stroke="black" stroke-width="2" fill="none" />
<polyline points="307.0,84.5,299.0,85.0" stroke="black" stroke-width="2" fill="none" />
<polyline points="300.0,102.0,292.0,102.5" stroke="black" stroke-width="2" fill="none" />
<polyline points="290.5,108.5,282.5,108.5" stroke="black" stroke-width="2" fill="none" />
<polyline points="292.5,122.0,283.5,130.0,281.5,131.0,290.0,124.5" stroke="black" stroke-width="2" fill="none" />
<polyline points="299.0,133.0,290.5,133.5,282.0,134.0" stroke="black" stroke-width="2" fill="none" />
<polyline points="284.5,143.5,292.5,143.0" stroke="black" stroke-width="2" fill="none" />
<polyline points="361.0,141.0,353.0,156.0,345.0,165.5,342.0,174.5,333.5,195.0,325.5,206.0,317.0,212.5,313.0,216.5,322.0,208.5,329.0,201.0,334.5,193.0,337.5,185.0,340.5,177.0,345.5,169.0,351.0,160.5,355.0,152.5,359.5,144.5,363.5,136.5" stroke="black" stroke-width="2" fill="none" />
<polyline points="306.0,76.5,298.0,89.5,290.0,101.0,282.0,109.5,274.0,119.5,266.0,129.5,258.5,138.0,250.5,146.5,242.5,152.5,234.5,160.5,240.5,154.5,250.0,146.5,259.0,139.0,267.0,130.5,273.0,122.5,281.0,114.5,286.5,106.5,292.5,98.0,298.5,90.0,304.5,82.0,308.5,74.0,307.5,66.0,297.5,58.0" stroke="black" stroke-width="2" fill="none" />
<polyline points="299.5,53.5,310.0,61.0,313.0,69.0,313.0,76.5,309.5,84.0,304.5,92.0,299.5,99.5,292.0,108.0,286.0,116.0,278.0,124.0,270.0,132.0,262.0,140.0,254.0,148.0,246.0,156.5,240.0,165.0,232.0,173.0,226.0,180.5,223.0,188.0,218.5,195.5,218.5,203.0,216.5,211.0,216.5,219.5,216.5,227.5,216.5,235.5,219.0,237.5,227.0,241.5,235.0,235.5,243.0,228.0,251.0,216.0,259.0,202.5,266.5,185.5" stroke="black" stroke-width="2" fill="none" />
<polyline points="189.0,186.0,181.0,170.0,173.0,161.0" stroke="black" stroke-width="2" fill="none" />
<polyline points="147.5,165.5,139.5,173.0" stroke="black" stroke-width="2" fill="none" />
<polyline points="141.0,174.5,148.5,174.0" stroke="black" stroke-width="2" fill="none" />
<polyline points="147.0,179.0,138.5,187.0" stroke="black" stroke-width="2" fill="none" />
<polyline points="142.5,190.0,150.5,189.5" stroke="black" stroke-width="2" fill="none" />
<polyline points="146.0,187.0,138.5,194.5" stroke="black" stroke-width="2" fill="none" />
<polyline points="139.5,199.0,147.0,198.5" stroke="black" stroke-width="2" fill="none" />
<polyline points="145.5,204.5,137.5,205.0" stroke="black" stroke-width="2" fill="none" />
<polyline points="124.5,198.0,116.5,205.5" stroke="black" stroke-width="2" fill="none" />
<polyline points="115.0,206.5,123.0,206.0" stroke="black" stroke-width="2" fill="none" />
<polyline points="122.0,198.0,113.5,198.5" stroke="black" stroke-width="2" fill="none" />
<polyline points="115.5,189.5,123.5,188.5" stroke="black" stroke-width="2" fill="none" />
<polyline points="116.0,188.0,124.0,180.5" stroke="black" stroke-width="2" fill="none" />
<polyline points="124.0,181.5,116.0,182.5" stroke="black" stroke-width="2" fill="none" />
<polyline points="116.0,177.0,124.0,169.5" stroke="black" stroke-width="2" fill="none" />
<polyline points="125.0,173.0,117.0,173.5" stroke="black" stroke-width="2" fill="none" />
<polyline points="112.5,174.5,114.5,182.5,115.0,190.5,113.0,198.5,113.0,206.5,111.5,214.5" stroke="black" stroke-width="2" fill="none" />
<polyline points="114.5,236.0,106.5,243.5,99.5,250.5,92.0,257.5" stroke="black" stroke-width="2" fill="none" />
<polyline points="92.0,259.0,100.0,258.5" stroke="black" stroke-width="2" fill="none" />
<polyline points="101.0,246.0,109.0,245.5,116.5,245.5" stroke="black" stroke-width="2" fill="none" />
<polyline points="118.0,242.5,125.5,235.0" stroke="black" stroke-width="2" fill="none" />
<polyline points="130.5,237.5,122.5,238.5,114.0,239.5,106.0,240.5" stroke="black" stroke-width="2" fill="none" />
<polyline points="108.0,237.5,100.0,245.5,89.0,253.5" stroke="black" stroke-width="2" fill="none" />
<polyline points="82.5,252.5,74.5,260.0" stroke="black" stroke-width="2" fill="none" />
<polyline points="74.0,267.0,82.0,259.5" stroke="black" stroke-width="2" fill="none" />
<polyline points="77.0,252.5,85.0,251.5,92.5,251.5,100.5,251.0,108.5,250.5" stroke="black" stroke-width="2" fill="none" />
<polyline points="117.5,262.0,125.5,262.0,134.0,261.5,142.0,261.5,149.5,261.5" stroke="black" stroke-width="2" fill="none" />
<polyline points="146.0,258.5,138.5,266.0" stroke="black" stroke-width="2" fill="none" />
<polyline points="132.5,267.0,124.5,275.0" stroke="black" stroke-width="2" fill="none" />
<polyline points="117.0,275.5,108.5,282.5" stroke="black" stroke-width="2" fill="none" />
<polyline points="108.0,280.0,100.0,280.5" stroke="black" stroke-width="2" fill="none" />
<polyline points="100.0,276.0,108.0,276.0,116.0,276.0,124.0,276.0" stroke="black" stroke-width="2" fill="none" />
<polyline points="116.5,266.5,108.5,274.0,100.5,282.0,92.5,290.0,84.5,297.5" stroke="black" stroke-width="2" fill="none" />
<polyline points="77.5,294.0,86.0,293.0,93.5,292.5" stroke="black" stroke-width="2" fill="none" />
<polyline points="92.0,291.0,100.0,290.5" stroke="black" stroke-width="2" fill="none" />
<polyline points="106.5,284.0,98.5,284.5,91.0,285.0,83.5,285.0" stroke="black" stroke-width="2" fill="none" />
<polyline points="90.5,261.0,82.0,262.0,74.0,262.5,66.0,263.5" stroke="black" stroke-width="2" fill="none" />
<polyline points="58.5,271.0,66.5,270.0,75.0,269.5" stroke="black" stroke-width="2" fill="none" />
<polyline points="76.0,246.0,84.0,245.5" stroke="black" stroke-width="2" fill="none" />
<polyline points="75.5,243.0,83.5,235.5" stroke="black" stroke-width="2" fill="none" />
<polyline points="84.5,237.0,76.5,237.5" stroke="black" stroke-width="2" fill="none" />
<polyline points="75.0,235.5,82.5,228.0" stroke="black" stroke-width="2" fill="none" />
<polyline points="82.0,230.0,73.5,230.5" stroke="black" stroke-width="2" fill="none" />
<polyline points="77.0,224.0,85.0,200.0,92.5,184.0,100.0,172.0,108.0,168.5,115.5,168.5" stroke="black" stroke-width="2" fill="none" />
<polyline points="114.0,165.5,122.0,173.5,123.0,182.0,122.5,191.0,121.5,199.5,119.5,208.0,115.5,216.0" stroke="black" stroke-width="2" fill="none" />
<polyline points="91.5,204.0,83.5,204.0" stroke="black" stroke-width="2" fill="none" />
<polyline points="85.0,197.0,93.0,197.0" stroke="black" stroke-width="2" fill="none" />
<polyline points="93.0,196.5,101.0,182.5,108.5,174.5,109.5,174.0,101.0,182.0,95.5,190.0,91.5,197.5,88.5,205.5,85.5,213.5,83.5,221.5,81.0,229.5,79.0,237.5,79.0,245.5,79.0,253.0,83.0,256.5,91.5,251.5,99.5,245.5,108.0,237.0,116.0,238.5,124.0,234.5,132.0,230.5,140.5,225.5" stroke="black" stroke-width="2" fill="none" />
<polyline points="138.5,238.0,146.0,237.0,154.0,236.5" stroke="black" stroke-width="2" fill="none" />
<polyline points="162.5,253.5,154.0,255.0,146.0,255.5" stroke="black" stroke-width="2" fill="none" />
<polyline points="150.0,245.5,142.0,245.5,134.0,245.5" stroke="black" stroke-width="2" fill="none" />
<polyline points="128.5,240.5,114.5,248.5,102.0,256.5,92.5,264.5,73.0,272.0,58.0,280.0,45.5,288.0,34.5,296.0,23.5,304.5,13.5,312.5,10.5,314.5,18.0,308.0,26.0,301.0,34.0,296.0,42.0,290.0,50.5,285.0,60.0,280.5,68.0,275.5,76.0,271.5,84.5,267.5,93.0,264.5,100.5,257.5,108.0,251.5,116.0,247.0,124.0,243.0,132.0,240.5,139.5,237.0,148.0,234.5" stroke="black" stroke-width="2" fill="none" />
<polyline points="161.0,218.0,169.0,217.5,176.5,209.5" stroke="black" stroke-width="2" fill="none" />
<polyline points="149.5,182.0,141.5,182.5" stroke="black" stroke-width="2" fill="none" />
<polyline points="141.5,167.5,150.0,166.5" stroke="black" stroke-width="2" fill="none" />
<polyline points="149.5,158.0,141.0,158.5" stroke="black" stroke-width="2" fill="none" />
<polyline points="140.5,150.5,141.5,159.0,143.5,167.0,143.0,175.5,145.5,184.0,146.0,192.0,146.0,200.0,148.5,208.5,151.0,216.5,156.0,224.0" stroke="black" stroke-width="2" fill="none" />
<polyline points="140.0,255.0,132.0,255.5,124.0,256.0" stroke="black" stroke-width="2" fill="none" />
<polyline points="140.0,268.0,132.0,268.5,124.5,269.0,117.0,270.0,109.0,271.0" stroke="black" stroke-width="2" fill="none" />
<polyline points="83.0,222.0,74.5,222.0" stroke="black" stroke-width="2" fill="none" />
<polyline points="75.5,211.5,83.5,211.0,91.5,211.0" stroke="black" stroke-width="2" fill="none" />
<polyline points="92.5,190.0,100.5,189.0" stroke="black" stroke-width="2" fill="none" />
<polyline points="97.5,180.0,105.0,172.5" stroke="black" stroke-width="2" fill="none" />
<polyline points="108.5,174.5,101.0,175.0" stroke="black" stroke-width="2" fill="none" />
<polyline points="101.5,182.0,93.5,182.5" stroke="black" stroke-width="2" fill="none" />
<polyline points="107.0,165.0,115.5,164.5,123.5,164.5" stroke="black" stroke-width="2" fill="none" />
<polyline points="105.5,162.0,100.5,170.5,94.5,179.0,90.5,187.0,86.0,195.0,83.0,203.0,80.0,211.5,78.0,220.0,76.0,228.0,75.0,236.0,72.5,244.0,72.5,252.0,73.5,260.0,66.5,267.5,54.5,275.5,43.0,283.0,31.0,291.0,20.5,298.5,11.5,300.5,9.5,307.5,3.5,313.5,11.5,305.5,19.5,299.5,27.5,294.0,35.5,288.0,43.5,282.0,51.5,277.0,59.5,272.5,67.0,266.5" stroke="black" stroke-width="2" fill="none" />
<polyline points="59.0,277.5,51.5,278.5,43.5,279.0" stroke="black" stroke-width="2" fill="none" />
<polyline points="36.5,285.5,44.5,285.0,52.5,284.0" stroke="black" stroke-width="2" fill="none" />
<polyline points="35.5,293.0,27.5,293.5,19.5,294.0" stroke="black" stroke-width="2" fill="none" />
<polyline points="26.5,289.0,34.5,287.0" stroke="black" stroke-width="2" fill="none" />
<polyline points="27.5,301.5,19.5,301.5,11.5,302.0" stroke="black" stroke-width="2" fill="none" />
<polyline points="13.0,308.5,5.5,315.5" stroke="black" stroke-width="2" fill="none" />
<polyline points="4.0,311.0,12.0,310.5,19.5,309.5" stroke="black" stroke-width="2" fill="none" />
<polyline points="13.5,297.0,5.5,296.5" stroke="black" stroke-width="2" fill="none" />
<polyline points="52.5,199.5,60.5,199.0,69.0,197.5" stroke="black" stroke-width="2" fill="none" />
<polyline points="66.5,166.0,75.0,166.0" stroke="black" stroke-width="2" fill="none" />
<polyline points="92.5,133.0,100.5,132.0,108.5,131.0" stroke="black" stroke-width="2" fill="none" />
<polyline points="101.5,127.5,109.5,127.0,116.5,126.0" stroke="black" stroke-width="2" fill="none" />
<polyline points="122.5,132.5,114.5,137.5" stroke="black" stroke-width="2" fill="none" />
<polyline points="138.0,150.0,138.0,153.0,136.0,161.0,136.0,169.5,138.0,178.0,138.0,186.0,138.0,193.5,140.0,201.0,141.5,208.5,143.5,216.0,140.5,224.0,127.5,232.5" stroke="black" stroke-width="2" fill="none" />
<polyline points="56.5,222.5,59.5,217.5,59.5,209.0,62.0,201.0,64.0,193.0,66.0,184.5,70.0,176.5,74.0,169.0,80.0,161.0,86.0,153.0,94.0,145.0,102.5,137.0,111.0,128.5,120.0,120.5,132.0,112.0,143.5,104.0,157.0,96.5,170.0,89.0,185.0,81.0,200.5,73.0" stroke="black" stroke-width="2" fill="none" />
<polyline points="197.5,67.5,206.0,67.0,214.0,66.5,221.5,65.5,228.5,65.0" stroke="black" stroke-width="2" fill="none" />
<polyline points="232.0,58.5,221.0,70.5,219.5,78.5,216.5,86.5,211.0,94.5,206.5,102.5,202.5,110.5,198.0,118.5,196.0,126.5,192.5,135.0,189.5,143.0,195.5,142.0" stroke="black" stroke-width="2" fill="none" />
</svg>